<mxfile host="app.diagrams.net" agent="Mozilla/5.0 (X11; Ubuntu; Linux x86_64; rv:130.0) Gecko/20100101 Firefox/130.0" version="24.7.12" pages="2">
  <diagram id="YHdiRp34yOFSO50hChsb" name="SignIn">
    <mxGraphModel grid="1" page="1" gridSize="10" guides="1" tooltips="1" connect="1" arrows="1" fold="1" pageScale="1" pageWidth="850" pageHeight="1100" background="none" math="0" shadow="0">
      <root>
        <mxCell id="0" />
        <mxCell id="1" parent="0" />
        <mxCell id="3NeNVJCIFR1cYu1ytofc-3" value="Начало" style="ellipse;whiteSpace=wrap;html=1;labelBackgroundColor=none;fillColor=#dae8fc;strokeColor=#6c8ebf;" vertex="1" parent="1">
          <mxGeometry x="-1155" y="1660" width="80" height="40" as="geometry" />
        </mxCell>
        <mxCell id="3NeNVJCIFR1cYu1ytofc-4" value="Определить регулярность покупки" style="rounded=1;whiteSpace=wrap;html=1;labelBackgroundColor=none;fillColor=#dae8fc;strokeColor=#6c8ebf;" vertex="1" parent="1">
          <mxGeometry x="-1155" y="1740" width="200" height="60" as="geometry" />
        </mxCell>
        <mxCell id="3NeNVJCIFR1cYu1ytofc-5" value="Учет срока доставки" style="rounded=1;whiteSpace=wrap;html=1;labelBackgroundColor=none;fillColor=#dae8fc;strokeColor=#6c8ebf;" vertex="1" parent="1">
          <mxGeometry x="-1155" y="1840" width="200" height="60" as="geometry" />
        </mxCell>
        <mxCell id="3NeNVJCIFR1cYu1ytofc-6" value="Рассчитать дату следующего заказа" style="rounded=1;whiteSpace=wrap;html=1;labelBackgroundColor=none;fillColor=#dae8fc;strokeColor=#6c8ebf;" vertex="1" parent="1">
          <mxGeometry x="-1155" y="1940" width="200" height="60" as="geometry" />
        </mxCell>
        <mxCell id="3NeNVJCIFR1cYu1ytofc-7" value="Инициировать заказ" style="rounded=1;whiteSpace=wrap;html=1;labelBackgroundColor=none;fillColor=#dae8fc;strokeColor=#6c8ebf;" vertex="1" parent="1">
          <mxGeometry x="-1155" y="2040" width="200" height="60" as="geometry" />
        </mxCell>
        <mxCell id="3NeNVJCIFR1cYu1ytofc-8" value="Уведомить пользователя" style="rounded=1;whiteSpace=wrap;html=1;labelBackgroundColor=none;fillColor=#dae8fc;strokeColor=#6c8ebf;" vertex="1" parent="1">
          <mxGeometry x="-1155" y="2140" width="200" height="60" as="geometry" />
        </mxCell>
        <mxCell id="3NeNVJCIFR1cYu1ytofc-9" value="Конец" style="ellipse;whiteSpace=wrap;html=1;labelBackgroundColor=none;fillColor=#dae8fc;strokeColor=#6c8ebf;" vertex="1" parent="1">
          <mxGeometry x="-1155" y="2240" width="80" height="40" as="geometry" />
        </mxCell>
        <mxCell id="3NeNVJCIFR1cYu1ytofc-10" style="labelBackgroundColor=none;fontColor=default;fillColor=#dae8fc;strokeColor=#6c8ebf;" edge="1" parent="1" source="3NeNVJCIFR1cYu1ytofc-3" target="3NeNVJCIFR1cYu1ytofc-4">
          <mxGeometry relative="1" as="geometry" />
        </mxCell>
        <mxCell id="3NeNVJCIFR1cYu1ytofc-11" style="labelBackgroundColor=none;fontColor=default;fillColor=#dae8fc;strokeColor=#6c8ebf;" edge="1" parent="1" source="3NeNVJCIFR1cYu1ytofc-4" target="3NeNVJCIFR1cYu1ytofc-5">
          <mxGeometry relative="1" as="geometry" />
        </mxCell>
        <mxCell id="3NeNVJCIFR1cYu1ytofc-12" style="labelBackgroundColor=none;fontColor=default;fillColor=#dae8fc;strokeColor=#6c8ebf;" edge="1" parent="1" source="3NeNVJCIFR1cYu1ytofc-5" target="3NeNVJCIFR1cYu1ytofc-6">
          <mxGeometry relative="1" as="geometry" />
        </mxCell>
        <mxCell id="3NeNVJCIFR1cYu1ytofc-13" style="labelBackgroundColor=none;fontColor=default;fillColor=#dae8fc;strokeColor=#6c8ebf;" edge="1" parent="1" source="3NeNVJCIFR1cYu1ytofc-6" target="3NeNVJCIFR1cYu1ytofc-7">
          <mxGeometry relative="1" as="geometry" />
        </mxCell>
        <mxCell id="3NeNVJCIFR1cYu1ytofc-14" style="labelBackgroundColor=none;fontColor=default;fillColor=#dae8fc;strokeColor=#6c8ebf;" edge="1" parent="1" source="3NeNVJCIFR1cYu1ytofc-7" target="3NeNVJCIFR1cYu1ytofc-8">
          <mxGeometry relative="1" as="geometry" />
        </mxCell>
        <mxCell id="3NeNVJCIFR1cYu1ytofc-15" style="labelBackgroundColor=none;fontColor=default;fillColor=#dae8fc;strokeColor=#6c8ebf;" edge="1" parent="1" source="3NeNVJCIFR1cYu1ytofc-8" target="3NeNVJCIFR1cYu1ytofc-9">
          <mxGeometry relative="1" as="geometry" />
        </mxCell>
        <mxCell id="s_kqkikUZ43eWk3pyIL1-3" value="Начало" style="ellipse;whiteSpace=wrap;html=1;labelBackgroundColor=none;fillColor=#dae8fc;strokeColor=#6c8ebf;" vertex="1" parent="1">
          <mxGeometry x="-382.5" y="1650" width="80" height="40" as="geometry" />
        </mxCell>
        <mxCell id="s_kqkikUZ43eWk3pyIL1-4" value="Выбор способа оплаты" style="rounded=1;whiteSpace=wrap;html=1;labelBackgroundColor=none;fillColor=#dae8fc;strokeColor=#6c8ebf;" vertex="1" parent="1">
          <mxGeometry x="-382.5" y="1730" width="200" height="60" as="geometry" />
        </mxCell>
        <mxCell id="s_kqkikUZ43eWk3pyIL1-5" value="Проверка данных оплаты" style="rounded=1;whiteSpace=wrap;html=1;labelBackgroundColor=none;fillColor=#dae8fc;strokeColor=#6c8ebf;" vertex="1" parent="1">
          <mxGeometry x="-382.5" y="1830" width="200" height="60" as="geometry" />
        </mxCell>
        <mxCell id="s_kqkikUZ43eWk3pyIL1-6" value="Авторизация платежа" style="rounded=1;whiteSpace=wrap;html=1;labelBackgroundColor=none;fillColor=#dae8fc;strokeColor=#6c8ebf;" vertex="1" parent="1">
          <mxGeometry x="-382.5" y="1930" width="200" height="60" as="geometry" />
        </mxCell>
        <mxCell id="s_kqkikUZ43eWk3pyIL1-7" value="Подтверждение платежа" style="rounded=1;whiteSpace=wrap;html=1;labelBackgroundColor=none;fillColor=#dae8fc;strokeColor=#6c8ebf;" vertex="1" parent="1">
          <mxGeometry x="-272.5" y="2035" width="200" height="60" as="geometry" />
        </mxCell>
        <mxCell id="s_kqkikUZ43eWk3pyIL1-8" value="Обработка ошибки" style="rounded=1;whiteSpace=wrap;html=1;labelBackgroundColor=none;fillColor=#dae8fc;strokeColor=#6c8ebf;" vertex="1" parent="1">
          <mxGeometry x="-482.5" y="2035" width="200" height="60" as="geometry" />
        </mxCell>
        <mxCell id="s_kqkikUZ43eWk3pyIL1-9" value="Конец" style="ellipse;whiteSpace=wrap;html=1;labelBackgroundColor=none;fillColor=#dae8fc;strokeColor=#6c8ebf;" vertex="1" parent="1">
          <mxGeometry x="-322.5" y="2190" width="80" height="40" as="geometry" />
        </mxCell>
        <mxCell id="s_kqkikUZ43eWk3pyIL1-10" style="labelBackgroundColor=none;fontColor=default;fillColor=#dae8fc;strokeColor=#6c8ebf;" edge="1" parent="1" source="s_kqkikUZ43eWk3pyIL1-3" target="s_kqkikUZ43eWk3pyIL1-4">
          <mxGeometry relative="1" as="geometry" />
        </mxCell>
        <mxCell id="s_kqkikUZ43eWk3pyIL1-11" style="labelBackgroundColor=none;fontColor=default;fillColor=#dae8fc;strokeColor=#6c8ebf;" edge="1" parent="1" source="s_kqkikUZ43eWk3pyIL1-4" target="s_kqkikUZ43eWk3pyIL1-5">
          <mxGeometry relative="1" as="geometry" />
        </mxCell>
        <mxCell id="s_kqkikUZ43eWk3pyIL1-12" style="labelBackgroundColor=none;fontColor=default;fillColor=#dae8fc;strokeColor=#6c8ebf;" edge="1" parent="1" source="s_kqkikUZ43eWk3pyIL1-5" target="s_kqkikUZ43eWk3pyIL1-6">
          <mxGeometry relative="1" as="geometry" />
        </mxCell>
        <mxCell id="s_kqkikUZ43eWk3pyIL1-13" style="labelBackgroundColor=none;fontColor=default;fillColor=#dae8fc;strokeColor=#6c8ebf;" edge="1" parent="1" source="s_kqkikUZ43eWk3pyIL1-6" target="s_kqkikUZ43eWk3pyIL1-7">
          <mxGeometry relative="1" as="geometry" />
        </mxCell>
        <mxCell id="s_kqkikUZ43eWk3pyIL1-14" style="labelBackgroundColor=none;fontColor=default;fillColor=#dae8fc;strokeColor=#6c8ebf;" edge="1" parent="1" source="s_kqkikUZ43eWk3pyIL1-7" target="s_kqkikUZ43eWk3pyIL1-9">
          <mxGeometry relative="1" as="geometry" />
        </mxCell>
        <mxCell id="s_kqkikUZ43eWk3pyIL1-15" style="labelBackgroundColor=none;fontColor=default;fillColor=#dae8fc;strokeColor=#6c8ebf;" edge="1" parent="1" source="s_kqkikUZ43eWk3pyIL1-6" target="s_kqkikUZ43eWk3pyIL1-8">
          <mxGeometry x="0.5" relative="1" as="geometry">
            <mxPoint x="-182.5" y="2030" as="sourcePoint" />
            <mxPoint x="-182.5" y="2130" as="targetPoint" />
          </mxGeometry>
        </mxCell>
        <mxCell id="s_kqkikUZ43eWk3pyIL1-16" style="labelBackgroundColor=none;fontColor=default;fillColor=#dae8fc;strokeColor=#6c8ebf;" edge="1" parent="1" source="s_kqkikUZ43eWk3pyIL1-8" target="s_kqkikUZ43eWk3pyIL1-9">
          <mxGeometry relative="1" as="geometry" />
        </mxCell>
        <mxCell id="IkH52XjeU4D61f5guWXZ-1" value="&lt;p dir=&quot;auto&quot;&gt;способ оплаты&lt;/p&gt;" style="rounded=1;whiteSpace=wrap;html=1;shadow=1;labelBackgroundColor=none;fillColor=#dae8fc;strokeColor=#6c8ebf;" vertex="1" parent="1">
          <mxGeometry x="-802.5" y="1885" width="240" height="150" as="geometry" />
        </mxCell>
        <mxCell id="IkH52XjeU4D61f5guWXZ-4" value="&lt;div&gt;регулярность покупки (учитывать срок доставки, чтобы инициировать заказ в нужны)&lt;/div&gt;" style="rounded=1;whiteSpace=wrap;html=1;labelBackgroundColor=none;fillColor=#dae8fc;strokeColor=#6c8ebf;" vertex="1" parent="1">
          <mxGeometry x="-1575" y="1895" width="240" height="150" as="geometry" />
        </mxCell>
        <mxCell id="Y4iCVLQayys15Y4igSXO-2" value="что делать если цена выросла на X %:" style="rounded=1;whiteSpace=wrap;html=1;labelBackgroundColor=none;fillColor=#dae8fc;strokeColor=#6c8ebf;" vertex="1" parent="1">
          <mxGeometry x="-1592.5" y="2815" width="240" height="150" as="geometry" />
        </mxCell>
        <mxCell id="Y4iCVLQayys15Y4igSXO-3" value="Начало" style="ellipse;whiteSpace=wrap;html=1;labelBackgroundColor=none;fillColor=#dae8fc;strokeColor=#6c8ebf;" vertex="1" parent="1">
          <mxGeometry x="-1192.5" y="2580" width="80" height="40" as="geometry" />
        </mxCell>
        <mxCell id="Y4iCVLQayys15Y4igSXO-4" value="Проверка изменения цены" style="rounded=1;whiteSpace=wrap;html=1;labelBackgroundColor=none;fillColor=#dae8fc;strokeColor=#6c8ebf;" vertex="1" parent="1">
          <mxGeometry x="-1192.5" y="2660" width="200" height="60" as="geometry" />
        </mxCell>
        <mxCell id="Y4iCVLQayys15Y4igSXO-5" value="Анализ изменений" style="rhombus;whiteSpace=wrap;html=1;labelBackgroundColor=none;fillColor=#dae8fc;strokeColor=#6c8ebf;" vertex="1" parent="1">
          <mxGeometry x="-1192.5" y="2760" width="100" height="60" as="geometry" />
        </mxCell>
        <mxCell id="Y4iCVLQayys15Y4igSXO-6" value="Уведомить пользователя" style="rounded=1;whiteSpace=wrap;html=1;labelBackgroundColor=none;fillColor=#dae8fc;strokeColor=#6c8ebf;" vertex="1" parent="1">
          <mxGeometry x="-1192.5" y="2860" width="200" height="60" as="geometry" />
        </mxCell>
        <mxCell id="Y4iCVLQayys15Y4igSXO-7" value="Пересчитать бюджет" style="rounded=1;whiteSpace=wrap;html=1;labelBackgroundColor=none;fillColor=#dae8fc;strokeColor=#6c8ebf;" vertex="1" parent="1">
          <mxGeometry x="-1192.5" y="2960" width="200" height="60" as="geometry" />
        </mxCell>
        <mxCell id="Y4iCVLQayys15Y4igSXO-8" value="Обновить данные" style="rounded=1;whiteSpace=wrap;html=1;labelBackgroundColor=none;fillColor=#dae8fc;strokeColor=#6c8ebf;" vertex="1" parent="1">
          <mxGeometry x="-1192.5" y="3060" width="200" height="60" as="geometry" />
        </mxCell>
        <mxCell id="Y4iCVLQayys15Y4igSXO-9" value="Конец" style="ellipse;whiteSpace=wrap;html=1;labelBackgroundColor=none;fillColor=#dae8fc;strokeColor=#6c8ebf;" vertex="1" parent="1">
          <mxGeometry x="-1192.5" y="3160" width="80" height="40" as="geometry" />
        </mxCell>
        <mxCell id="Y4iCVLQayys15Y4igSXO-10" style="labelBackgroundColor=none;fontColor=default;fillColor=#dae8fc;strokeColor=#6c8ebf;" edge="1" parent="1" source="Y4iCVLQayys15Y4igSXO-3" target="Y4iCVLQayys15Y4igSXO-4">
          <mxGeometry relative="1" as="geometry" />
        </mxCell>
        <mxCell id="Y4iCVLQayys15Y4igSXO-11" style="labelBackgroundColor=none;fontColor=default;fillColor=#dae8fc;strokeColor=#6c8ebf;" edge="1" parent="1" source="Y4iCVLQayys15Y4igSXO-4" target="Y4iCVLQayys15Y4igSXO-5">
          <mxGeometry relative="1" as="geometry" />
        </mxCell>
        <mxCell id="Y4iCVLQayys15Y4igSXO-12" style="labelBackgroundColor=none;fontColor=default;fillColor=#dae8fc;strokeColor=#6c8ebf;" edge="1" parent="1" source="Y4iCVLQayys15Y4igSXO-5" target="Y4iCVLQayys15Y4igSXO-6">
          <mxGeometry x="0.5" relative="1" as="geometry">
            <mxPoint x="-1092.5" y="2760" as="sourcePoint" />
            <mxPoint x="-1092.5" y="2860" as="targetPoint" />
          </mxGeometry>
        </mxCell>
        <mxCell id="Y4iCVLQayys15Y4igSXO-13" style="labelBackgroundColor=none;fontColor=default;fillColor=#dae8fc;strokeColor=#6c8ebf;" edge="1" parent="1" source="Y4iCVLQayys15Y4igSXO-6" target="Y4iCVLQayys15Y4igSXO-7">
          <mxGeometry relative="1" as="geometry" />
        </mxCell>
        <mxCell id="Y4iCVLQayys15Y4igSXO-14" style="labelBackgroundColor=none;fontColor=default;fillColor=#dae8fc;strokeColor=#6c8ebf;" edge="1" parent="1" source="Y4iCVLQayys15Y4igSXO-7" target="Y4iCVLQayys15Y4igSXO-8">
          <mxGeometry relative="1" as="geometry" />
        </mxCell>
        <mxCell id="Y4iCVLQayys15Y4igSXO-15" style="labelBackgroundColor=none;fontColor=default;fillColor=#dae8fc;strokeColor=#6c8ebf;" edge="1" parent="1" source="Y4iCVLQayys15Y4igSXO-8" target="Y4iCVLQayys15Y4igSXO-9">
          <mxGeometry relative="1" as="geometry" />
        </mxCell>
        <mxCell id="Y4iCVLQayys15Y4igSXO-16" value="Отменить подписку, предложить замену,&amp;nbsp; заменить на аналогичный товар" style="rounded=1;whiteSpace=wrap;html=1;labelBackgroundColor=none;fillColor=#dae8fc;strokeColor=#6c8ebf;" vertex="1" parent="1">
          <mxGeometry x="-807.5" y="2815" width="240" height="150" as="geometry" />
        </mxCell>
        <mxCell id="USVdXKp07qc_m7QiGVeA-1" value="Начало" style="ellipse;whiteSpace=wrap;html=1;labelBackgroundColor=none;fillColor=#dae8fc;strokeColor=#6c8ebf;" vertex="1" parent="1">
          <mxGeometry x="-387.5" y="2580" width="80" height="40" as="geometry" />
        </mxCell>
        <mxCell id="USVdXKp07qc_m7QiGVeA-2" value="Запрос на отмену" style="rounded=1;whiteSpace=wrap;html=1;labelBackgroundColor=none;fillColor=#dae8fc;strokeColor=#6c8ebf;" vertex="1" parent="1">
          <mxGeometry x="-387.5" y="2660" width="200" height="60" as="geometry" />
        </mxCell>
        <mxCell id="USVdXKp07qc_m7QiGVeA-3" value="Предложить замену" style="rhombus;whiteSpace=wrap;html=1;labelBackgroundColor=none;fillColor=#dae8fc;strokeColor=#6c8ebf;" vertex="1" parent="1">
          <mxGeometry x="-337.5" y="2760" width="100" height="60" as="geometry" />
        </mxCell>
        <mxCell id="njwwv3ujBc_mwqh1UUBT-39" style="edgeStyle=orthogonalEdgeStyle;rounded=0;orthogonalLoop=1;jettySize=auto;html=1;exitX=0.5;exitY=1;exitDx=0;exitDy=0;entryX=0.5;entryY=0;entryDx=0;entryDy=0;" edge="1" parent="1" source="USVdXKp07qc_m7QiGVeA-5" target="USVdXKp07qc_m7QiGVeA-6">
          <mxGeometry relative="1" as="geometry">
            <mxPoint x="-167.5" y="2920" as="sourcePoint" />
          </mxGeometry>
        </mxCell>
        <mxCell id="njwwv3ujBc_mwqh1UUBT-40" style="edgeStyle=orthogonalEdgeStyle;rounded=0;orthogonalLoop=1;jettySize=auto;html=1;exitX=0.5;exitY=1;exitDx=0;exitDy=0;" edge="1" parent="1" source="USVdXKp07qc_m7QiGVeA-5" target="USVdXKp07qc_m7QiGVeA-6">
          <mxGeometry relative="1" as="geometry" />
        </mxCell>
        <mxCell id="USVdXKp07qc_m7QiGVeA-6" value="Подтверждение" style="rounded=1;whiteSpace=wrap;html=1;labelBackgroundColor=none;fillColor=#dae8fc;strokeColor=#6c8ebf;" vertex="1" parent="1">
          <mxGeometry x="-387.5" y="3060" width="200" height="60" as="geometry" />
        </mxCell>
        <mxCell id="USVdXKp07qc_m7QiGVeA-7" value="Конец" style="ellipse;whiteSpace=wrap;html=1;labelBackgroundColor=none;fillColor=#dae8fc;strokeColor=#6c8ebf;" vertex="1" parent="1">
          <mxGeometry x="-387.5" y="3160" width="80" height="40" as="geometry" />
        </mxCell>
        <mxCell id="USVdXKp07qc_m7QiGVeA-8" style="labelBackgroundColor=none;fontColor=default;fillColor=#dae8fc;strokeColor=#6c8ebf;" edge="1" parent="1" source="USVdXKp07qc_m7QiGVeA-1" target="USVdXKp07qc_m7QiGVeA-2">
          <mxGeometry relative="1" as="geometry" />
        </mxCell>
        <mxCell id="USVdXKp07qc_m7QiGVeA-9" style="labelBackgroundColor=none;fontColor=default;fillColor=#dae8fc;strokeColor=#6c8ebf;" edge="1" parent="1" source="USVdXKp07qc_m7QiGVeA-2" target="USVdXKp07qc_m7QiGVeA-3">
          <mxGeometry relative="1" as="geometry" />
        </mxCell>
        <mxCell id="USVdXKp07qc_m7QiGVeA-13" style="labelBackgroundColor=none;fontColor=default;fillColor=#dae8fc;strokeColor=#6c8ebf;" edge="1" parent="1" source="USVdXKp07qc_m7QiGVeA-6" target="USVdXKp07qc_m7QiGVeA-7">
          <mxGeometry relative="1" as="geometry" />
        </mxCell>
        <mxCell id="ANli8YFfiraO9D3C-aY6-5" value="Начало" style="ellipse;whiteSpace=wrap;html=1;labelBackgroundColor=none;fillColor=#dae8fc;strokeColor=#6c8ebf;" vertex="1" parent="1">
          <mxGeometry x="-1212.5" y="3480" width="80" height="40" as="geometry" />
        </mxCell>
        <mxCell id="njwwv3ujBc_mwqh1UUBT-1" style="edgeStyle=orthogonalEdgeStyle;rounded=0;orthogonalLoop=1;jettySize=auto;html=1;" edge="1" parent="1" source="ANli8YFfiraO9D3C-aY6-6" target="ANli8YFfiraO9D3C-aY6-8">
          <mxGeometry relative="1" as="geometry" />
        </mxCell>
        <mxCell id="njwwv3ujBc_mwqh1UUBT-2" style="edgeStyle=orthogonalEdgeStyle;rounded=0;orthogonalLoop=1;jettySize=auto;html=1;exitX=0.5;exitY=1;exitDx=0;exitDy=0;" edge="1" parent="1" source="ANli8YFfiraO9D3C-aY6-6" target="ANli8YFfiraO9D3C-aY6-7">
          <mxGeometry relative="1" as="geometry" />
        </mxCell>
        <mxCell id="ANli8YFfiraO9D3C-aY6-6" value="Уведомить покупателя" style="rounded=1;whiteSpace=wrap;html=1;labelBackgroundColor=none;fillColor=#dae8fc;strokeColor=#6c8ebf;" vertex="1" parent="1">
          <mxGeometry x="-1212.5" y="3560" width="200" height="60" as="geometry" />
        </mxCell>
        <mxCell id="njwwv3ujBc_mwqh1UUBT-4" style="edgeStyle=orthogonalEdgeStyle;rounded=0;orthogonalLoop=1;jettySize=auto;html=1;entryX=0.5;entryY=0;entryDx=0;entryDy=0;" edge="1" parent="1" source="ANli8YFfiraO9D3C-aY6-7" target="ANli8YFfiraO9D3C-aY6-9">
          <mxGeometry relative="1" as="geometry" />
        </mxCell>
        <mxCell id="ANli8YFfiraO9D3C-aY6-7" value="Предложить альтернативу" style="rounded=1;whiteSpace=wrap;html=1;labelBackgroundColor=none;fillColor=#dae8fc;strokeColor=#6c8ebf;" vertex="1" parent="1">
          <mxGeometry x="-1102.5" y="3660" width="200" height="60" as="geometry" />
        </mxCell>
        <mxCell id="njwwv3ujBc_mwqh1UUBT-7" style="edgeStyle=orthogonalEdgeStyle;rounded=0;orthogonalLoop=1;jettySize=auto;html=1;exitX=0.5;exitY=1;exitDx=0;exitDy=0;entryX=0.5;entryY=0;entryDx=0;entryDy=0;" edge="1" parent="1" source="ANli8YFfiraO9D3C-aY6-8" target="ANli8YFfiraO9D3C-aY6-10">
          <mxGeometry relative="1" as="geometry" />
        </mxCell>
        <mxCell id="ANli8YFfiraO9D3C-aY6-8" value="Уведомить о поступлении" style="rounded=1;whiteSpace=wrap;html=1;labelBackgroundColor=none;fillColor=#dae8fc;strokeColor=#6c8ebf;" vertex="1" parent="1">
          <mxGeometry x="-1312.5" y="3660" width="200" height="60" as="geometry" />
        </mxCell>
        <mxCell id="njwwv3ujBc_mwqh1UUBT-10" style="edgeStyle=orthogonalEdgeStyle;rounded=0;orthogonalLoop=1;jettySize=auto;html=1;exitX=0.5;exitY=1;exitDx=0;exitDy=0;" edge="1" parent="1" source="ANli8YFfiraO9D3C-aY6-9" target="ANli8YFfiraO9D3C-aY6-11">
          <mxGeometry relative="1" as="geometry" />
        </mxCell>
        <mxCell id="ANli8YFfiraO9D3C-aY6-9" value="Предложить из категории" style="rounded=1;whiteSpace=wrap;html=1;labelBackgroundColor=none;fillColor=#dae8fc;strokeColor=#6c8ebf;" vertex="1" parent="1">
          <mxGeometry x="-1102.5" y="3880" width="200" height="60" as="geometry" />
        </mxCell>
        <mxCell id="njwwv3ujBc_mwqh1UUBT-11" style="edgeStyle=orthogonalEdgeStyle;rounded=0;orthogonalLoop=1;jettySize=auto;html=1;exitX=0.5;exitY=1;exitDx=0;exitDy=0;entryX=0.5;entryY=0;entryDx=0;entryDy=0;" edge="1" parent="1" source="ANli8YFfiraO9D3C-aY6-10" target="ANli8YFfiraO9D3C-aY6-11">
          <mxGeometry relative="1" as="geometry" />
        </mxCell>
        <mxCell id="ANli8YFfiraO9D3C-aY6-10" value="Проверить запасы" style="rounded=1;whiteSpace=wrap;html=1;labelBackgroundColor=none;fillColor=#dae8fc;strokeColor=#6c8ebf;" vertex="1" parent="1">
          <mxGeometry x="-1312.5" y="3880" width="200" height="60" as="geometry" />
        </mxCell>
        <mxCell id="ANli8YFfiraO9D3C-aY6-11" value="Конец" style="ellipse;whiteSpace=wrap;html=1;labelBackgroundColor=none;fillColor=#dae8fc;strokeColor=#6c8ebf;" vertex="1" parent="1">
          <mxGeometry x="-1152.5" y="4040" width="80" height="40" as="geometry" />
        </mxCell>
        <mxCell id="ANli8YFfiraO9D3C-aY6-12" style="labelBackgroundColor=none;fontColor=default;fillColor=#dae8fc;strokeColor=#6c8ebf;" edge="1" parent="1" source="ANli8YFfiraO9D3C-aY6-5" target="ANli8YFfiraO9D3C-aY6-6">
          <mxGeometry relative="1" as="geometry" />
        </mxCell>
        <mxCell id="ANli8YFfiraO9D3C-aY6-18" value="&lt;div class=&quot;chat_chat-message-item__dKqMl&quot;&gt;&lt;div dir=&quot;auto&quot; style=&quot;font-size: 14px; font-family: inherit;&quot; class=&quot;markdown-body&quot;&gt;&lt;p dir=&quot;auto&quot;&gt;что делать если товар закончился у продавца:&lt;/p&gt;&lt;/div&gt;&lt;/div&gt;" style="rounded=1;whiteSpace=wrap;html=1;labelBackgroundColor=none;fillColor=#dae8fc;strokeColor=#6c8ebf;" vertex="1" parent="1">
          <mxGeometry x="-1592.5" y="3715" width="240" height="150" as="geometry" />
        </mxCell>
        <mxCell id="njwwv3ujBc_mwqh1UUBT-41" style="edgeStyle=orthogonalEdgeStyle;rounded=0;orthogonalLoop=1;jettySize=auto;html=1;exitX=0.5;exitY=1;exitDx=0;exitDy=0;entryX=0.47;entryY=0;entryDx=0;entryDy=0;entryPerimeter=0;" edge="1" parent="1" source="USVdXKp07qc_m7QiGVeA-3" target="USVdXKp07qc_m7QiGVeA-5">
          <mxGeometry relative="1" as="geometry" />
        </mxCell>
        <mxCell id="USVdXKp07qc_m7QiGVeA-5" value="Заменить на аналогичный" style="rounded=1;whiteSpace=wrap;html=1;labelBackgroundColor=none;fillColor=#dae8fc;strokeColor=#6c8ebf;" vertex="1" parent="1">
          <mxGeometry x="-507.5" y="2860" width="200" height="60" as="geometry" />
        </mxCell>
        <mxCell id="W_xLI_HAdjCTCznWEjt5-9" style="edgeStyle=orthogonalEdgeStyle;rounded=0;orthogonalLoop=1;jettySize=auto;html=1;entryX=0.5;entryY=0;entryDx=0;entryDy=0;" edge="1" parent="1" source="W_xLI_HAdjCTCznWEjt5-2" target="USVdXKp07qc_m7QiGVeA-6">
          <mxGeometry relative="1" as="geometry" />
        </mxCell>
        <mxCell id="W_xLI_HAdjCTCznWEjt5-2" value="Отменить подписку" style="rounded=1;whiteSpace=wrap;html=1;labelBackgroundColor=none;fillColor=#dae8fc;strokeColor=#6c8ebf;" vertex="1" parent="1">
          <mxGeometry x="-267.5" y="2860" width="200" height="60" as="geometry" />
        </mxCell>
        <mxCell id="W_xLI_HAdjCTCznWEjt5-8" style="edgeStyle=orthogonalEdgeStyle;rounded=0;orthogonalLoop=1;jettySize=auto;html=1;entryX=0.55;entryY=-0.067;entryDx=0;entryDy=0;entryPerimeter=0;" edge="1" parent="1" source="USVdXKp07qc_m7QiGVeA-3" target="W_xLI_HAdjCTCznWEjt5-2">
          <mxGeometry relative="1" as="geometry" />
        </mxCell>
        <mxCell id="1EB-j8wvBFtguLoZolKg-29" value="&lt;font style=&quot;font-size: 36px;&quot;&gt;Основные функциональные вопросы&lt;/font&gt;" style="rounded=0;whiteSpace=wrap;html=1;" vertex="1" parent="1">
          <mxGeometry x="-1132.5" y="1390" width="570" height="120" as="geometry" />
        </mxCell>
        <mxCell id="1EB-j8wvBFtguLoZolKg-30" value="&lt;font style=&quot;font-size: 36px;&quot;&gt;Оценка сроков реализации&lt;/font&gt;&lt;font color=&quot;#999999&quot;&gt;&quot;)&lt;/font&gt;" style="rounded=0;whiteSpace=wrap;html=1;" vertex="1" parent="1">
          <mxGeometry x="-690" y="50" width="570" height="120" as="geometry" />
        </mxCell>
        <mxCell id="1EB-j8wvBFtguLoZolKg-31" value="&lt;font style=&quot;font-size: 36px;&quot;&gt;Участники &lt;/font&gt;" style="rounded=0;whiteSpace=wrap;html=1;" vertex="1" parent="1">
          <mxGeometry x="-1560" y="50" width="570" height="120" as="geometry" />
        </mxCell>
        <mxCell id="QboNj_B8XSedjkeW8z2l-220" value="Определение требований: 35 часов" style="rounded=1;whiteSpace=wrap;html=1;fillColor=#D9EAD3;" vertex="1" parent="1">
          <mxGeometry x="-525" y="245" width="200" height="60" as="geometry" />
        </mxCell>
        <mxCell id="QboNj_B8XSedjkeW8z2l-221" value="Создание прототипов: 45 часов" style="rounded=1;whiteSpace=wrap;html=1;fillColor=#FFF2CC;" vertex="1" parent="1">
          <mxGeometry x="-525" y="345" width="200" height="60" as="geometry" />
        </mxCell>
        <mxCell id="QboNj_B8XSedjkeW8z2l-222" value="Проектирование БД: 30 часов" style="rounded=1;whiteSpace=wrap;html=1;fillColor=#FCE5CD;" vertex="1" parent="1">
          <mxGeometry x="-525" y="445" width="200" height="60" as="geometry" />
        </mxCell>
        <mxCell id="QboNj_B8XSedjkeW8z2l-223" value="Интерфейс пользователя: 120 часов" style="rounded=1;whiteSpace=wrap;html=1;fillColor=#C9DAF8;" vertex="1" parent="1">
          <mxGeometry x="-525" y="545" width="200" height="60" as="geometry" />
        </mxCell>
        <mxCell id="QboNj_B8XSedjkeW8z2l-224" value="Серверная логика: 120 часов" style="rounded=1;whiteSpace=wrap;html=1;fillColor=#D0E0E3;" vertex="1" parent="1">
          <mxGeometry x="-525" y="645" width="200" height="60" as="geometry" />
        </mxCell>
        <mxCell id="QboNj_B8XSedjkeW8z2l-225" value="Настройка триггеров: 45 часов" style="rounded=1;whiteSpace=wrap;html=1;fillColor=#EAD1DC;" vertex="1" parent="1">
          <mxGeometry x="-525" y="745" width="200" height="60" as="geometry" />
        </mxCell>
        <mxCell id="QboNj_B8XSedjkeW8z2l-226" value="Функциональное тестирование: 45 часов" style="rounded=1;whiteSpace=wrap;html=1;fillColor=#F4CCCC;" vertex="1" parent="1">
          <mxGeometry x="-525" y="845" width="200" height="60" as="geometry" />
        </mxCell>
        <mxCell id="QboNj_B8XSedjkeW8z2l-227" value="Тестирование устройств: 45 часов" style="rounded=1;whiteSpace=wrap;html=1;fillColor=#EAD1DC;" vertex="1" parent="1">
          <mxGeometry x="-525" y="945" width="200" height="60" as="geometry" />
        </mxCell>
        <mxCell id="QboNj_B8XSedjkeW8z2l-228" value="Внедрение в систему: 35 часов" style="rounded=1;whiteSpace=wrap;html=1;fillColor=#D9EAD3;" vertex="1" parent="1">
          <mxGeometry x="-525" y="1045" width="200" height="60" as="geometry" />
        </mxCell>
        <mxCell id="QboNj_B8XSedjkeW8z2l-229" value="Сбор отзывов: 35 часов" style="rounded=1;whiteSpace=wrap;html=1;fillColor=#FFF2CC;" vertex="1" parent="1">
          <mxGeometry x="-525" y="1145" width="200" height="60" as="geometry" />
        </mxCell>
        <mxCell id="QboNj_B8XSedjkeW8z2l-230" value="Итого: от 555 часов" style="rounded=1;whiteSpace=wrap;html=1;fillColor=#FCE5CD;" vertex="1" parent="1">
          <mxGeometry x="-525" y="1245" width="200" height="60" as="geometry" />
        </mxCell>
        <mxCell id="QboNj_B8XSedjkeW8z2l-231" edge="1" parent="1" source="QboNj_B8XSedjkeW8z2l-220" target="QboNj_B8XSedjkeW8z2l-221">
          <mxGeometry relative="1" as="geometry" />
        </mxCell>
        <mxCell id="QboNj_B8XSedjkeW8z2l-232" edge="1" parent="1" source="QboNj_B8XSedjkeW8z2l-221" target="QboNj_B8XSedjkeW8z2l-222">
          <mxGeometry relative="1" as="geometry" />
        </mxCell>
        <mxCell id="QboNj_B8XSedjkeW8z2l-233" edge="1" parent="1" source="QboNj_B8XSedjkeW8z2l-222" target="QboNj_B8XSedjkeW8z2l-223">
          <mxGeometry relative="1" as="geometry" />
        </mxCell>
        <mxCell id="QboNj_B8XSedjkeW8z2l-234" edge="1" parent="1" source="QboNj_B8XSedjkeW8z2l-223" target="QboNj_B8XSedjkeW8z2l-224">
          <mxGeometry relative="1" as="geometry" />
        </mxCell>
        <mxCell id="QboNj_B8XSedjkeW8z2l-235" edge="1" parent="1" source="QboNj_B8XSedjkeW8z2l-224" target="QboNj_B8XSedjkeW8z2l-225">
          <mxGeometry relative="1" as="geometry" />
        </mxCell>
        <mxCell id="QboNj_B8XSedjkeW8z2l-236" edge="1" parent="1" source="QboNj_B8XSedjkeW8z2l-225" target="QboNj_B8XSedjkeW8z2l-226">
          <mxGeometry relative="1" as="geometry" />
        </mxCell>
        <mxCell id="QboNj_B8XSedjkeW8z2l-237" edge="1" parent="1" source="QboNj_B8XSedjkeW8z2l-226" target="QboNj_B8XSedjkeW8z2l-227">
          <mxGeometry relative="1" as="geometry" />
        </mxCell>
        <mxCell id="QboNj_B8XSedjkeW8z2l-238" edge="1" parent="1" source="QboNj_B8XSedjkeW8z2l-227" target="QboNj_B8XSedjkeW8z2l-228">
          <mxGeometry relative="1" as="geometry" />
        </mxCell>
        <mxCell id="QboNj_B8XSedjkeW8z2l-239" edge="1" parent="1" source="QboNj_B8XSedjkeW8z2l-228" target="QboNj_B8XSedjkeW8z2l-229">
          <mxGeometry relative="1" as="geometry" />
        </mxCell>
        <mxCell id="QboNj_B8XSedjkeW8z2l-240" edge="1" parent="1" source="QboNj_B8XSedjkeW8z2l-229" target="QboNj_B8XSedjkeW8z2l-230">
          <mxGeometry relative="1" as="geometry" />
        </mxCell>
        <mxCell id="Fi6EdEWpvzlj1u-ahGEU-64" value="Проектный менеджер" style="rounded=1;whiteSpace=wrap;html=1;fillColor=#D9EAD3;" vertex="1" parent="1">
          <mxGeometry x="-1375" y="280" width="200" height="60" as="geometry" />
        </mxCell>
        <mxCell id="Fi6EdEWpvzlj1u-ahGEU-65" value="Бизнес-аналитик" style="rounded=1;whiteSpace=wrap;html=1;fillColor=#FFF2CC;" vertex="1" parent="1">
          <mxGeometry x="-1575" y="380" width="200" height="60" as="geometry" />
        </mxCell>
        <mxCell id="Fi6EdEWpvzlj1u-ahGEU-66" value="UX/UI Дизайнер" style="rounded=1;whiteSpace=wrap;html=1;fillColor=#FCE5CD;" vertex="1" parent="1">
          <mxGeometry x="-1375" y="380" width="200" height="60" as="geometry" />
        </mxCell>
        <mxCell id="Fi6EdEWpvzlj1u-ahGEU-67" value="Backend-разработчик" style="rounded=1;whiteSpace=wrap;html=1;fillColor=#D0E0E3;" vertex="1" parent="1">
          <mxGeometry x="-1175" y="380" width="200" height="60" as="geometry" />
        </mxCell>
        <mxCell id="Fi6EdEWpvzlj1u-ahGEU-68" value="Frontend-разработчик" style="rounded=1;whiteSpace=wrap;html=1;fillColor=#C9DAF8;" vertex="1" parent="1">
          <mxGeometry x="-1575" y="480" width="200" height="60" as="geometry" />
        </mxCell>
        <mxCell id="Fi6EdEWpvzlj1u-ahGEU-69" value="Специалист по базе данных" style="rounded=1;whiteSpace=wrap;html=1;fillColor=#EAD1DC;" vertex="1" parent="1">
          <mxGeometry x="-1375" y="480" width="200" height="60" as="geometry" />
        </mxCell>
        <mxCell id="Fi6EdEWpvzlj1u-ahGEU-70" value="Тестировщик (QA-инженер)" style="rounded=1;whiteSpace=wrap;html=1;fillColor=#F4CCCC;" vertex="1" parent="1">
          <mxGeometry x="-1175" y="480" width="200" height="60" as="geometry" />
        </mxCell>
        <mxCell id="ZnKMm52XQ7wBuO8O5OGw-1" value="" style="edgeStyle=orthogonalEdgeStyle;rounded=0;orthogonalLoop=1;jettySize=auto;html=1;" edge="1" parent="1" source="Fi6EdEWpvzlj1u-ahGEU-71" target="Fi6EdEWpvzlj1u-ahGEU-72">
          <mxGeometry relative="1" as="geometry" />
        </mxCell>
        <mxCell id="Fi6EdEWpvzlj1u-ahGEU-71" value="DevOps-инженер" style="rounded=1;whiteSpace=wrap;html=1;fillColor=#D9EAD3;" vertex="1" parent="1">
          <mxGeometry x="-1275" y="590" width="200" height="60" as="geometry" />
        </mxCell>
        <mxCell id="Fi6EdEWpvzlj1u-ahGEU-72" value="Специалист по сбору отзывов" style="rounded=1;whiteSpace=wrap;html=1;fillColor=#FFF2CC;" vertex="1" parent="1">
          <mxGeometry x="-1520" y="590" width="200" height="60" as="geometry" />
        </mxCell>
        <mxCell id="Fi6EdEWpvzlj1u-ahGEU-73" style="edgeStyle=elbowEdgeStyle;elbow=horizontal;rounded=0;" edge="1" parent="1" source="Fi6EdEWpvzlj1u-ahGEU-64" target="Fi6EdEWpvzlj1u-ahGEU-65">
          <mxGeometry relative="1" as="geometry" />
        </mxCell>
        <mxCell id="Fi6EdEWpvzlj1u-ahGEU-74" style="edgeStyle=elbowEdgeStyle;elbow=horizontal;rounded=0;" edge="1" parent="1" source="Fi6EdEWpvzlj1u-ahGEU-64" target="Fi6EdEWpvzlj1u-ahGEU-66">
          <mxGeometry relative="1" as="geometry" />
        </mxCell>
        <mxCell id="Fi6EdEWpvzlj1u-ahGEU-75" style="edgeStyle=elbowEdgeStyle;elbow=horizontal;rounded=0;" edge="1" parent="1" source="Fi6EdEWpvzlj1u-ahGEU-64" target="Fi6EdEWpvzlj1u-ahGEU-67">
          <mxGeometry relative="1" as="geometry" />
        </mxCell>
        <mxCell id="Fi6EdEWpvzlj1u-ahGEU-76" style="edgeStyle=elbowEdgeStyle;elbow=horizontal;rounded=0;" edge="1" parent="1" source="Fi6EdEWpvzlj1u-ahGEU-65" target="Fi6EdEWpvzlj1u-ahGEU-68">
          <mxGeometry relative="1" as="geometry" />
        </mxCell>
        <mxCell id="Fi6EdEWpvzlj1u-ahGEU-77" style="edgeStyle=elbowEdgeStyle;elbow=horizontal;rounded=0;" edge="1" parent="1" source="Fi6EdEWpvzlj1u-ahGEU-66" target="Fi6EdEWpvzlj1u-ahGEU-69">
          <mxGeometry relative="1" as="geometry" />
        </mxCell>
        <mxCell id="Fi6EdEWpvzlj1u-ahGEU-78" style="edgeStyle=elbowEdgeStyle;elbow=horizontal;rounded=0;" edge="1" parent="1" source="Fi6EdEWpvzlj1u-ahGEU-67" target="Fi6EdEWpvzlj1u-ahGEU-70">
          <mxGeometry relative="1" as="geometry" />
        </mxCell>
        <mxCell id="Fi6EdEWpvzlj1u-ahGEU-79" style="edgeStyle=elbowEdgeStyle;elbow=horizontal;rounded=0;" edge="1" parent="1" source="Fi6EdEWpvzlj1u-ahGEU-67" target="Fi6EdEWpvzlj1u-ahGEU-71">
          <mxGeometry relative="1" as="geometry" />
        </mxCell>
        <mxCell id="Fi6EdEWpvzlj1u-ahGEU-80" style="edgeStyle=elbowEdgeStyle;elbow=horizontal;rounded=0;" edge="1" parent="1" source="Fi6EdEWpvzlj1u-ahGEU-69" target="Fi6EdEWpvzlj1u-ahGEU-72">
          <mxGeometry relative="1" as="geometry" />
        </mxCell>
        <mxCell id="Fi6EdEWpvzlj1u-ahGEU-91" value="Проектный менеджер: 20%" style="rounded=1;whiteSpace=wrap;html=1;fillColor=#D9EAD3;" vertex="1" parent="1">
          <mxGeometry x="-1375" y="780" width="200" height="60" as="geometry" />
        </mxCell>
        <mxCell id="Fi6EdEWpvzlj1u-ahGEU-96" value="Специалист по базе данных: 10%" style="rounded=1;whiteSpace=wrap;html=1;fillColor=#EAD1DC;" vertex="1" parent="1">
          <mxGeometry x="-1170" y="840" width="200" height="60" as="geometry" />
        </mxCell>
        <mxCell id="Fi6EdEWpvzlj1u-ahGEU-97" value="Тестировщик (QA-инженер): 10%" style="rounded=1;whiteSpace=wrap;html=1;fillColor=#F4CCCC;" vertex="1" parent="1">
          <mxGeometry x="-1170" y="920" width="200" height="60" as="geometry" />
        </mxCell>
        <mxCell id="Fi6EdEWpvzlj1u-ahGEU-98" value="DevOps-инженер: 5%" style="rounded=1;whiteSpace=wrap;html=1;fillColor=#D9EAD3;" vertex="1" parent="1">
          <mxGeometry x="-1170" y="1000" width="200" height="60" as="geometry" />
        </mxCell>
        <mxCell id="Fi6EdEWpvzlj1u-ahGEU-99" value="Специалист по сбору отзывов: 5%" style="rounded=1;whiteSpace=wrap;html=1;fillColor=#FFF2CC;" vertex="1" parent="1">
          <mxGeometry x="-1170" y="1080" width="200" height="60" as="geometry" />
        </mxCell>
        <mxCell id="Fi6EdEWpvzlj1u-ahGEU-100" value="Бизнес-аналитик: 15%" style="rounded=1;whiteSpace=wrap;html=1;fillColor=#FFF2CC;" vertex="1" parent="1">
          <mxGeometry x="-1575" y="845" width="200" height="60" as="geometry" />
        </mxCell>
        <mxCell id="Fi6EdEWpvzlj1u-ahGEU-101" value="UX/UI Дизайнер: 15%" style="rounded=1;whiteSpace=wrap;html=1;fillColor=#FCE5CD;" vertex="1" parent="1">
          <mxGeometry x="-1575" y="925" width="200" height="60" as="geometry" />
        </mxCell>
        <mxCell id="Fi6EdEWpvzlj1u-ahGEU-102" value="Backend-разработчик: 20%" style="rounded=1;whiteSpace=wrap;html=1;fillColor=#D0E0E3;" vertex="1" parent="1">
          <mxGeometry x="-1575" y="1005" width="200" height="60" as="geometry" />
        </mxCell>
        <mxCell id="Fi6EdEWpvzlj1u-ahGEU-103" value="Frontend-разработчик: 15%" style="rounded=1;whiteSpace=wrap;html=1;fillColor=#C9DAF8;" vertex="1" parent="1">
          <mxGeometry x="-1575" y="1085" width="200" height="60" as="geometry" />
        </mxCell>
        <mxCell id="fUIRXFuPba0b6KkYP555-1" value="&lt;font style=&quot;font-size: 36px;&quot;&gt;Основные функциональные вопросы&lt;/font&gt;" style="rounded=0;whiteSpace=wrap;html=1;" vertex="1" parent="1">
          <mxGeometry x="-1135" y="8470" width="570" height="120" as="geometry" />
        </mxCell>
        <mxCell id="fUIRXFuPba0b6KkYP555-2" value="&lt;font style=&quot;font-size: 36px;&quot;&gt;Оценка сроков реализации:&lt;/font&gt;&lt;div style=&quot;font-size: 28px;&quot;&gt;&lt;font color=&quot;#999999&quot; style=&quot;font-size: 28px;&quot;&gt;раздела выдачи рекламного блока с товарами&lt;/font&gt;&lt;/div&gt;&lt;div style=&quot;font-size: 28px;&quot;&gt;&lt;font color=&quot;#999999&quot; style=&quot;font-size: 28px;&quot;&gt;в поисковой выдаче&lt;/font&gt;&lt;/div&gt;" style="rounded=0;whiteSpace=wrap;html=1;" vertex="1" parent="1">
          <mxGeometry x="-842.5" y="6830" width="770" height="120" as="geometry" />
        </mxCell>
        <mxCell id="fUIRXFuPba0b6KkYP555-3" value="&lt;font style=&quot;font-size: 36px;&quot;&gt;Участники &lt;/font&gt;&lt;div&gt;&lt;font color=&quot;#999999&quot; style=&quot;font-size: 28px;&quot;&gt;разработки функционала на стороне Яндекс выдачи&lt;/font&gt;&lt;/div&gt;" style="rounded=0;whiteSpace=wrap;html=1;" vertex="1" parent="1">
          <mxGeometry x="-1592.5" y="6830" width="570" height="120" as="geometry" />
        </mxCell>
        <mxCell id="fUIRXFuPba0b6KkYP555-4" value="Начало" style="ellipse;whiteSpace=wrap;html=1;labelBackgroundColor=none;fillColor=#dae8fc;strokeColor=#6c8ebf;" vertex="1" parent="1">
          <mxGeometry x="-1205" y="8720" width="80" height="40" as="geometry" />
        </mxCell>
        <mxCell id="fUIRXFuPba0b6KkYP555-5" value="Получаем поисковый запрос&lt;div&gt;(например: купить кофе)&lt;/div&gt;" style="rounded=1;whiteSpace=wrap;html=1;labelBackgroundColor=none;fillColor=#dae8fc;strokeColor=#6c8ebf;" vertex="1" parent="1">
          <mxGeometry x="-1205" y="8800" width="200" height="60" as="geometry" />
        </mxCell>
        <mxCell id="fUIRXFuPba0b6KkYP555-6" value="Формируем запрос в бд&amp;nbsp;&lt;div&gt;на получение товара из категории &quot;кофе&quot; с параметром subscription=true&lt;/div&gt;" style="rounded=1;whiteSpace=wrap;html=1;labelBackgroundColor=none;fillColor=#dae8fc;strokeColor=#6c8ebf;" vertex="1" parent="1">
          <mxGeometry x="-1205" y="8900" width="200" height="60" as="geometry" />
        </mxCell>
        <mxCell id="fUIRXFuPba0b6KkYP555-7" value="Формируем компонент списка товаров" style="rounded=1;whiteSpace=wrap;html=1;labelBackgroundColor=none;fillColor=#dae8fc;strokeColor=#6c8ebf;" vertex="1" parent="1">
          <mxGeometry x="-1205" y="9000" width="200" height="60" as="geometry" />
        </mxCell>
        <mxCell id="fUIRXFuPba0b6KkYP555-8" value="Отображем блок" style="rounded=1;whiteSpace=wrap;html=1;labelBackgroundColor=none;fillColor=#dae8fc;strokeColor=#6c8ebf;" vertex="1" parent="1">
          <mxGeometry x="-1205" y="9100" width="200" height="60" as="geometry" />
        </mxCell>
        <mxCell id="fUIRXFuPba0b6KkYP555-9" value="Конец" style="ellipse;whiteSpace=wrap;html=1;labelBackgroundColor=none;fillColor=#dae8fc;strokeColor=#6c8ebf;" vertex="1" parent="1">
          <mxGeometry x="-1205" y="9200" width="80" height="40" as="geometry" />
        </mxCell>
        <mxCell id="fUIRXFuPba0b6KkYP555-10" style="labelBackgroundColor=none;fontColor=default;fillColor=#dae8fc;strokeColor=#6c8ebf;" edge="1" parent="1" source="fUIRXFuPba0b6KkYP555-4" target="fUIRXFuPba0b6KkYP555-5">
          <mxGeometry relative="1" as="geometry" />
        </mxCell>
        <mxCell id="fUIRXFuPba0b6KkYP555-11" style="labelBackgroundColor=none;fontColor=default;fillColor=#dae8fc;strokeColor=#6c8ebf;" edge="1" parent="1" source="fUIRXFuPba0b6KkYP555-5" target="fUIRXFuPba0b6KkYP555-6">
          <mxGeometry relative="1" as="geometry" />
        </mxCell>
        <mxCell id="fUIRXFuPba0b6KkYP555-12" style="labelBackgroundColor=none;fontColor=default;fillColor=#dae8fc;strokeColor=#6c8ebf;" edge="1" parent="1" source="fUIRXFuPba0b6KkYP555-6" target="fUIRXFuPba0b6KkYP555-7">
          <mxGeometry relative="1" as="geometry" />
        </mxCell>
        <mxCell id="fUIRXFuPba0b6KkYP555-13" style="labelBackgroundColor=none;fontColor=default;fillColor=#dae8fc;strokeColor=#6c8ebf;" edge="1" parent="1" source="fUIRXFuPba0b6KkYP555-7" target="fUIRXFuPba0b6KkYP555-8">
          <mxGeometry relative="1" as="geometry" />
        </mxCell>
        <mxCell id="fUIRXFuPba0b6KkYP555-14" style="labelBackgroundColor=none;fontColor=default;fillColor=#dae8fc;strokeColor=#6c8ebf;" edge="1" parent="1" target="fUIRXFuPba0b6KkYP555-9">
          <mxGeometry relative="1" as="geometry">
            <mxPoint x="-1125" y="9160" as="sourcePoint" />
          </mxGeometry>
        </mxCell>
        <mxCell id="fUIRXFuPba0b6KkYP555-15" value="&lt;span style=&quot;font-family: Arial; font-size: 15px; text-align: left; white-space-collapse: preserve; background-color: rgb(218, 233, 248);&quot;&gt;разработка отдельного рекламного блока в выдаче&lt;/span&gt;" style="rounded=1;whiteSpace=wrap;html=1;labelBackgroundColor=none;fillColor=#dae8fc;strokeColor=#6c8ebf;" vertex="1" parent="1">
          <mxGeometry x="-1625" y="8900" width="240" height="150" as="geometry" />
        </mxCell>
        <mxCell id="fUIRXFuPba0b6KkYP555-16" value="Определение требований: 14 часов" style="rounded=1;whiteSpace=wrap;html=1;fillColor=#D9EAD3;" vertex="1" parent="1">
          <mxGeometry x="-557.5" y="7025" width="200" height="60" as="geometry" />
        </mxCell>
        <mxCell id="fUIRXFuPba0b6KkYP555-17" value="Серверная логика: 14 часов" style="rounded=1;whiteSpace=wrap;html=1;fillColor=#D0E0E3;" vertex="1" parent="1">
          <mxGeometry x="-557.5" y="7120" width="200" height="60" as="geometry" />
        </mxCell>
        <mxCell id="fUIRXFuPba0b6KkYP555-18" value="Функциональное тестирование: 14 часов" style="rounded=1;whiteSpace=wrap;html=1;fillColor=#F4CCCC;" vertex="1" parent="1">
          <mxGeometry x="-557.5" y="7390" width="200" height="60" as="geometry" />
        </mxCell>
        <mxCell id="fUIRXFuPba0b6KkYP555-19" value="Сбор отзывов: 12 часов" style="rounded=1;whiteSpace=wrap;html=1;fillColor=#FFF2CC;" vertex="1" parent="1">
          <mxGeometry x="-557.5" y="7570" width="200" height="60" as="geometry" />
        </mxCell>
        <mxCell id="fUIRXFuPba0b6KkYP555-20" value="Итого: от 92 часа" style="rounded=1;whiteSpace=wrap;html=1;fillColor=#FCE5CD;" vertex="1" parent="1">
          <mxGeometry x="-557.5" y="7660" width="200" height="60" as="geometry" />
        </mxCell>
        <mxCell id="fUIRXFuPba0b6KkYP555-21" style="exitX=0.5;exitY=1;exitDx=0;exitDy=0;entryX=0.5;entryY=0;entryDx=0;entryDy=0;" edge="1" parent="1" source="fUIRXFuPba0b6KkYP555-16" target="fUIRXFuPba0b6KkYP555-17">
          <mxGeometry relative="1" as="geometry">
            <mxPoint x="-457.5" y="7090" as="sourcePoint" />
          </mxGeometry>
        </mxCell>
        <mxCell id="fUIRXFuPba0b6KkYP555-22" style="exitX=0.5;exitY=1;exitDx=0;exitDy=0;" edge="1" parent="1" source="fUIRXFuPba0b6KkYP555-38" target="fUIRXFuPba0b6KkYP555-18">
          <mxGeometry relative="1" as="geometry">
            <mxPoint x="-457.5" y="7340" as="sourcePoint" />
          </mxGeometry>
        </mxCell>
        <mxCell id="fUIRXFuPba0b6KkYP555-23" style="exitX=0.5;exitY=1;exitDx=0;exitDy=0;" edge="1" parent="1" source="fUIRXFuPba0b6KkYP555-18">
          <mxGeometry relative="1" as="geometry">
            <mxPoint x="-457.5" y="7390" as="sourcePoint" />
            <mxPoint x="-457.5" y="7480" as="targetPoint" />
          </mxGeometry>
        </mxCell>
        <mxCell id="fUIRXFuPba0b6KkYP555-24" edge="1" parent="1" source="fUIRXFuPba0b6KkYP555-19" target="fUIRXFuPba0b6KkYP555-20">
          <mxGeometry relative="1" as="geometry" />
        </mxCell>
        <mxCell id="fUIRXFuPba0b6KkYP555-25" value="Проектный менеджер" style="rounded=1;whiteSpace=wrap;html=1;fillColor=#D9EAD3;" vertex="1" parent="1">
          <mxGeometry x="-1407.5" y="7100" width="200" height="60" as="geometry" />
        </mxCell>
        <mxCell id="fUIRXFuPba0b6KkYP555-26" value="Backend-разработчик" style="rounded=1;whiteSpace=wrap;html=1;fillColor=#D0E0E3;" vertex="1" parent="1">
          <mxGeometry x="-1405" y="7235" width="200" height="60" as="geometry" />
        </mxCell>
        <mxCell id="fUIRXFuPba0b6KkYP555-27" value="Специалист по базе данных" style="rounded=1;whiteSpace=wrap;html=1;fillColor=#EAD1DC;" vertex="1" parent="1">
          <mxGeometry x="-1162.5" y="7235" width="200" height="60" as="geometry" />
        </mxCell>
        <mxCell id="fUIRXFuPba0b6KkYP555-28" value="DevOps-инженер" style="rounded=1;whiteSpace=wrap;html=1;fillColor=#f5f5f5;strokeColor=#666666;fontColor=#333333;" vertex="1" parent="1">
          <mxGeometry x="-1405" y="7440" width="200" height="60" as="geometry" />
        </mxCell>
        <mxCell id="fUIRXFuPba0b6KkYP555-29" value="Специалист по сбору отзывов" style="rounded=1;whiteSpace=wrap;html=1;fillColor=#FFF2CC;" vertex="1" parent="1">
          <mxGeometry x="-1407.5" y="7570" width="200" height="60" as="geometry" />
        </mxCell>
        <mxCell id="fUIRXFuPba0b6KkYP555-30" value="Проектный менеджер: 15%" style="rounded=1;whiteSpace=wrap;html=1;fillColor=#D9EAD3;" vertex="1" parent="1">
          <mxGeometry x="-1405" y="7900" width="200" height="60" as="geometry" />
        </mxCell>
        <mxCell id="fUIRXFuPba0b6KkYP555-31" value="Специалист по базе данных: 8%" style="rounded=1;whiteSpace=wrap;html=1;fillColor=#EAD1DC;" vertex="1" parent="1">
          <mxGeometry x="-1172.5" y="7990" width="200" height="60" as="geometry" />
        </mxCell>
        <mxCell id="fUIRXFuPba0b6KkYP555-32" value="Тестировщик (QA-инженер): 15%" style="rounded=1;whiteSpace=wrap;html=1;fillColor=#F4CCCC;" vertex="1" parent="1">
          <mxGeometry x="-1405" y="8080" width="200" height="60" as="geometry" />
        </mxCell>
        <mxCell id="fUIRXFuPba0b6KkYP555-33" value="DevOps-инженер: 22&lt;span style=&quot;background-color: initial;&quot;&gt;%&lt;/span&gt;" style="rounded=1;whiteSpace=wrap;html=1;fillColor=#f5f5f5;fontColor=#333333;strokeColor=#666666;" vertex="1" parent="1">
          <mxGeometry x="-1405" y="8170" width="200" height="60" as="geometry" />
        </mxCell>
        <mxCell id="fUIRXFuPba0b6KkYP555-34" value="Специалист по сбору отзывов: 13&lt;span style=&quot;background-color: initial;&quot;&gt;%&lt;/span&gt;" style="rounded=1;whiteSpace=wrap;html=1;fillColor=#FFF2CC;" vertex="1" parent="1">
          <mxGeometry x="-1405" y="8260" width="200" height="60" as="geometry" />
        </mxCell>
        <mxCell id="fUIRXFuPba0b6KkYP555-35" value="Backend-разработчик: 15%" style="rounded=1;whiteSpace=wrap;html=1;fillColor=#D0E0E3;" vertex="1" parent="1">
          <mxGeometry x="-1405" y="7990" width="200" height="60" as="geometry" />
        </mxCell>
        <mxCell id="fUIRXFuPba0b6KkYP555-36" value="Тестировщик (QA-инженер)" style="rounded=1;whiteSpace=wrap;html=1;fillColor=#F4CCCC;" vertex="1" parent="1">
          <mxGeometry x="-1405" y="7350" width="200" height="60" as="geometry" />
        </mxCell>
        <mxCell id="fUIRXFuPba0b6KkYP555-37" value="" style="exitX=0.5;exitY=1;exitDx=0;exitDy=0;" edge="1" parent="1" source="fUIRXFuPba0b6KkYP555-17" target="fUIRXFuPba0b6KkYP555-50">
          <mxGeometry relative="1" as="geometry">
            <mxPoint x="-457.5" y="7180" as="sourcePoint" />
            <mxPoint x="-457.5" y="7340" as="targetPoint" />
          </mxGeometry>
        </mxCell>
        <mxCell id="fUIRXFuPba0b6KkYP555-38" value="Проектирование БД: 8 часов" style="rounded=1;whiteSpace=wrap;html=1;fillColor=#EAD1DC;strokeColor=#36393d;" vertex="1" parent="1">
          <mxGeometry x="-557.5" y="7300" width="200" height="60" as="geometry" />
        </mxCell>
        <mxCell id="fUIRXFuPba0b6KkYP555-39" value="Внедрение в систему: 20 часов" style="rounded=1;whiteSpace=wrap;html=1;fillColor=#f5f5f5;fontColor=#333333;strokeColor=#666666;" vertex="1" parent="1">
          <mxGeometry x="-557.5" y="7480" width="200" height="60" as="geometry" />
        </mxCell>
        <mxCell id="fUIRXFuPba0b6KkYP555-40" style="exitX=0.5;exitY=1;exitDx=0;exitDy=0;entryX=0.5;entryY=0;entryDx=0;entryDy=0;" edge="1" parent="1" source="fUIRXFuPba0b6KkYP555-39" target="fUIRXFuPba0b6KkYP555-19">
          <mxGeometry relative="1" as="geometry">
            <mxPoint x="-447.5" y="7390" as="sourcePoint" />
            <mxPoint x="-447.5" y="7420" as="targetPoint" />
          </mxGeometry>
        </mxCell>
        <mxCell id="fUIRXFuPba0b6KkYP555-41" style="edgeStyle=elbowEdgeStyle;elbow=horizontal;rounded=0;entryX=0.479;entryY=0.007;entryDx=0;entryDy=0;entryPerimeter=0;" edge="1" parent="1" target="fUIRXFuPba0b6KkYP555-26">
          <mxGeometry relative="1" as="geometry">
            <mxPoint x="-1308.5" y="7160" as="sourcePoint" />
            <mxPoint x="-1308.5" y="7218" as="targetPoint" />
            <Array as="points">
              <mxPoint x="-1308.5" y="7135" />
              <mxPoint x="-1168.5" y="7200" />
            </Array>
          </mxGeometry>
        </mxCell>
        <mxCell id="fUIRXFuPba0b6KkYP555-42" value="Frontend-разработчик" style="rounded=1;whiteSpace=wrap;html=1;fillColor=#C9DAF8;" vertex="1" parent="1">
          <mxGeometry x="-1632.5" y="7235" width="200" height="60" as="geometry" />
        </mxCell>
        <mxCell id="fUIRXFuPba0b6KkYP555-43" style="edgeStyle=elbowEdgeStyle;elbow=horizontal;rounded=0;exitX=1;exitY=0.5;exitDx=0;exitDy=0;" edge="1" parent="1" source="fUIRXFuPba0b6KkYP555-25">
          <mxGeometry relative="1" as="geometry">
            <mxPoint x="-1161.5" y="7140" as="sourcePoint" />
            <mxPoint x="-1102.5" y="7235" as="targetPoint" />
            <Array as="points">
              <mxPoint x="-1102.5" y="7180" />
              <mxPoint x="-1021.5" y="7180" />
            </Array>
          </mxGeometry>
        </mxCell>
        <mxCell id="fUIRXFuPba0b6KkYP555-44" value="" style="endArrow=classic;startArrow=classic;html=1;rounded=0;entryX=0;entryY=0.5;entryDx=0;entryDy=0;exitX=1;exitY=0.5;exitDx=0;exitDy=0;" edge="1" parent="1" source="fUIRXFuPba0b6KkYP555-26" target="fUIRXFuPba0b6KkYP555-27">
          <mxGeometry width="50" height="50" relative="1" as="geometry">
            <mxPoint x="-1212.5" y="7330" as="sourcePoint" />
            <mxPoint x="-1162.5" y="7280" as="targetPoint" />
          </mxGeometry>
        </mxCell>
        <mxCell id="fUIRXFuPba0b6KkYP555-45" style="edgeStyle=elbowEdgeStyle;elbow=horizontal;rounded=0;exitX=0;exitY=0.5;exitDx=0;exitDy=0;" edge="1" parent="1" source="fUIRXFuPba0b6KkYP555-25">
          <mxGeometry relative="1" as="geometry">
            <mxPoint x="-1412.5" y="7130" as="sourcePoint" />
            <mxPoint x="-1502.5" y="7235" as="targetPoint" />
            <Array as="points">
              <mxPoint x="-1502.5" y="7180" />
              <mxPoint x="-1421.5" y="7180" />
            </Array>
          </mxGeometry>
        </mxCell>
        <mxCell id="fUIRXFuPba0b6KkYP555-46" value="" style="endArrow=classic;html=1;rounded=0;exitX=0;exitY=0.75;exitDx=0;exitDy=0;entryX=0;entryY=0.5;entryDx=0;entryDy=0;" edge="1" parent="1" source="fUIRXFuPba0b6KkYP555-25" target="fUIRXFuPba0b6KkYP555-36">
          <mxGeometry width="50" height="50" relative="1" as="geometry">
            <mxPoint x="-1407.5" y="7159.43" as="sourcePoint" />
            <mxPoint x="-1423.4" y="7380.57" as="targetPoint" />
            <Array as="points">
              <mxPoint x="-1422.5" y="7145" />
              <mxPoint x="-1423.5" y="7290" />
              <mxPoint x="-1423.5" y="7380" />
            </Array>
          </mxGeometry>
        </mxCell>
        <mxCell id="fUIRXFuPba0b6KkYP555-47" value="" style="endArrow=classic;html=1;rounded=0;entryX=1;entryY=0.5;entryDx=0;entryDy=0;exitX=1;exitY=0.75;exitDx=0;exitDy=0;" edge="1" parent="1" source="fUIRXFuPba0b6KkYP555-25" target="fUIRXFuPba0b6KkYP555-28">
          <mxGeometry width="50" height="50" relative="1" as="geometry">
            <mxPoint x="-1192.5" y="7151.142857142857" as="sourcePoint" />
            <mxPoint x="-1132.5" y="7470" as="targetPoint" />
            <Array as="points">
              <mxPoint x="-1192.5" y="7145" />
              <mxPoint x="-1192.5" y="7470" />
            </Array>
          </mxGeometry>
        </mxCell>
        <mxCell id="fUIRXFuPba0b6KkYP555-48" value="" style="endArrow=classic;html=1;rounded=0;entryX=1;entryY=0.5;entryDx=0;entryDy=0;exitX=1;exitY=0.25;exitDx=0;exitDy=0;" edge="1" parent="1" source="fUIRXFuPba0b6KkYP555-25" target="fUIRXFuPba0b6KkYP555-29">
          <mxGeometry width="50" height="50" relative="1" as="geometry">
            <mxPoint x="-1192.4999999999998" y="7115" as="sourcePoint" />
            <mxPoint x="-1192.4999999999998" y="7600" as="targetPoint" />
            <Array as="points">
              <mxPoint x="-1177.5" y="7115" />
              <mxPoint x="-1177.5" y="7600" />
            </Array>
          </mxGeometry>
        </mxCell>
        <mxCell id="fUIRXFuPba0b6KkYP555-49" value="Frontend-разработчик: 12%" style="rounded=1;whiteSpace=wrap;html=1;fillColor=#C9DAF8;" vertex="1" parent="1">
          <mxGeometry x="-1632.5" y="7990" width="200" height="60" as="geometry" />
        </mxCell>
        <mxCell id="fUIRXFuPba0b6KkYP555-50" value="Frontend-разработчик: 10 часов" style="rounded=1;whiteSpace=wrap;html=1;fillColor=#C9DAF8;" vertex="1" parent="1">
          <mxGeometry x="-557.5" y="7210" width="200" height="60" as="geometry" />
        </mxCell>
        <mxCell id="fUIRXFuPba0b6KkYP555-51" value="" style="exitX=0.5;exitY=1;exitDx=0;exitDy=0;entryX=0.5;entryY=0;entryDx=0;entryDy=0;" edge="1" parent="1" source="fUIRXFuPba0b6KkYP555-50" target="fUIRXFuPba0b6KkYP555-38">
          <mxGeometry relative="1" as="geometry">
            <mxPoint x="-452.5" y="7280" as="sourcePoint" />
            <mxPoint x="-457.5" y="7300" as="targetPoint" />
          </mxGeometry>
        </mxCell>
        <mxCell id="fUIRXFuPba0b6KkYP555-52" value="Начало" style="ellipse;whiteSpace=wrap;html=1;labelBackgroundColor=none;fillColor=#dae8fc;strokeColor=#6c8ebf;" vertex="1" parent="1">
          <mxGeometry x="-380" y="8705" width="80" height="40" as="geometry" />
        </mxCell>
        <mxCell id="fUIRXFuPba0b6KkYP555-53" value="В разделе создания РК и загрузки фида/ов товаров формируем новый компонент-чекбокс &quot;Рекламировать товары по подписке&quot;&amp;nbsp;" style="rounded=1;whiteSpace=wrap;html=1;labelBackgroundColor=none;fillColor=#dae8fc;strokeColor=#6c8ebf;" vertex="1" parent="1">
          <mxGeometry x="-380" y="8785" width="200" height="90" as="geometry" />
        </mxCell>
        <mxCell id="fUIRXFuPba0b6KkYP555-54" value="Формируем компонент списка товаров" style="rounded=1;whiteSpace=wrap;html=1;labelBackgroundColor=none;fillColor=#dae8fc;strokeColor=#6c8ebf;" vertex="1" parent="1">
          <mxGeometry x="-380" y="8915" width="200" height="60" as="geometry" />
        </mxCell>
        <mxCell id="fUIRXFuPba0b6KkYP555-55" value="Отображем блок" style="rounded=1;whiteSpace=wrap;html=1;labelBackgroundColor=none;fillColor=#dae8fc;strokeColor=#6c8ebf;" vertex="1" parent="1">
          <mxGeometry x="-380" y="9015" width="200" height="60" as="geometry" />
        </mxCell>
        <mxCell id="fUIRXFuPba0b6KkYP555-56" value="Конец" style="ellipse;whiteSpace=wrap;html=1;labelBackgroundColor=none;fillColor=#dae8fc;strokeColor=#6c8ebf;" vertex="1" parent="1">
          <mxGeometry x="-380" y="9115" width="80" height="40" as="geometry" />
        </mxCell>
        <mxCell id="fUIRXFuPba0b6KkYP555-57" style="labelBackgroundColor=none;fontColor=default;fillColor=#dae8fc;strokeColor=#6c8ebf;" edge="1" parent="1" source="fUIRXFuPba0b6KkYP555-52" target="fUIRXFuPba0b6KkYP555-53">
          <mxGeometry relative="1" as="geometry" />
        </mxCell>
        <mxCell id="fUIRXFuPba0b6KkYP555-58" style="labelBackgroundColor=none;fontColor=default;fillColor=#dae8fc;strokeColor=#6c8ebf;entryX=0.5;entryY=0;entryDx=0;entryDy=0;" edge="1" parent="1" source="fUIRXFuPba0b6KkYP555-53" target="fUIRXFuPba0b6KkYP555-54">
          <mxGeometry relative="1" as="geometry">
            <mxPoint x="-280" y="8915" as="targetPoint" />
          </mxGeometry>
        </mxCell>
        <mxCell id="fUIRXFuPba0b6KkYP555-59" style="labelBackgroundColor=none;fontColor=default;fillColor=#dae8fc;strokeColor=#6c8ebf;" edge="1" parent="1" source="fUIRXFuPba0b6KkYP555-54" target="fUIRXFuPba0b6KkYP555-55">
          <mxGeometry relative="1" as="geometry" />
        </mxCell>
        <mxCell id="fUIRXFuPba0b6KkYP555-60" style="labelBackgroundColor=none;fontColor=default;fillColor=#dae8fc;strokeColor=#6c8ebf;" edge="1" parent="1" target="fUIRXFuPba0b6KkYP555-56">
          <mxGeometry relative="1" as="geometry">
            <mxPoint x="-300" y="9075" as="sourcePoint" />
          </mxGeometry>
        </mxCell>
        <mxCell id="fUIRXFuPba0b6KkYP555-61" value="&lt;span style=&quot;font-family: Arial; font-size: 15px; text-align: left; white-space-collapse: preserve; background-color: rgb(218, 233, 248);&quot;&gt;добавление нового места размещения в РК по фиду (в рекламном кабинете при настройке рекламной кампании)&lt;/span&gt;" style="rounded=1;whiteSpace=wrap;html=1;labelBackgroundColor=none;fillColor=#dae8fc;strokeColor=#6c8ebf;" vertex="1" parent="1">
          <mxGeometry x="-800" y="8885" width="240" height="150" as="geometry" />
        </mxCell>
        <mxCell id="fUIRXFuPba0b6KkYP555-62" value="Начало" style="ellipse;whiteSpace=wrap;html=1;labelBackgroundColor=none;fillColor=#dae8fc;strokeColor=#6c8ebf;" vertex="1" parent="1">
          <mxGeometry x="-1205" y="9330" width="80" height="40" as="geometry" />
        </mxCell>
        <mxCell id="fUIRXFuPba0b6KkYP555-63" value="Получаем товары&amp;nbsp; загруженные из фида маркетплейса" style="rounded=1;whiteSpace=wrap;html=1;labelBackgroundColor=none;fillColor=#dae8fc;strokeColor=#6c8ebf;" vertex="1" parent="1">
          <mxGeometry x="-1205" y="9410" width="200" height="60" as="geometry" />
        </mxCell>
        <mxCell id="fUIRXFuPba0b6KkYP555-64" value="Фильтруем список товаров по параметру &quot;subscription=true&quot;" style="rounded=1;whiteSpace=wrap;html=1;labelBackgroundColor=none;fillColor=#dae8fc;strokeColor=#6c8ebf;" vertex="1" parent="1">
          <mxGeometry x="-1205" y="9510" width="200" height="60" as="geometry" />
        </mxCell>
        <mxCell id="fUIRXFuPba0b6KkYP555-65" value="Формируем компонент списка товаров" style="rounded=1;whiteSpace=wrap;html=1;labelBackgroundColor=none;fillColor=#dae8fc;strokeColor=#6c8ebf;" vertex="1" parent="1">
          <mxGeometry x="-1205" y="9610" width="200" height="60" as="geometry" />
        </mxCell>
        <mxCell id="fUIRXFuPba0b6KkYP555-66" value="Отображем блок" style="rounded=1;whiteSpace=wrap;html=1;labelBackgroundColor=none;fillColor=#dae8fc;strokeColor=#6c8ebf;" vertex="1" parent="1">
          <mxGeometry x="-1205" y="9710" width="200" height="60" as="geometry" />
        </mxCell>
        <mxCell id="fUIRXFuPba0b6KkYP555-67" value="Конец" style="ellipse;whiteSpace=wrap;html=1;labelBackgroundColor=none;fillColor=#dae8fc;strokeColor=#6c8ebf;" vertex="1" parent="1">
          <mxGeometry x="-1205" y="9810" width="80" height="40" as="geometry" />
        </mxCell>
        <mxCell id="fUIRXFuPba0b6KkYP555-68" style="labelBackgroundColor=none;fontColor=default;fillColor=#dae8fc;strokeColor=#6c8ebf;" edge="1" parent="1" source="fUIRXFuPba0b6KkYP555-62" target="fUIRXFuPba0b6KkYP555-63">
          <mxGeometry relative="1" as="geometry" />
        </mxCell>
        <mxCell id="fUIRXFuPba0b6KkYP555-69" style="labelBackgroundColor=none;fontColor=default;fillColor=#dae8fc;strokeColor=#6c8ebf;" edge="1" parent="1" source="fUIRXFuPba0b6KkYP555-63" target="fUIRXFuPba0b6KkYP555-64">
          <mxGeometry relative="1" as="geometry" />
        </mxCell>
        <mxCell id="fUIRXFuPba0b6KkYP555-70" style="labelBackgroundColor=none;fontColor=default;fillColor=#dae8fc;strokeColor=#6c8ebf;" edge="1" parent="1" source="fUIRXFuPba0b6KkYP555-64" target="fUIRXFuPba0b6KkYP555-65">
          <mxGeometry relative="1" as="geometry" />
        </mxCell>
        <mxCell id="fUIRXFuPba0b6KkYP555-71" style="labelBackgroundColor=none;fontColor=default;fillColor=#dae8fc;strokeColor=#6c8ebf;" edge="1" parent="1" source="fUIRXFuPba0b6KkYP555-65" target="fUIRXFuPba0b6KkYP555-66">
          <mxGeometry relative="1" as="geometry" />
        </mxCell>
        <mxCell id="fUIRXFuPba0b6KkYP555-72" style="labelBackgroundColor=none;fontColor=default;fillColor=#dae8fc;strokeColor=#6c8ebf;" edge="1" parent="1" target="fUIRXFuPba0b6KkYP555-67">
          <mxGeometry relative="1" as="geometry">
            <mxPoint x="-1125" y="9770" as="sourcePoint" />
          </mxGeometry>
        </mxCell>
        <mxCell id="fUIRXFuPba0b6KkYP555-73" value="&lt;span style=&quot;font-family: Arial; font-size: 15px; text-align: left; white-space-collapse: preserve; background-color: rgb(218, 233, 248);&quot;&gt;разработка интеграции с маркетами для продвижения товаров по подписке в рекламной кампании (просто товаров уже есть)&lt;/span&gt;" style="rounded=1;whiteSpace=wrap;html=1;labelBackgroundColor=none;fillColor=#dae8fc;strokeColor=#6c8ebf;" vertex="1" parent="1">
          <mxGeometry x="-1625" y="9510" width="240" height="150" as="geometry" />
        </mxCell>
        <mxCell id="KNrJtMZ0LoEhQUcMLVpG-1" value="&lt;font style=&quot;font-size: 36px;&quot;&gt;Основные функциональные вопросы&lt;/font&gt;" style="rounded=0;whiteSpace=wrap;html=1;" vertex="1" parent="1">
          <mxGeometry x="-1012.5" y="6070" width="570" height="120" as="geometry" />
        </mxCell>
        <mxCell id="KNrJtMZ0LoEhQUcMLVpG-2" value="&lt;font style=&quot;font-size: 36px;&quot;&gt;Оценка сроков реализации:&lt;/font&gt;&lt;div style=&quot;font-size: 28px;&quot;&gt;&lt;font color=&quot;#999999&quot;&gt;раздела поисковой выдачи&lt;/font&gt;&lt;/div&gt;&lt;div style=&quot;font-size: 28px;&quot;&gt;&lt;font color=&quot;#999999&quot;&gt;(Вкладка &quot;подписки&quot;, как вкладка &quot;товары&quot;)&lt;/font&gt;&lt;/div&gt;" style="rounded=0;whiteSpace=wrap;html=1;" vertex="1" parent="1">
          <mxGeometry x="-810" y="4460" width="770" height="120" as="geometry" />
        </mxCell>
        <mxCell id="KNrJtMZ0LoEhQUcMLVpG-3" value="&lt;font style=&quot;font-size: 36px;&quot;&gt;Участники &lt;/font&gt;&lt;div&gt;&lt;font color=&quot;#999999&quot; style=&quot;font-size: 28px;&quot;&gt;разработки функционала на стороне Яндекс выдачи&lt;/font&gt;&lt;/div&gt;" style="rounded=0;whiteSpace=wrap;html=1;" vertex="1" parent="1">
          <mxGeometry x="-1552.5" y="4460" width="570" height="120" as="geometry" />
        </mxCell>
        <mxCell id="KNrJtMZ0LoEhQUcMLVpG-4" value="Начало" style="ellipse;whiteSpace=wrap;html=1;labelBackgroundColor=none;fillColor=#dae8fc;strokeColor=#6c8ebf;" vertex="1" parent="1">
          <mxGeometry x="-1147.5" y="6240" width="80" height="40" as="geometry" />
        </mxCell>
        <mxCell id="KNrJtMZ0LoEhQUcMLVpG-5" value="Получаем поисковый запрос&lt;div&gt;(например: подгузники)&lt;/div&gt;" style="rounded=1;whiteSpace=wrap;html=1;labelBackgroundColor=none;fillColor=#dae8fc;strokeColor=#6c8ebf;" vertex="1" parent="1">
          <mxGeometry x="-1147.5" y="6320" width="200" height="60" as="geometry" />
        </mxCell>
        <mxCell id="KNrJtMZ0LoEhQUcMLVpG-6" value="Формируем запрос в бд&amp;nbsp;&lt;div&gt;на получение товара из категории &quot;подгузники&quot; с параметром subscription=true&lt;/div&gt;" style="rounded=1;whiteSpace=wrap;html=1;labelBackgroundColor=none;fillColor=#dae8fc;strokeColor=#6c8ebf;" vertex="1" parent="1">
          <mxGeometry x="-1147.5" y="6420" width="200" height="60" as="geometry" />
        </mxCell>
        <mxCell id="KNrJtMZ0LoEhQUcMLVpG-7" value="Формируем компонент-вкладку&lt;div&gt;&quot;подписки&quot; с компонентами товаров&lt;/div&gt;" style="rounded=1;whiteSpace=wrap;html=1;labelBackgroundColor=none;fillColor=#dae8fc;strokeColor=#6c8ebf;" vertex="1" parent="1">
          <mxGeometry x="-1147.5" y="6520" width="200" height="60" as="geometry" />
        </mxCell>
        <mxCell id="KNrJtMZ0LoEhQUcMLVpG-8" value="Отображем блок" style="rounded=1;whiteSpace=wrap;html=1;labelBackgroundColor=none;fillColor=#dae8fc;strokeColor=#6c8ebf;" vertex="1" parent="1">
          <mxGeometry x="-1147.5" y="6620" width="200" height="60" as="geometry" />
        </mxCell>
        <mxCell id="KNrJtMZ0LoEhQUcMLVpG-9" value="Конец" style="ellipse;whiteSpace=wrap;html=1;labelBackgroundColor=none;fillColor=#dae8fc;strokeColor=#6c8ebf;" vertex="1" parent="1">
          <mxGeometry x="-1147.5" y="6720" width="80" height="40" as="geometry" />
        </mxCell>
        <mxCell id="KNrJtMZ0LoEhQUcMLVpG-10" style="labelBackgroundColor=none;fontColor=default;fillColor=#dae8fc;strokeColor=#6c8ebf;" edge="1" parent="1" source="KNrJtMZ0LoEhQUcMLVpG-4" target="KNrJtMZ0LoEhQUcMLVpG-5">
          <mxGeometry relative="1" as="geometry" />
        </mxCell>
        <mxCell id="KNrJtMZ0LoEhQUcMLVpG-11" style="labelBackgroundColor=none;fontColor=default;fillColor=#dae8fc;strokeColor=#6c8ebf;" edge="1" parent="1" source="KNrJtMZ0LoEhQUcMLVpG-5" target="KNrJtMZ0LoEhQUcMLVpG-6">
          <mxGeometry relative="1" as="geometry" />
        </mxCell>
        <mxCell id="KNrJtMZ0LoEhQUcMLVpG-12" style="labelBackgroundColor=none;fontColor=default;fillColor=#dae8fc;strokeColor=#6c8ebf;" edge="1" parent="1" source="KNrJtMZ0LoEhQUcMLVpG-6" target="KNrJtMZ0LoEhQUcMLVpG-7">
          <mxGeometry relative="1" as="geometry" />
        </mxCell>
        <mxCell id="KNrJtMZ0LoEhQUcMLVpG-13" style="labelBackgroundColor=none;fontColor=default;fillColor=#dae8fc;strokeColor=#6c8ebf;" edge="1" parent="1" source="KNrJtMZ0LoEhQUcMLVpG-7" target="KNrJtMZ0LoEhQUcMLVpG-8">
          <mxGeometry relative="1" as="geometry" />
        </mxCell>
        <mxCell id="KNrJtMZ0LoEhQUcMLVpG-14" style="labelBackgroundColor=none;fontColor=default;fillColor=#dae8fc;strokeColor=#6c8ebf;" edge="1" parent="1" target="KNrJtMZ0LoEhQUcMLVpG-9">
          <mxGeometry relative="1" as="geometry">
            <mxPoint x="-1067.5" y="6680" as="sourcePoint" />
          </mxGeometry>
        </mxCell>
        <mxCell id="KNrJtMZ0LoEhQUcMLVpG-15" value="&lt;span style=&quot;font-family: Arial; font-size: 15px; text-align: left; white-space-collapse: preserve; background-color: rgb(218, 233, 248);&quot;&gt;добавление в фид нового параметра (subscription - true or false)&lt;br/&gt; товары с активным элементом тянутся туда, как тянутся товары из фидов во вкладку товары со статусом доступность - да на вкладку товары)&lt;/span&gt;" style="rounded=1;whiteSpace=wrap;html=1;labelBackgroundColor=none;fillColor=#dae8fc;strokeColor=#6c8ebf;" vertex="1" parent="1">
          <mxGeometry x="-1567.5" y="6420" width="280" height="150" as="geometry" />
        </mxCell>
        <mxCell id="KNrJtMZ0LoEhQUcMLVpG-16" value="Определение требований: 16 часов" style="rounded=1;whiteSpace=wrap;html=1;fillColor=#D9EAD3;" vertex="1" parent="1">
          <mxGeometry x="-517.5" y="4655" width="200" height="60" as="geometry" />
        </mxCell>
        <mxCell id="KNrJtMZ0LoEhQUcMLVpG-17" value="Серверная логика: 20 часов" style="rounded=1;whiteSpace=wrap;html=1;fillColor=#D0E0E3;" vertex="1" parent="1">
          <mxGeometry x="-517.5" y="4750" width="200" height="60" as="geometry" />
        </mxCell>
        <mxCell id="KNrJtMZ0LoEhQUcMLVpG-18" value="Функциональное тестирование: 8 часов" style="rounded=1;whiteSpace=wrap;html=1;fillColor=#F4CCCC;" vertex="1" parent="1">
          <mxGeometry x="-517.5" y="5020" width="200" height="60" as="geometry" />
        </mxCell>
        <mxCell id="KNrJtMZ0LoEhQUcMLVpG-19" value="Сбор отзывов: 10 часов" style="rounded=1;whiteSpace=wrap;html=1;fillColor=#FFF2CC;" vertex="1" parent="1">
          <mxGeometry x="-517.5" y="5200" width="200" height="60" as="geometry" />
        </mxCell>
        <mxCell id="KNrJtMZ0LoEhQUcMLVpG-20" value="Итого: от 112 часа" style="rounded=1;whiteSpace=wrap;html=1;fillColor=#FCE5CD;" vertex="1" parent="1">
          <mxGeometry x="-517.5" y="5290" width="200" height="60" as="geometry" />
        </mxCell>
        <mxCell id="KNrJtMZ0LoEhQUcMLVpG-21" style="exitX=0.5;exitY=1;exitDx=0;exitDy=0;entryX=0.5;entryY=0;entryDx=0;entryDy=0;" edge="1" parent="1" source="KNrJtMZ0LoEhQUcMLVpG-16" target="KNrJtMZ0LoEhQUcMLVpG-17">
          <mxGeometry relative="1" as="geometry">
            <mxPoint x="-417.5" y="4720" as="sourcePoint" />
          </mxGeometry>
        </mxCell>
        <mxCell id="KNrJtMZ0LoEhQUcMLVpG-22" style="exitX=0.5;exitY=1;exitDx=0;exitDy=0;" edge="1" parent="1" source="KNrJtMZ0LoEhQUcMLVpG-38" target="KNrJtMZ0LoEhQUcMLVpG-18">
          <mxGeometry relative="1" as="geometry">
            <mxPoint x="-417.5" y="4970" as="sourcePoint" />
          </mxGeometry>
        </mxCell>
        <mxCell id="KNrJtMZ0LoEhQUcMLVpG-23" style="exitX=0.5;exitY=1;exitDx=0;exitDy=0;" edge="1" parent="1" source="KNrJtMZ0LoEhQUcMLVpG-18">
          <mxGeometry relative="1" as="geometry">
            <mxPoint x="-417.5" y="5020" as="sourcePoint" />
            <mxPoint x="-417.5" y="5110" as="targetPoint" />
          </mxGeometry>
        </mxCell>
        <mxCell id="KNrJtMZ0LoEhQUcMLVpG-24" edge="1" parent="1" source="KNrJtMZ0LoEhQUcMLVpG-19" target="KNrJtMZ0LoEhQUcMLVpG-20">
          <mxGeometry relative="1" as="geometry" />
        </mxCell>
        <mxCell id="KNrJtMZ0LoEhQUcMLVpG-25" value="Проектный менеджер" style="rounded=1;whiteSpace=wrap;html=1;fillColor=#D9EAD3;" vertex="1" parent="1">
          <mxGeometry x="-1367.5" y="4730" width="200" height="60" as="geometry" />
        </mxCell>
        <mxCell id="KNrJtMZ0LoEhQUcMLVpG-26" value="Backend-разработчик" style="rounded=1;whiteSpace=wrap;html=1;fillColor=#D0E0E3;" vertex="1" parent="1">
          <mxGeometry x="-1365" y="4865" width="200" height="60" as="geometry" />
        </mxCell>
        <mxCell id="KNrJtMZ0LoEhQUcMLVpG-27" value="Специалист по базе данных" style="rounded=1;whiteSpace=wrap;html=1;fillColor=#EAD1DC;" vertex="1" parent="1">
          <mxGeometry x="-1122.5" y="4865" width="200" height="60" as="geometry" />
        </mxCell>
        <mxCell id="KNrJtMZ0LoEhQUcMLVpG-28" value="DevOps-инженер" style="rounded=1;whiteSpace=wrap;html=1;fillColor=#f5f5f5;strokeColor=#666666;fontColor=#333333;" vertex="1" parent="1">
          <mxGeometry x="-1365" y="5070" width="200" height="60" as="geometry" />
        </mxCell>
        <mxCell id="KNrJtMZ0LoEhQUcMLVpG-29" value="Специалист по сбору отзывов" style="rounded=1;whiteSpace=wrap;html=1;fillColor=#FFF2CC;" vertex="1" parent="1">
          <mxGeometry x="-1367.5" y="5200" width="200" height="60" as="geometry" />
        </mxCell>
        <mxCell id="KNrJtMZ0LoEhQUcMLVpG-30" value="Проектный менеджер: 14%" style="rounded=1;whiteSpace=wrap;html=1;fillColor=#D9EAD3;" vertex="1" parent="1">
          <mxGeometry x="-1365" y="5530" width="200" height="60" as="geometry" />
        </mxCell>
        <mxCell id="KNrJtMZ0LoEhQUcMLVpG-31" value="Специалист по базе данных: 18%" style="rounded=1;whiteSpace=wrap;html=1;fillColor=#EAD1DC;" vertex="1" parent="1">
          <mxGeometry x="-1132.5" y="5620" width="200" height="60" as="geometry" />
        </mxCell>
        <mxCell id="KNrJtMZ0LoEhQUcMLVpG-32" value="Тестировщик (QA-инженер): 7%" style="rounded=1;whiteSpace=wrap;html=1;fillColor=#F4CCCC;" vertex="1" parent="1">
          <mxGeometry x="-1365" y="5710" width="200" height="60" as="geometry" />
        </mxCell>
        <mxCell id="KNrJtMZ0LoEhQUcMLVpG-33" value="DevOps-инженер: 7&lt;span style=&quot;background-color: initial;&quot;&gt;%&lt;/span&gt;" style="rounded=1;whiteSpace=wrap;html=1;fillColor=#f5f5f5;fontColor=#333333;strokeColor=#666666;" vertex="1" parent="1">
          <mxGeometry x="-1365" y="5800" width="200" height="60" as="geometry" />
        </mxCell>
        <mxCell id="KNrJtMZ0LoEhQUcMLVpG-34" value="Специалист по сбору отзывов: 9&lt;span style=&quot;background-color: initial;&quot;&gt;%&lt;/span&gt;" style="rounded=1;whiteSpace=wrap;html=1;fillColor=#FFF2CC;" vertex="1" parent="1">
          <mxGeometry x="-1365" y="5890" width="200" height="60" as="geometry" />
        </mxCell>
        <mxCell id="KNrJtMZ0LoEhQUcMLVpG-35" value="Backend-разработчик: 18%" style="rounded=1;whiteSpace=wrap;html=1;fillColor=#D0E0E3;" vertex="1" parent="1">
          <mxGeometry x="-1365" y="5620" width="200" height="60" as="geometry" />
        </mxCell>
        <mxCell id="KNrJtMZ0LoEhQUcMLVpG-36" value="Тестировщик (QA-инженер)" style="rounded=1;whiteSpace=wrap;html=1;fillColor=#F4CCCC;" vertex="1" parent="1">
          <mxGeometry x="-1365" y="4980" width="200" height="60" as="geometry" />
        </mxCell>
        <mxCell id="KNrJtMZ0LoEhQUcMLVpG-37" value="" style="exitX=0.5;exitY=1;exitDx=0;exitDy=0;" edge="1" parent="1" source="KNrJtMZ0LoEhQUcMLVpG-17" target="KNrJtMZ0LoEhQUcMLVpG-50">
          <mxGeometry relative="1" as="geometry">
            <mxPoint x="-417.5" y="4810" as="sourcePoint" />
            <mxPoint x="-417.5" y="4970" as="targetPoint" />
          </mxGeometry>
        </mxCell>
        <mxCell id="KNrJtMZ0LoEhQUcMLVpG-38" value="Проектирование БД: 20 часов" style="rounded=1;whiteSpace=wrap;html=1;fillColor=#EAD1DC;strokeColor=#36393d;" vertex="1" parent="1">
          <mxGeometry x="-517.5" y="4930" width="200" height="60" as="geometry" />
        </mxCell>
        <mxCell id="KNrJtMZ0LoEhQUcMLVpG-39" value="Внедрение в систему: 8 часов" style="rounded=1;whiteSpace=wrap;html=1;fillColor=#f5f5f5;fontColor=#333333;strokeColor=#666666;" vertex="1" parent="1">
          <mxGeometry x="-517.5" y="5110" width="200" height="60" as="geometry" />
        </mxCell>
        <mxCell id="KNrJtMZ0LoEhQUcMLVpG-40" style="exitX=0.5;exitY=1;exitDx=0;exitDy=0;entryX=0.5;entryY=0;entryDx=0;entryDy=0;" edge="1" parent="1" source="KNrJtMZ0LoEhQUcMLVpG-39" target="KNrJtMZ0LoEhQUcMLVpG-19">
          <mxGeometry relative="1" as="geometry">
            <mxPoint x="-407.5" y="5020" as="sourcePoint" />
            <mxPoint x="-407.5" y="5050" as="targetPoint" />
          </mxGeometry>
        </mxCell>
        <mxCell id="KNrJtMZ0LoEhQUcMLVpG-41" style="edgeStyle=elbowEdgeStyle;elbow=horizontal;rounded=0;entryX=0.479;entryY=0.007;entryDx=0;entryDy=0;entryPerimeter=0;" edge="1" parent="1" target="KNrJtMZ0LoEhQUcMLVpG-26">
          <mxGeometry relative="1" as="geometry">
            <mxPoint x="-1268.5" y="4790" as="sourcePoint" />
            <mxPoint x="-1268.5" y="4848" as="targetPoint" />
            <Array as="points">
              <mxPoint x="-1268.5" y="4765" />
              <mxPoint x="-1128.5" y="4830" />
            </Array>
          </mxGeometry>
        </mxCell>
        <mxCell id="KNrJtMZ0LoEhQUcMLVpG-42" value="Frontend-разработчик" style="rounded=1;whiteSpace=wrap;html=1;fillColor=#C9DAF8;" vertex="1" parent="1">
          <mxGeometry x="-1592.5" y="4865" width="200" height="60" as="geometry" />
        </mxCell>
        <mxCell id="KNrJtMZ0LoEhQUcMLVpG-43" style="edgeStyle=elbowEdgeStyle;elbow=horizontal;rounded=0;exitX=1;exitY=0.5;exitDx=0;exitDy=0;" edge="1" parent="1" source="KNrJtMZ0LoEhQUcMLVpG-25">
          <mxGeometry relative="1" as="geometry">
            <mxPoint x="-1121.5" y="4770" as="sourcePoint" />
            <mxPoint x="-1062.5" y="4865" as="targetPoint" />
            <Array as="points">
              <mxPoint x="-1062.5" y="4810" />
              <mxPoint x="-981.5" y="4810" />
            </Array>
          </mxGeometry>
        </mxCell>
        <mxCell id="KNrJtMZ0LoEhQUcMLVpG-44" value="" style="endArrow=classic;startArrow=classic;html=1;rounded=0;entryX=0;entryY=0.5;entryDx=0;entryDy=0;exitX=1;exitY=0.5;exitDx=0;exitDy=0;" edge="1" parent="1" source="KNrJtMZ0LoEhQUcMLVpG-26" target="KNrJtMZ0LoEhQUcMLVpG-27">
          <mxGeometry width="50" height="50" relative="1" as="geometry">
            <mxPoint x="-1172.5" y="4960" as="sourcePoint" />
            <mxPoint x="-1122.5" y="4910" as="targetPoint" />
          </mxGeometry>
        </mxCell>
        <mxCell id="KNrJtMZ0LoEhQUcMLVpG-45" style="edgeStyle=elbowEdgeStyle;elbow=horizontal;rounded=0;exitX=0;exitY=0.5;exitDx=0;exitDy=0;" edge="1" parent="1" source="KNrJtMZ0LoEhQUcMLVpG-25">
          <mxGeometry relative="1" as="geometry">
            <mxPoint x="-1372.5" y="4760" as="sourcePoint" />
            <mxPoint x="-1462.5" y="4865" as="targetPoint" />
            <Array as="points">
              <mxPoint x="-1462.5" y="4810" />
              <mxPoint x="-1381.5" y="4810" />
            </Array>
          </mxGeometry>
        </mxCell>
        <mxCell id="KNrJtMZ0LoEhQUcMLVpG-46" value="" style="endArrow=classic;html=1;rounded=0;exitX=0;exitY=0.75;exitDx=0;exitDy=0;entryX=0;entryY=0.5;entryDx=0;entryDy=0;" edge="1" parent="1" source="KNrJtMZ0LoEhQUcMLVpG-25" target="KNrJtMZ0LoEhQUcMLVpG-36">
          <mxGeometry width="50" height="50" relative="1" as="geometry">
            <mxPoint x="-1367.5" y="4789.43" as="sourcePoint" />
            <mxPoint x="-1383.4" y="5010.57" as="targetPoint" />
            <Array as="points">
              <mxPoint x="-1382.5" y="4775" />
              <mxPoint x="-1383.5" y="4920" />
              <mxPoint x="-1383.5" y="5010" />
            </Array>
          </mxGeometry>
        </mxCell>
        <mxCell id="KNrJtMZ0LoEhQUcMLVpG-47" value="" style="endArrow=classic;html=1;rounded=0;entryX=1;entryY=0.5;entryDx=0;entryDy=0;exitX=1;exitY=0.75;exitDx=0;exitDy=0;" edge="1" parent="1" source="KNrJtMZ0LoEhQUcMLVpG-25" target="KNrJtMZ0LoEhQUcMLVpG-28">
          <mxGeometry width="50" height="50" relative="1" as="geometry">
            <mxPoint x="-1152.5" y="4781.142857142857" as="sourcePoint" />
            <mxPoint x="-1092.5" y="5100" as="targetPoint" />
            <Array as="points">
              <mxPoint x="-1152.5" y="4775" />
              <mxPoint x="-1152.5" y="5100" />
            </Array>
          </mxGeometry>
        </mxCell>
        <mxCell id="KNrJtMZ0LoEhQUcMLVpG-48" value="" style="endArrow=classic;html=1;rounded=0;entryX=1;entryY=0.5;entryDx=0;entryDy=0;exitX=1;exitY=0.25;exitDx=0;exitDy=0;" edge="1" parent="1" source="KNrJtMZ0LoEhQUcMLVpG-25" target="KNrJtMZ0LoEhQUcMLVpG-29">
          <mxGeometry width="50" height="50" relative="1" as="geometry">
            <mxPoint x="-1152.4999999999998" y="4745" as="sourcePoint" />
            <mxPoint x="-1152.4999999999998" y="5230" as="targetPoint" />
            <Array as="points">
              <mxPoint x="-1137.5" y="4745" />
              <mxPoint x="-1137.5" y="5230" />
            </Array>
          </mxGeometry>
        </mxCell>
        <mxCell id="KNrJtMZ0LoEhQUcMLVpG-49" value="Frontend-разработчик: 27%" style="rounded=1;whiteSpace=wrap;html=1;fillColor=#C9DAF8;" vertex="1" parent="1">
          <mxGeometry x="-1592.5" y="5620" width="200" height="60" as="geometry" />
        </mxCell>
        <mxCell id="KNrJtMZ0LoEhQUcMLVpG-50" value="Frontend-разработчик: 30 часов" style="rounded=1;whiteSpace=wrap;html=1;fillColor=#C9DAF8;" vertex="1" parent="1">
          <mxGeometry x="-517.5" y="4840" width="200" height="60" as="geometry" />
        </mxCell>
        <mxCell id="KNrJtMZ0LoEhQUcMLVpG-51" value="" style="exitX=0.5;exitY=1;exitDx=0;exitDy=0;entryX=0.5;entryY=0;entryDx=0;entryDy=0;" edge="1" parent="1" source="KNrJtMZ0LoEhQUcMLVpG-50" target="KNrJtMZ0LoEhQUcMLVpG-38">
          <mxGeometry relative="1" as="geometry">
            <mxPoint x="-412.5" y="4910" as="sourcePoint" />
            <mxPoint x="-417.5" y="4930" as="targetPoint" />
          </mxGeometry>
        </mxCell>
        <mxCell id="17p9pd2lIJORkcOXywxm-1" value="&lt;font style=&quot;font-size: 36px;&quot;&gt;Возможные технологические инновации&lt;/font&gt;" style="rounded=0;whiteSpace=wrap;html=1;" vertex="1" parent="1">
          <mxGeometry x="-1133" y="13340" width="570" height="120" as="geometry" />
        </mxCell>
        <mxCell id="17p9pd2lIJORkcOXywxm-2" value="&lt;font style=&quot;font-size: 23px;&quot;&gt;Персонализированные рекомендации AI в режиме реального времени&lt;/font&gt;" style="rounded=0;whiteSpace=wrap;html=1;fontColor=#333333;fontSize=23;fillColor=#f5f5f5;strokeColor=#666666;" vertex="1" parent="1">
          <mxGeometry x="-1133.5" y="13540" width="570" height="120" as="geometry" />
        </mxCell>
        <mxCell id="17p9pd2lIJORkcOXywxm-45" style="edgeStyle=orthogonalEdgeStyle;rounded=0;orthogonalLoop=1;jettySize=auto;html=1;entryX=0;entryY=0.5;entryDx=0;entryDy=0;" edge="1" parent="1" source="17p9pd2lIJORkcOXywxm-3">
          <mxGeometry relative="1" as="geometry" />
        </mxCell>
        <mxCell id="aG5OqohqLksMVNMiBGly-26" style="edgeStyle=orthogonalEdgeStyle;rounded=0;orthogonalLoop=1;jettySize=auto;html=1;exitX=1;exitY=0.5;exitDx=0;exitDy=0;entryX=0;entryY=0.5;entryDx=0;entryDy=0;" edge="1" parent="1" source="17p9pd2lIJORkcOXywxm-3" target="aG5OqohqLksMVNMiBGly-20">
          <mxGeometry relative="1" as="geometry" />
        </mxCell>
        <mxCell id="17p9pd2lIJORkcOXywxm-3" value="Разработка системы коллаборативной фильтрации" style="rounded=1;whiteSpace=wrap;html=1;fontSize=20;fillColor=#d5e8d4;strokeColor=#82b366;spacing=10;" vertex="1" parent="1">
          <mxGeometry x="-1608" y="13868" width="280" height="152" as="geometry" />
        </mxCell>
        <mxCell id="17p9pd2lIJORkcOXywxm-84" style="edgeStyle=orthogonalEdgeStyle;rounded=0;orthogonalLoop=1;jettySize=auto;html=1;entryX=0;entryY=0.5;entryDx=0;entryDy=0;" edge="1" parent="1" source="17p9pd2lIJORkcOXywxm-85">
          <mxGeometry relative="1" as="geometry" />
        </mxCell>
        <mxCell id="aG5OqohqLksMVNMiBGly-27" style="edgeStyle=orthogonalEdgeStyle;rounded=0;orthogonalLoop=1;jettySize=auto;html=1;exitX=1;exitY=0.5;exitDx=0;exitDy=0;entryX=0;entryY=0.5;entryDx=0;entryDy=0;" edge="1" parent="1" source="17p9pd2lIJORkcOXywxm-85" target="aG5OqohqLksMVNMiBGly-12">
          <mxGeometry relative="1" as="geometry" />
        </mxCell>
        <mxCell id="17p9pd2lIJORkcOXywxm-85" value="Внедрение алгоритмов контентного анализа" style="rounded=1;whiteSpace=wrap;html=1;fontSize=20;fillColor=#d5e8d4;strokeColor=#82b366;spacing=10;" vertex="1" parent="1">
          <mxGeometry x="-780.5" y="13879" width="280" height="152" as="geometry" />
        </mxCell>
        <mxCell id="17p9pd2lIJORkcOXywxm-115" style="edgeStyle=orthogonalEdgeStyle;rounded=0;orthogonalLoop=1;jettySize=auto;html=1;entryX=0;entryY=0.5;entryDx=0;entryDy=0;" edge="1" parent="1" source="17p9pd2lIJORkcOXywxm-116">
          <mxGeometry relative="1" as="geometry" />
        </mxCell>
        <mxCell id="aG5OqohqLksMVNMiBGly-9" style="edgeStyle=orthogonalEdgeStyle;rounded=0;orthogonalLoop=1;jettySize=auto;html=1;exitX=1;exitY=0.5;exitDx=0;exitDy=0;entryX=0;entryY=0.5;entryDx=0;entryDy=0;" edge="1" parent="1" source="17p9pd2lIJORkcOXywxm-116" target="aG5OqohqLksMVNMiBGly-3">
          <mxGeometry relative="1" as="geometry" />
        </mxCell>
        <mxCell id="17p9pd2lIJORkcOXywxm-116" value="Интеграция NLP-модели для анализа текстовых данных" style="rounded=1;whiteSpace=wrap;html=1;fontSize=20;fillColor=#d5e8d4;strokeColor=#82b366;spacing=10;" vertex="1" parent="1">
          <mxGeometry x="-1605.5" y="14379" width="280" height="152" as="geometry" />
        </mxCell>
        <mxCell id="jgmqsM-jzUE8UFbmxI_V-1" style="edgeStyle=orthogonalEdgeStyle;rounded=0;orthogonalLoop=1;jettySize=auto;html=1;entryX=0;entryY=0.5;entryDx=0;entryDy=0;" edge="1" parent="1" source="jgmqsM-jzUE8UFbmxI_V-2" target="jgmqsM-jzUE8UFbmxI_V-4">
          <mxGeometry relative="1" as="geometry" />
        </mxCell>
        <mxCell id="jgmqsM-jzUE8UFbmxI_V-2" value="Создание рекомендательной системы и интеграция с существующими платформами" style="rounded=1;whiteSpace=wrap;html=1;fontSize=20;fillColor=#d5e8d4;strokeColor=#82b366;spacing=10;" vertex="1" parent="1">
          <mxGeometry x="-780.5" y="14379" width="280" height="152" as="geometry" />
        </mxCell>
        <mxCell id="jgmqsM-jzUE8UFbmxI_V-10" value="" style="group" connectable="0" vertex="1" parent="1">
          <mxGeometry x="-1208" y="13740" width="285" height="368" as="geometry" />
        </mxCell>
        <mxCell id="jgmqsM-jzUE8UFbmxI_V-12" value="" style="group" connectable="0" vertex="1" parent="1">
          <mxGeometry x="-378" y="13740" width="280" height="370" as="geometry" />
        </mxCell>
        <mxCell id="jgmqsM-jzUE8UFbmxI_V-13" value="" style="group" connectable="0" vertex="1" parent="1">
          <mxGeometry x="-1203" y="14240" width="280" height="380" as="geometry" />
        </mxCell>
        <mxCell id="jgmqsM-jzUE8UFbmxI_V-14" value="" style="group" connectable="0" vertex="1" parent="1">
          <mxGeometry x="-378" y="14240" width="280" height="380" as="geometry" />
        </mxCell>
        <mxCell id="jgmqsM-jzUE8UFbmxI_V-3" style="edgeStyle=orthogonalEdgeStyle;rounded=0;orthogonalLoop=1;jettySize=auto;html=1;exitX=0.5;exitY=1;exitDx=0;exitDy=0;entryX=0.5;entryY=0;entryDx=0;entryDy=0;fillColor=#dae8fc;strokeColor=#6c8ebf;" edge="1" parent="jgmqsM-jzUE8UFbmxI_V-14" source="jgmqsM-jzUE8UFbmxI_V-4" target="jgmqsM-jzUE8UFbmxI_V-6">
          <mxGeometry relative="1" as="geometry" />
        </mxCell>
        <mxCell id="jgmqsM-jzUE8UFbmxI_V-4" value="Разработка архитектуры рекомендательной системы" style="rounded=1;whiteSpace=wrap;html=1;fontSize=18;spacing=10;fillColor=#dae8fc;strokeColor=#6c8ebf;" vertex="1" parent="jgmqsM-jzUE8UFbmxI_V-14">
          <mxGeometry width="280" height="73.07692307692307" as="geometry" />
        </mxCell>
        <mxCell id="jgmqsM-jzUE8UFbmxI_V-5" style="edgeStyle=orthogonalEdgeStyle;rounded=0;orthogonalLoop=1;jettySize=auto;html=1;exitX=0.5;exitY=1;exitDx=0;exitDy=0;entryX=0.5;entryY=0;entryDx=0;entryDy=0;fillColor=#dae8fc;strokeColor=#6c8ebf;" edge="1" parent="jgmqsM-jzUE8UFbmxI_V-14" source="jgmqsM-jzUE8UFbmxI_V-6" target="jgmqsM-jzUE8UFbmxI_V-8">
          <mxGeometry relative="1" as="geometry" />
        </mxCell>
        <mxCell id="jgmqsM-jzUE8UFbmxI_V-6" value="Интеграция с существующими платформами" style="rounded=1;whiteSpace=wrap;html=1;fontSize=18;spacing=10;fillColor=#dae8fc;strokeColor=#6c8ebf;" vertex="1" parent="jgmqsM-jzUE8UFbmxI_V-14">
          <mxGeometry y="102.3076923076923" width="280" height="73.07692307692307" as="geometry" />
        </mxCell>
        <mxCell id="jgmqsM-jzUE8UFbmxI_V-7" style="edgeStyle=orthogonalEdgeStyle;rounded=0;orthogonalLoop=1;jettySize=auto;html=1;exitX=0.5;exitY=1;exitDx=0;exitDy=0;entryX=0.5;entryY=0;entryDx=0;entryDy=0;fillColor=#dae8fc;strokeColor=#6c8ebf;" edge="1" parent="jgmqsM-jzUE8UFbmxI_V-14" source="jgmqsM-jzUE8UFbmxI_V-8" target="jgmqsM-jzUE8UFbmxI_V-9">
          <mxGeometry relative="1" as="geometry" />
        </mxCell>
        <mxCell id="jgmqsM-jzUE8UFbmxI_V-8" value="Тестирование и настройка системы" style="rounded=1;whiteSpace=wrap;html=1;fontSize=18;spacing=10;fillColor=#dae8fc;strokeColor=#6c8ebf;" vertex="1" parent="jgmqsM-jzUE8UFbmxI_V-14">
          <mxGeometry y="204.6153846153846" width="280" height="73.07692307692307" as="geometry" />
        </mxCell>
        <mxCell id="jgmqsM-jzUE8UFbmxI_V-9" value="Поддержка и обновление" style="rounded=1;whiteSpace=wrap;html=1;fontSize=18;spacing=10;fillColor=#dae8fc;strokeColor=#6c8ebf;" vertex="1" parent="jgmqsM-jzUE8UFbmxI_V-14">
          <mxGeometry y="306.9230769230769" width="280" height="73.07692307692307" as="geometry" />
        </mxCell>
        <mxCell id="jgmqsM-jzUE8UFbmxI_V-15" value="AI для прогнозирования поведенческих трендов и динамическое ценообразование" style="rounded=0;whiteSpace=wrap;html=1;fontColor=#333333;fontSize=23;fillColor=#f5f5f5;strokeColor=#666666;" vertex="1" parent="1">
          <mxGeometry x="-1131.5" y="14780" width="570" height="120" as="geometry" />
        </mxCell>
        <mxCell id="jgmqsM-jzUE8UFbmxI_V-16" style="edgeStyle=orthogonalEdgeStyle;rounded=0;orthogonalLoop=1;jettySize=auto;html=1;entryX=0;entryY=0.5;entryDx=0;entryDy=0;" edge="1" parent="1" source="jgmqsM-jzUE8UFbmxI_V-17" target="jgmqsM-jzUE8UFbmxI_V-26">
          <mxGeometry relative="1" as="geometry" />
        </mxCell>
        <mxCell id="jgmqsM-jzUE8UFbmxI_V-17" value="Сбор и подготовка исторических данных" style="rounded=1;whiteSpace=wrap;html=1;fontSize=20;fillColor=#d5e8d4;strokeColor=#82b366;spacing=10;" vertex="1" parent="1">
          <mxGeometry x="-1606" y="15108" width="280" height="152" as="geometry" />
        </mxCell>
        <mxCell id="jgmqsM-jzUE8UFbmxI_V-18" style="edgeStyle=orthogonalEdgeStyle;rounded=0;orthogonalLoop=1;jettySize=auto;html=1;entryX=0;entryY=0.5;entryDx=0;entryDy=0;" edge="1" parent="1" source="jgmqsM-jzUE8UFbmxI_V-19" target="jgmqsM-jzUE8UFbmxI_V-34">
          <mxGeometry relative="1" as="geometry" />
        </mxCell>
        <mxCell id="jgmqsM-jzUE8UFbmxI_V-19" value="Разработка модели машинного обучения для анализа трендов" style="rounded=1;whiteSpace=wrap;html=1;fontSize=20;fillColor=#d5e8d4;strokeColor=#82b366;spacing=10;" vertex="1" parent="1">
          <mxGeometry x="-778.5" y="15119" width="280" height="152" as="geometry" />
        </mxCell>
        <mxCell id="jgmqsM-jzUE8UFbmxI_V-20" style="edgeStyle=orthogonalEdgeStyle;rounded=0;orthogonalLoop=1;jettySize=auto;html=1;entryX=0;entryY=0.5;entryDx=0;entryDy=0;" edge="1" parent="1" source="jgmqsM-jzUE8UFbmxI_V-21" target="jgmqsM-jzUE8UFbmxI_V-42">
          <mxGeometry relative="1" as="geometry" />
        </mxCell>
        <mxCell id="jgmqsM-jzUE8UFbmxI_V-21" value="Создание системы динамического ценообразования" style="rounded=1;whiteSpace=wrap;html=1;fontSize=20;fillColor=#d5e8d4;strokeColor=#82b366;spacing=10;" vertex="1" parent="1">
          <mxGeometry x="-1603.5" y="15619" width="280" height="152" as="geometry" />
        </mxCell>
        <mxCell id="jgmqsM-jzUE8UFbmxI_V-22" style="edgeStyle=orthogonalEdgeStyle;rounded=0;orthogonalLoop=1;jettySize=auto;html=1;entryX=0;entryY=0.5;entryDx=0;entryDy=0;" edge="1" parent="1" source="jgmqsM-jzUE8UFbmxI_V-23" target="jgmqsM-jzUE8UFbmxI_V-50">
          <mxGeometry relative="1" as="geometry" />
        </mxCell>
        <mxCell id="jgmqsM-jzUE8UFbmxI_V-23" value="Интеграция с существующими системами e-commerce" style="rounded=1;whiteSpace=wrap;html=1;fontSize=20;fillColor=#d5e8d4;strokeColor=#82b366;spacing=10;" vertex="1" parent="1">
          <mxGeometry x="-778.5" y="15619" width="280" height="152" as="geometry" />
        </mxCell>
        <mxCell id="jgmqsM-jzUE8UFbmxI_V-24" value="Определение источников данных" style="group" connectable="0" vertex="1" parent="1">
          <mxGeometry x="-1206" y="14980" width="285" height="368" as="geometry" />
        </mxCell>
        <mxCell id="jgmqsM-jzUE8UFbmxI_V-25" style="edgeStyle=orthogonalEdgeStyle;rounded=0;orthogonalLoop=1;jettySize=auto;html=1;exitX=0.5;exitY=1;exitDx=0;exitDy=0;entryX=0.5;entryY=0;entryDx=0;entryDy=0;fillColor=#dae8fc;strokeColor=#6c8ebf;" edge="1" parent="jgmqsM-jzUE8UFbmxI_V-24" source="jgmqsM-jzUE8UFbmxI_V-26" target="jgmqsM-jzUE8UFbmxI_V-28">
          <mxGeometry relative="1" as="geometry" />
        </mxCell>
        <mxCell id="jgmqsM-jzUE8UFbmxI_V-26" value="Определение источников данных и их сбор" style="rounded=1;whiteSpace=wrap;html=1;fontSize=18;spacing=10;fillColor=#dae8fc;strokeColor=#6c8ebf;" vertex="1" parent="jgmqsM-jzUE8UFbmxI_V-24">
          <mxGeometry width="285" height="70.06153846153848" as="geometry" />
        </mxCell>
        <mxCell id="jgmqsM-jzUE8UFbmxI_V-27" style="edgeStyle=orthogonalEdgeStyle;rounded=0;orthogonalLoop=1;jettySize=auto;html=1;exitX=0.5;exitY=1;exitDx=0;exitDy=0;entryX=0.5;entryY=0;entryDx=0;entryDy=0;fillColor=#dae8fc;strokeColor=#6c8ebf;" edge="1" parent="jgmqsM-jzUE8UFbmxI_V-24" source="jgmqsM-jzUE8UFbmxI_V-28" target="jgmqsM-jzUE8UFbmxI_V-30">
          <mxGeometry relative="1" as="geometry" />
        </mxCell>
        <mxCell id="jgmqsM-jzUE8UFbmxI_V-28" value="Очистка и подготовка данных" style="rounded=1;whiteSpace=wrap;html=1;fontSize=18;spacing=10;fillColor=#dae8fc;strokeColor=#6c8ebf;" vertex="1" parent="jgmqsM-jzUE8UFbmxI_V-24">
          <mxGeometry y="99.0769230769231" width="285" height="70.76923076923077" as="geometry" />
        </mxCell>
        <mxCell id="jgmqsM-jzUE8UFbmxI_V-29" style="edgeStyle=orthogonalEdgeStyle;rounded=0;orthogonalLoop=1;jettySize=auto;html=1;exitX=0.5;exitY=1;exitDx=0;exitDy=0;entryX=0.5;entryY=0;entryDx=0;entryDy=0;fillColor=#dae8fc;strokeColor=#6c8ebf;" edge="1" parent="jgmqsM-jzUE8UFbmxI_V-24" source="jgmqsM-jzUE8UFbmxI_V-30" target="jgmqsM-jzUE8UFbmxI_V-31">
          <mxGeometry relative="1" as="geometry" />
        </mxCell>
        <mxCell id="jgmqsM-jzUE8UFbmxI_V-30" value="Создание хранилища данных" style="rounded=1;whiteSpace=wrap;html=1;fontSize=18;spacing=10;fillColor=#dae8fc;strokeColor=#6c8ebf;" vertex="1" parent="jgmqsM-jzUE8UFbmxI_V-24">
          <mxGeometry y="198.1538461538462" width="285" height="70.76923076923077" as="geometry" />
        </mxCell>
        <mxCell id="jgmqsM-jzUE8UFbmxI_V-31" value="Разметка&lt;span style=&quot;background-color: initial;&quot;&gt;&amp;nbsp;данных для обучения модели&lt;/span&gt;" style="rounded=1;whiteSpace=wrap;html=1;fontSize=18;spacing=10;fillColor=#dae8fc;strokeColor=#6c8ebf;" vertex="1" parent="jgmqsM-jzUE8UFbmxI_V-24">
          <mxGeometry y="297.2307692307693" width="285" height="70.76923076923077" as="geometry" />
        </mxCell>
        <mxCell id="jgmqsM-jzUE8UFbmxI_V-32" value="" style="group" connectable="0" vertex="1" parent="1">
          <mxGeometry x="-376" y="14980" width="280" height="370" as="geometry" />
        </mxCell>
        <mxCell id="jgmqsM-jzUE8UFbmxI_V-33" style="edgeStyle=orthogonalEdgeStyle;rounded=0;orthogonalLoop=1;jettySize=auto;html=1;exitX=0.5;exitY=1;exitDx=0;exitDy=0;entryX=0.5;entryY=0;entryDx=0;entryDy=0;fillColor=#dae8fc;strokeColor=#6c8ebf;" edge="1" parent="jgmqsM-jzUE8UFbmxI_V-32" source="jgmqsM-jzUE8UFbmxI_V-34" target="jgmqsM-jzUE8UFbmxI_V-36">
          <mxGeometry relative="1" as="geometry" />
        </mxCell>
        <mxCell id="jgmqsM-jzUE8UFbmxI_V-34" value="Выбор типа модели машинного обучения" style="rounded=1;whiteSpace=wrap;html=1;fontSize=18;spacing=10;fillColor=#dae8fc;strokeColor=#6c8ebf;" vertex="1" parent="jgmqsM-jzUE8UFbmxI_V-32">
          <mxGeometry width="280" height="71.15384615384629" as="geometry" />
        </mxCell>
        <mxCell id="jgmqsM-jzUE8UFbmxI_V-35" style="edgeStyle=orthogonalEdgeStyle;rounded=0;orthogonalLoop=1;jettySize=auto;html=1;exitX=0.5;exitY=1;exitDx=0;exitDy=0;entryX=0.5;entryY=0;entryDx=0;entryDy=0;fillColor=#dae8fc;strokeColor=#6c8ebf;" edge="1" parent="jgmqsM-jzUE8UFbmxI_V-32" source="jgmqsM-jzUE8UFbmxI_V-36" target="jgmqsM-jzUE8UFbmxI_V-38">
          <mxGeometry relative="1" as="geometry" />
        </mxCell>
        <mxCell id="jgmqsM-jzUE8UFbmxI_V-36" value="Обучение и тестирование модели" style="rounded=1;whiteSpace=wrap;html=1;fontSize=18;spacing=10;fillColor=#dae8fc;strokeColor=#6c8ebf;" vertex="1" parent="jgmqsM-jzUE8UFbmxI_V-32">
          <mxGeometry y="99.61538461538545" width="280" height="71.15384615384629" as="geometry" />
        </mxCell>
        <mxCell id="jgmqsM-jzUE8UFbmxI_V-37" style="edgeStyle=orthogonalEdgeStyle;rounded=0;orthogonalLoop=1;jettySize=auto;html=1;exitX=0.5;exitY=1;exitDx=0;exitDy=0;entryX=0.5;entryY=0;entryDx=0;entryDy=0;fillColor=#dae8fc;strokeColor=#6c8ebf;" edge="1" parent="jgmqsM-jzUE8UFbmxI_V-32" source="jgmqsM-jzUE8UFbmxI_V-38" target="jgmqsM-jzUE8UFbmxI_V-39">
          <mxGeometry relative="1" as="geometry" />
        </mxCell>
        <mxCell id="jgmqsM-jzUE8UFbmxI_V-38" value="Прогнозирование трендов" style="rounded=1;whiteSpace=wrap;html=1;fontSize=18;spacing=10;fillColor=#dae8fc;strokeColor=#6c8ebf;" vertex="1" parent="jgmqsM-jzUE8UFbmxI_V-32">
          <mxGeometry y="199.23076923076908" width="280" height="71.15384615384629" as="geometry" />
        </mxCell>
        <mxCell id="jgmqsM-jzUE8UFbmxI_V-39" value="Оптимизация модели" style="rounded=1;whiteSpace=wrap;html=1;fontSize=18;spacing=10;fillColor=#dae8fc;strokeColor=#6c8ebf;" vertex="1" parent="jgmqsM-jzUE8UFbmxI_V-32">
          <mxGeometry y="298.84615384615455" width="280" height="71.15384615384629" as="geometry" />
        </mxCell>
        <mxCell id="jgmqsM-jzUE8UFbmxI_V-40" value="" style="group" connectable="0" vertex="1" parent="1">
          <mxGeometry x="-1201" y="15480" width="280" height="380" as="geometry" />
        </mxCell>
        <mxCell id="jgmqsM-jzUE8UFbmxI_V-41" style="edgeStyle=orthogonalEdgeStyle;rounded=0;orthogonalLoop=1;jettySize=auto;html=1;exitX=0.5;exitY=1;exitDx=0;exitDy=0;entryX=0.5;entryY=0;entryDx=0;entryDy=0;fillColor=#dae8fc;strokeColor=#6c8ebf;" edge="1" parent="jgmqsM-jzUE8UFbmxI_V-40" source="jgmqsM-jzUE8UFbmxI_V-42" target="jgmqsM-jzUE8UFbmxI_V-44">
          <mxGeometry relative="1" as="geometry" />
        </mxCell>
        <mxCell id="jgmqsM-jzUE8UFbmxI_V-42" value="Разработка алгоритма динамического ценообразования" style="rounded=1;whiteSpace=wrap;html=1;fontSize=18;spacing=10;fillColor=#dae8fc;strokeColor=#6c8ebf;" vertex="1" parent="jgmqsM-jzUE8UFbmxI_V-40">
          <mxGeometry width="280" height="73.07692307692307" as="geometry" />
        </mxCell>
        <mxCell id="jgmqsM-jzUE8UFbmxI_V-43" style="edgeStyle=orthogonalEdgeStyle;rounded=0;orthogonalLoop=1;jettySize=auto;html=1;exitX=0.5;exitY=1;exitDx=0;exitDy=0;entryX=0.5;entryY=0;entryDx=0;entryDy=0;fillColor=#dae8fc;strokeColor=#6c8ebf;" edge="1" parent="jgmqsM-jzUE8UFbmxI_V-40" source="jgmqsM-jzUE8UFbmxI_V-44" target="jgmqsM-jzUE8UFbmxI_V-46">
          <mxGeometry relative="1" as="geometry" />
        </mxCell>
        <mxCell id="jgmqsM-jzUE8UFbmxI_V-44" value="Интеграция с данными о поведении пользователей" style="rounded=1;whiteSpace=wrap;html=1;fontSize=18;spacing=10;fillColor=#dae8fc;strokeColor=#6c8ebf;" vertex="1" parent="jgmqsM-jzUE8UFbmxI_V-40">
          <mxGeometry y="102.3076923076923" width="280" height="73.07692307692307" as="geometry" />
        </mxCell>
        <mxCell id="jgmqsM-jzUE8UFbmxI_V-45" style="edgeStyle=orthogonalEdgeStyle;rounded=0;orthogonalLoop=1;jettySize=auto;html=1;exitX=0.5;exitY=1;exitDx=0;exitDy=0;entryX=0.5;entryY=0;entryDx=0;entryDy=0;fillColor=#dae8fc;strokeColor=#6c8ebf;" edge="1" parent="jgmqsM-jzUE8UFbmxI_V-40" source="jgmqsM-jzUE8UFbmxI_V-46" target="jgmqsM-jzUE8UFbmxI_V-47">
          <mxGeometry relative="1" as="geometry" />
        </mxCell>
        <mxCell id="jgmqsM-jzUE8UFbmxI_V-46" value="Мониторинг и анализ эффективности" style="rounded=1;whiteSpace=wrap;html=1;fontSize=18;spacing=10;fillColor=#dae8fc;strokeColor=#6c8ebf;" vertex="1" parent="jgmqsM-jzUE8UFbmxI_V-40">
          <mxGeometry y="204.6153846153846" width="280" height="73.07692307692307" as="geometry" />
        </mxCell>
        <mxCell id="jgmqsM-jzUE8UFbmxI_V-47" value="Обеспечение прозрачности для пользователей" style="rounded=1;whiteSpace=wrap;html=1;fontSize=18;spacing=10;fillColor=#dae8fc;strokeColor=#6c8ebf;" vertex="1" parent="jgmqsM-jzUE8UFbmxI_V-40">
          <mxGeometry y="306.9230769230769" width="280" height="73.07692307692307" as="geometry" />
        </mxCell>
        <mxCell id="jgmqsM-jzUE8UFbmxI_V-48" value="" style="group" connectable="0" vertex="1" parent="1">
          <mxGeometry x="-376" y="15480" width="280" height="380" as="geometry" />
        </mxCell>
        <mxCell id="jgmqsM-jzUE8UFbmxI_V-49" style="edgeStyle=orthogonalEdgeStyle;rounded=0;orthogonalLoop=1;jettySize=auto;html=1;exitX=0.5;exitY=1;exitDx=0;exitDy=0;entryX=0.5;entryY=0;entryDx=0;entryDy=0;fillColor=#dae8fc;strokeColor=#6c8ebf;" edge="1" parent="jgmqsM-jzUE8UFbmxI_V-48" source="jgmqsM-jzUE8UFbmxI_V-50" target="jgmqsM-jzUE8UFbmxI_V-52">
          <mxGeometry relative="1" as="geometry" />
        </mxCell>
        <mxCell id="jgmqsM-jzUE8UFbmxI_V-50" value="Разработка API для взаимодействия с платформами" style="rounded=1;whiteSpace=wrap;html=1;fontSize=18;spacing=10;fillColor=#dae8fc;strokeColor=#6c8ebf;" vertex="1" parent="jgmqsM-jzUE8UFbmxI_V-48">
          <mxGeometry width="280" height="73.07692307692307" as="geometry" />
        </mxCell>
        <mxCell id="jgmqsM-jzUE8UFbmxI_V-51" style="edgeStyle=orthogonalEdgeStyle;rounded=0;orthogonalLoop=1;jettySize=auto;html=1;exitX=0.5;exitY=1;exitDx=0;exitDy=0;entryX=0.5;entryY=0;entryDx=0;entryDy=0;fillColor=#dae8fc;strokeColor=#6c8ebf;" edge="1" parent="jgmqsM-jzUE8UFbmxI_V-48" source="jgmqsM-jzUE8UFbmxI_V-52" target="jgmqsM-jzUE8UFbmxI_V-54">
          <mxGeometry relative="1" as="geometry" />
        </mxCell>
        <mxCell id="jgmqsM-jzUE8UFbmxI_V-52" value="Интеграция с маркетплейсами и системами продаж" style="rounded=1;whiteSpace=wrap;html=1;fontSize=18;spacing=10;fillColor=#dae8fc;strokeColor=#6c8ebf;" vertex="1" parent="jgmqsM-jzUE8UFbmxI_V-48">
          <mxGeometry y="102.3076923076923" width="280" height="73.07692307692307" as="geometry" />
        </mxCell>
        <mxCell id="jgmqsM-jzUE8UFbmxI_V-53" style="edgeStyle=orthogonalEdgeStyle;rounded=0;orthogonalLoop=1;jettySize=auto;html=1;exitX=0.5;exitY=1;exitDx=0;exitDy=0;entryX=0.5;entryY=0;entryDx=0;entryDy=0;fillColor=#dae8fc;strokeColor=#6c8ebf;" edge="1" parent="jgmqsM-jzUE8UFbmxI_V-48" source="jgmqsM-jzUE8UFbmxI_V-54" target="jgmqsM-jzUE8UFbmxI_V-55">
          <mxGeometry relative="1" as="geometry" />
        </mxCell>
        <mxCell id="jgmqsM-jzUE8UFbmxI_V-54" value="Тестирование интеграции" style="rounded=1;whiteSpace=wrap;html=1;fontSize=18;spacing=10;fillColor=#dae8fc;strokeColor=#6c8ebf;" vertex="1" parent="jgmqsM-jzUE8UFbmxI_V-48">
          <mxGeometry y="204.6153846153846" width="280" height="73.07692307692307" as="geometry" />
        </mxCell>
        <mxCell id="jgmqsM-jzUE8UFbmxI_V-55" value="Поддержка и обслуживание системы" style="rounded=1;whiteSpace=wrap;html=1;fontSize=18;spacing=10;fillColor=#dae8fc;strokeColor=#6c8ebf;" vertex="1" parent="jgmqsM-jzUE8UFbmxI_V-48">
          <mxGeometry y="306.9230769230769" width="280" height="73.07692307692307" as="geometry" />
        </mxCell>
        <mxCell id="aG5OqohqLksMVNMiBGly-1" value="" style="group" connectable="0" vertex="1" parent="1">
          <mxGeometry x="-1200.5" y="14240" width="280" height="380" as="geometry" />
        </mxCell>
        <mxCell id="aG5OqohqLksMVNMiBGly-2" style="edgeStyle=orthogonalEdgeStyle;rounded=0;orthogonalLoop=1;jettySize=auto;html=1;exitX=0.5;exitY=1;exitDx=0;exitDy=0;entryX=0.5;entryY=0;entryDx=0;entryDy=0;fillColor=#dae8fc;strokeColor=#6c8ebf;" edge="1" parent="aG5OqohqLksMVNMiBGly-1" source="aG5OqohqLksMVNMiBGly-3" target="aG5OqohqLksMVNMiBGly-5">
          <mxGeometry relative="1" as="geometry" />
        </mxCell>
        <mxCell id="aG5OqohqLksMVNMiBGly-3" value="Сбор текстовых данных" style="rounded=1;whiteSpace=wrap;html=1;fontSize=18;spacing=10;fillColor=#dae8fc;strokeColor=#6c8ebf;" vertex="1" parent="aG5OqohqLksMVNMiBGly-1">
          <mxGeometry width="280" height="73.07692307692307" as="geometry" />
        </mxCell>
        <mxCell id="aG5OqohqLksMVNMiBGly-4" style="edgeStyle=orthogonalEdgeStyle;rounded=0;orthogonalLoop=1;jettySize=auto;html=1;exitX=0.5;exitY=1;exitDx=0;exitDy=0;entryX=0.5;entryY=0;entryDx=0;entryDy=0;fillColor=#dae8fc;strokeColor=#6c8ebf;" edge="1" parent="aG5OqohqLksMVNMiBGly-1" source="aG5OqohqLksMVNMiBGly-5" target="aG5OqohqLksMVNMiBGly-7">
          <mxGeometry relative="1" as="geometry" />
        </mxCell>
        <mxCell id="aG5OqohqLksMVNMiBGly-5" value="Разработка и обучение NLP-модели" style="rounded=1;whiteSpace=wrap;html=1;fontSize=18;spacing=10;fillColor=#dae8fc;strokeColor=#6c8ebf;" vertex="1" parent="aG5OqohqLksMVNMiBGly-1">
          <mxGeometry y="102.3076923076923" width="280" height="73.07692307692307" as="geometry" />
        </mxCell>
        <mxCell id="aG5OqohqLksMVNMiBGly-6" style="edgeStyle=orthogonalEdgeStyle;rounded=0;orthogonalLoop=1;jettySize=auto;html=1;exitX=0.5;exitY=1;exitDx=0;exitDy=0;entryX=0.5;entryY=0;entryDx=0;entryDy=0;fillColor=#dae8fc;strokeColor=#6c8ebf;" edge="1" parent="aG5OqohqLksMVNMiBGly-1" source="aG5OqohqLksMVNMiBGly-7" target="aG5OqohqLksMVNMiBGly-8">
          <mxGeometry relative="1" as="geometry" />
        </mxCell>
        <mxCell id="aG5OqohqLksMVNMiBGly-7" value="Интеграция NLP в систему рекомендаций" style="rounded=1;whiteSpace=wrap;html=1;fontSize=18;spacing=10;fillColor=#dae8fc;strokeColor=#6c8ebf;" vertex="1" parent="aG5OqohqLksMVNMiBGly-1">
          <mxGeometry y="204.6153846153846" width="280" height="73.07692307692307" as="geometry" />
        </mxCell>
        <mxCell id="aG5OqohqLksMVNMiBGly-8" value="Оптимизация NLP-модели" style="rounded=1;whiteSpace=wrap;html=1;fontSize=18;spacing=10;fillColor=#dae8fc;strokeColor=#6c8ebf;" vertex="1" parent="aG5OqohqLksMVNMiBGly-1">
          <mxGeometry y="306.9230769230769" width="280" height="73.07692307692307" as="geometry" />
        </mxCell>
        <mxCell id="aG5OqohqLksMVNMiBGly-10" value="" style="group" connectable="0" vertex="1" parent="1">
          <mxGeometry x="-380.5" y="13750" width="280" height="380" as="geometry" />
        </mxCell>
        <mxCell id="aG5OqohqLksMVNMiBGly-11" style="edgeStyle=orthogonalEdgeStyle;rounded=0;orthogonalLoop=1;jettySize=auto;html=1;exitX=0.5;exitY=1;exitDx=0;exitDy=0;entryX=0.5;entryY=0;entryDx=0;entryDy=0;fillColor=#dae8fc;strokeColor=#6c8ebf;" edge="1" parent="aG5OqohqLksMVNMiBGly-10" source="aG5OqohqLksMVNMiBGly-12" target="aG5OqohqLksMVNMiBGly-14">
          <mxGeometry relative="1" as="geometry" />
        </mxCell>
        <mxCell id="aG5OqohqLksMVNMiBGly-12" value="Создание базы данных о товарах" style="rounded=1;whiteSpace=wrap;html=1;fontSize=18;spacing=10;fillColor=#dae8fc;strokeColor=#6c8ebf;" vertex="1" parent="aG5OqohqLksMVNMiBGly-10">
          <mxGeometry width="280" height="73.07692307692307" as="geometry" />
        </mxCell>
        <mxCell id="aG5OqohqLksMVNMiBGly-13" style="edgeStyle=orthogonalEdgeStyle;rounded=0;orthogonalLoop=1;jettySize=auto;html=1;exitX=0.5;exitY=1;exitDx=0;exitDy=0;entryX=0.5;entryY=0;entryDx=0;entryDy=0;fillColor=#dae8fc;strokeColor=#6c8ebf;" edge="1" parent="aG5OqohqLksMVNMiBGly-10" source="aG5OqohqLksMVNMiBGly-14" target="aG5OqohqLksMVNMiBGly-16">
          <mxGeometry relative="1" as="geometry" />
        </mxCell>
        <mxCell id="aG5OqohqLksMVNMiBGly-14" value="Разработка алгоритмов анализа контента" style="rounded=1;whiteSpace=wrap;html=1;fontSize=18;spacing=10;fillColor=#dae8fc;strokeColor=#6c8ebf;" vertex="1" parent="aG5OqohqLksMVNMiBGly-10">
          <mxGeometry y="102.3076923076923" width="280" height="73.07692307692307" as="geometry" />
        </mxCell>
        <mxCell id="aG5OqohqLksMVNMiBGly-15" style="edgeStyle=orthogonalEdgeStyle;rounded=0;orthogonalLoop=1;jettySize=auto;html=1;exitX=0.5;exitY=1;exitDx=0;exitDy=0;entryX=0.5;entryY=0;entryDx=0;entryDy=0;fillColor=#dae8fc;strokeColor=#6c8ebf;" edge="1" parent="aG5OqohqLksMVNMiBGly-10" source="aG5OqohqLksMVNMiBGly-16" target="aG5OqohqLksMVNMiBGly-17">
          <mxGeometry relative="1" as="geometry" />
        </mxCell>
        <mxCell id="aG5OqohqLksMVNMiBGly-16" value="Интеграция контентного анализа с коллаборативной фильтрацией" style="rounded=1;whiteSpace=wrap;html=1;fontSize=18;spacing=10;fillColor=#dae8fc;strokeColor=#6c8ebf;" vertex="1" parent="aG5OqohqLksMVNMiBGly-10">
          <mxGeometry y="204.6153846153846" width="280" height="73.07692307692307" as="geometry" />
        </mxCell>
        <mxCell id="aG5OqohqLksMVNMiBGly-17" value="Обучение модели на новых данных" style="rounded=1;whiteSpace=wrap;html=1;fontSize=18;spacing=10;fillColor=#dae8fc;strokeColor=#6c8ebf;" vertex="1" parent="aG5OqohqLksMVNMiBGly-10">
          <mxGeometry y="306.9230769230769" width="280" height="73.07692307692307" as="geometry" />
        </mxCell>
        <mxCell id="aG5OqohqLksMVNMiBGly-18" value="" style="group" connectable="0" vertex="1" parent="1">
          <mxGeometry x="-1200.5" y="13750" width="280" height="380" as="geometry" />
        </mxCell>
        <mxCell id="aG5OqohqLksMVNMiBGly-19" style="edgeStyle=orthogonalEdgeStyle;rounded=0;orthogonalLoop=1;jettySize=auto;html=1;exitX=0.5;exitY=1;exitDx=0;exitDy=0;entryX=0.5;entryY=0;entryDx=0;entryDy=0;fillColor=#dae8fc;strokeColor=#6c8ebf;" edge="1" parent="aG5OqohqLksMVNMiBGly-18" source="aG5OqohqLksMVNMiBGly-20" target="aG5OqohqLksMVNMiBGly-22">
          <mxGeometry relative="1" as="geometry" />
        </mxCell>
        <mxCell id="aG5OqohqLksMVNMiBGly-20" value="Сбор данных" style="rounded=1;whiteSpace=wrap;html=1;fontSize=18;spacing=10;fillColor=#dae8fc;strokeColor=#6c8ebf;" vertex="1" parent="aG5OqohqLksMVNMiBGly-18">
          <mxGeometry width="280" height="73.07692307692307" as="geometry" />
        </mxCell>
        <mxCell id="aG5OqohqLksMVNMiBGly-21" style="edgeStyle=orthogonalEdgeStyle;rounded=0;orthogonalLoop=1;jettySize=auto;html=1;exitX=0.5;exitY=1;exitDx=0;exitDy=0;entryX=0.5;entryY=0;entryDx=0;entryDy=0;fillColor=#dae8fc;strokeColor=#6c8ebf;" edge="1" parent="aG5OqohqLksMVNMiBGly-18" source="aG5OqohqLksMVNMiBGly-22" target="aG5OqohqLksMVNMiBGly-24">
          <mxGeometry relative="1" as="geometry" />
        </mxCell>
        <mxCell id="aG5OqohqLksMVNMiBGly-22" value="Разработка алгоритмов коллаборативной фильтрации" style="rounded=1;whiteSpace=wrap;html=1;fontSize=18;spacing=10;fillColor=#dae8fc;strokeColor=#6c8ebf;" vertex="1" parent="aG5OqohqLksMVNMiBGly-18">
          <mxGeometry y="102.3076923076923" width="280" height="73.07692307692307" as="geometry" />
        </mxCell>
        <mxCell id="aG5OqohqLksMVNMiBGly-23" style="edgeStyle=orthogonalEdgeStyle;rounded=0;orthogonalLoop=1;jettySize=auto;html=1;exitX=0.5;exitY=1;exitDx=0;exitDy=0;entryX=0.5;entryY=0;entryDx=0;entryDy=0;fillColor=#dae8fc;strokeColor=#6c8ebf;" edge="1" parent="aG5OqohqLksMVNMiBGly-18" source="aG5OqohqLksMVNMiBGly-24" target="aG5OqohqLksMVNMiBGly-25">
          <mxGeometry relative="1" as="geometry" />
        </mxCell>
        <mxCell id="aG5OqohqLksMVNMiBGly-24" value="Оптимизация и обучение модели" style="rounded=1;whiteSpace=wrap;html=1;fontSize=18;spacing=10;fillColor=#dae8fc;strokeColor=#6c8ebf;" vertex="1" parent="aG5OqohqLksMVNMiBGly-18">
          <mxGeometry y="204.6153846153846" width="280" height="73.07692307692307" as="geometry" />
        </mxCell>
        <mxCell id="aG5OqohqLksMVNMiBGly-25" value="Интеграция модели в платформу" style="rounded=1;whiteSpace=wrap;html=1;fontSize=18;spacing=10;fillColor=#dae8fc;strokeColor=#6c8ebf;" vertex="1" parent="aG5OqohqLksMVNMiBGly-18">
          <mxGeometry y="306.9230769230769" width="280" height="73.07692307692307" as="geometry" />
        </mxCell>
        <mxCell id="rERk8T2in7XQwvnS--cO-1" value="AR рекламные кампании и интерактивные пробники" style="rounded=0;whiteSpace=wrap;html=1;fontColor=#333333;fontSize=23;fillColor=#f5f5f5;strokeColor=#666666;spacing=10;" vertex="1" parent="1">
          <mxGeometry x="-1129" y="16030" width="570" height="120" as="geometry" />
        </mxCell>
        <mxCell id="rERk8T2in7XQwvnS--cO-2" style="edgeStyle=orthogonalEdgeStyle;rounded=0;orthogonalLoop=1;jettySize=auto;html=1;entryX=0;entryY=0.5;entryDx=0;entryDy=0;" edge="1" parent="1" source="rERk8T2in7XQwvnS--cO-3" target="rERk8T2in7XQwvnS--cO-12">
          <mxGeometry relative="1" as="geometry" />
        </mxCell>
        <mxCell id="rERk8T2in7XQwvnS--cO-3" value="Разработка AR-приложения для &quot;примерки&quot; товаров" style="rounded=1;whiteSpace=wrap;html=1;fontSize=20;fillColor=#d5e8d4;strokeColor=#82b366;spacing=10;" vertex="1" parent="1">
          <mxGeometry x="-1603.5" y="16358" width="280" height="152" as="geometry" />
        </mxCell>
        <mxCell id="rERk8T2in7XQwvnS--cO-4" style="edgeStyle=orthogonalEdgeStyle;rounded=0;orthogonalLoop=1;jettySize=auto;html=1;entryX=0;entryY=0.5;entryDx=0;entryDy=0;" edge="1" parent="1" source="rERk8T2in7XQwvnS--cO-5" target="rERk8T2in7XQwvnS--cO-20">
          <mxGeometry relative="1" as="geometry" />
        </mxCell>
        <mxCell id="rERk8T2in7XQwvnS--cO-5" value="Создание AR-фильтров и эффектов для социальных сетей" style="rounded=1;whiteSpace=wrap;html=1;fontSize=20;fillColor=#d5e8d4;strokeColor=#82b366;spacing=10;" vertex="1" parent="1">
          <mxGeometry x="-776" y="16369" width="280" height="152" as="geometry" />
        </mxCell>
        <mxCell id="rERk8T2in7XQwvnS--cO-6" style="edgeStyle=orthogonalEdgeStyle;rounded=0;orthogonalLoop=1;jettySize=auto;html=1;entryX=0;entryY=0.5;entryDx=0;entryDy=0;" edge="1" parent="1" source="rERk8T2in7XQwvnS--cO-7" target="rERk8T2in7XQwvnS--cO-28">
          <mxGeometry relative="1" as="geometry" />
        </mxCell>
        <mxCell id="rERk8T2in7XQwvnS--cO-7" value="Интеграция AR-функционала в существующие платформы" style="rounded=1;whiteSpace=wrap;html=1;fontSize=20;fillColor=#d5e8d4;strokeColor=#82b366;spacing=10;" vertex="1" parent="1">
          <mxGeometry x="-1601" y="16929" width="280" height="152" as="geometry" />
        </mxCell>
        <mxCell id="rERk8T2in7XQwvnS--cO-8" style="edgeStyle=orthogonalEdgeStyle;rounded=0;orthogonalLoop=1;jettySize=auto;html=1;entryX=0;entryY=0.5;entryDx=0;entryDy=0;" edge="1" parent="1" source="rERk8T2in7XQwvnS--cO-9" target="rERk8T2in7XQwvnS--cO-36">
          <mxGeometry relative="1" as="geometry" />
        </mxCell>
        <mxCell id="rERk8T2in7XQwvnS--cO-9" value="Тестирование и оптимизация AR-контента" style="rounded=1;whiteSpace=wrap;html=1;fontSize=20;fillColor=#d5e8d4;strokeColor=#82b366;spacing=10;" vertex="1" parent="1">
          <mxGeometry x="-776" y="16929" width="280" height="152" as="geometry" />
        </mxCell>
        <mxCell id="rERk8T2in7XQwvnS--cO-18" value="" style="group" connectable="0" vertex="1" parent="1">
          <mxGeometry x="-373.5" y="16230" width="280" height="370" as="geometry" />
        </mxCell>
        <mxCell id="rERk8T2in7XQwvnS--cO-19" style="edgeStyle=orthogonalEdgeStyle;rounded=0;orthogonalLoop=1;jettySize=auto;html=1;exitX=0.5;exitY=1;exitDx=0;exitDy=0;entryX=0.5;entryY=0;entryDx=0;entryDy=0;fillColor=#dae8fc;strokeColor=#6c8ebf;" edge="1" parent="rERk8T2in7XQwvnS--cO-18" source="rERk8T2in7XQwvnS--cO-20" target="rERk8T2in7XQwvnS--cO-22">
          <mxGeometry relative="1" as="geometry" />
        </mxCell>
        <mxCell id="rERk8T2in7XQwvnS--cO-20" value="Разработка концепции фильтров" style="rounded=1;whiteSpace=wrap;html=1;fontSize=18;spacing=10;fillColor=#dae8fc;strokeColor=#6c8ebf;" vertex="1" parent="rERk8T2in7XQwvnS--cO-18">
          <mxGeometry width="280" height="71.15384615384629" as="geometry" />
        </mxCell>
        <mxCell id="rERk8T2in7XQwvnS--cO-21" style="edgeStyle=orthogonalEdgeStyle;rounded=0;orthogonalLoop=1;jettySize=auto;html=1;exitX=0.5;exitY=1;exitDx=0;exitDy=0;entryX=0.5;entryY=0;entryDx=0;entryDy=0;fillColor=#dae8fc;strokeColor=#6c8ebf;" edge="1" parent="rERk8T2in7XQwvnS--cO-18" source="rERk8T2in7XQwvnS--cO-22" target="rERk8T2in7XQwvnS--cO-24">
          <mxGeometry relative="1" as="geometry" />
        </mxCell>
        <mxCell id="rERk8T2in7XQwvnS--cO-22" value="Разработка фильтров для платформ" style="rounded=1;whiteSpace=wrap;html=1;fontSize=18;spacing=10;fillColor=#dae8fc;strokeColor=#6c8ebf;" vertex="1" parent="rERk8T2in7XQwvnS--cO-18">
          <mxGeometry y="99.61538461538545" width="280" height="71.15384615384629" as="geometry" />
        </mxCell>
        <mxCell id="rERk8T2in7XQwvnS--cO-23" style="edgeStyle=orthogonalEdgeStyle;rounded=0;orthogonalLoop=1;jettySize=auto;html=1;exitX=0.5;exitY=1;exitDx=0;exitDy=0;entryX=0.5;entryY=0;entryDx=0;entryDy=0;fillColor=#dae8fc;strokeColor=#6c8ebf;" edge="1" parent="rERk8T2in7XQwvnS--cO-18" source="rERk8T2in7XQwvnS--cO-24" target="rERk8T2in7XQwvnS--cO-25">
          <mxGeometry relative="1" as="geometry" />
        </mxCell>
        <mxCell id="rERk8T2in7XQwvnS--cO-24" value="Оптимизация под разные устройства" style="rounded=1;whiteSpace=wrap;html=1;fontSize=18;spacing=10;fillColor=#dae8fc;strokeColor=#6c8ebf;" vertex="1" parent="rERk8T2in7XQwvnS--cO-18">
          <mxGeometry y="199.23076923076908" width="280" height="71.15384615384629" as="geometry" />
        </mxCell>
        <mxCell id="rERk8T2in7XQwvnS--cO-25" value="Маркетинг и распространение фильтров" style="rounded=1;whiteSpace=wrap;html=1;fontSize=18;spacing=10;fillColor=#dae8fc;strokeColor=#6c8ebf;" vertex="1" parent="rERk8T2in7XQwvnS--cO-18">
          <mxGeometry y="298.84615384615455" width="280" height="71.15384615384629" as="geometry" />
        </mxCell>
        <mxCell id="rERk8T2in7XQwvnS--cO-26" value="" style="group" connectable="0" vertex="1" parent="1">
          <mxGeometry x="-1198.5" y="16790" width="280" height="380" as="geometry" />
        </mxCell>
        <mxCell id="rERk8T2in7XQwvnS--cO-27" style="edgeStyle=orthogonalEdgeStyle;rounded=0;orthogonalLoop=1;jettySize=auto;html=1;exitX=0.5;exitY=1;exitDx=0;exitDy=0;entryX=0.5;entryY=0;entryDx=0;entryDy=0;fillColor=#dae8fc;strokeColor=#6c8ebf;" edge="1" parent="rERk8T2in7XQwvnS--cO-26" source="rERk8T2in7XQwvnS--cO-28" target="rERk8T2in7XQwvnS--cO-30">
          <mxGeometry relative="1" as="geometry" />
        </mxCell>
        <mxCell id="rERk8T2in7XQwvnS--cO-28" value="Разработка API для взаимодействия с платформами" style="rounded=1;whiteSpace=wrap;html=1;fontSize=18;spacing=10;fillColor=#dae8fc;strokeColor=#6c8ebf;" vertex="1" parent="rERk8T2in7XQwvnS--cO-26">
          <mxGeometry width="280" height="73.07692307692307" as="geometry" />
        </mxCell>
        <mxCell id="rERk8T2in7XQwvnS--cO-29" style="edgeStyle=orthogonalEdgeStyle;rounded=0;orthogonalLoop=1;jettySize=auto;html=1;exitX=0.5;exitY=1;exitDx=0;exitDy=0;entryX=0.5;entryY=0;entryDx=0;entryDy=0;fillColor=#dae8fc;strokeColor=#6c8ebf;" edge="1" parent="rERk8T2in7XQwvnS--cO-26" source="rERk8T2in7XQwvnS--cO-30" target="rERk8T2in7XQwvnS--cO-32">
          <mxGeometry relative="1" as="geometry" />
        </mxCell>
        <mxCell id="rERk8T2in7XQwvnS--cO-30" value="Интеграция с мобильными и веб-платформами" style="rounded=1;whiteSpace=wrap;html=1;fontSize=18;spacing=10;fillColor=#dae8fc;strokeColor=#6c8ebf;" vertex="1" parent="rERk8T2in7XQwvnS--cO-26">
          <mxGeometry y="102.3076923076923" width="280" height="73.07692307692307" as="geometry" />
        </mxCell>
        <mxCell id="rERk8T2in7XQwvnS--cO-31" style="edgeStyle=orthogonalEdgeStyle;rounded=0;orthogonalLoop=1;jettySize=auto;html=1;exitX=0.5;exitY=1;exitDx=0;exitDy=0;entryX=0.5;entryY=0;entryDx=0;entryDy=0;fillColor=#dae8fc;strokeColor=#6c8ebf;" edge="1" parent="rERk8T2in7XQwvnS--cO-26" source="rERk8T2in7XQwvnS--cO-32" target="rERk8T2in7XQwvnS--cO-33">
          <mxGeometry relative="1" as="geometry" />
        </mxCell>
        <mxCell id="rERk8T2in7XQwvnS--cO-32" value="Поддержка устройств с различными характеристиками" style="rounded=1;whiteSpace=wrap;html=1;fontSize=18;spacing=10;fillColor=#dae8fc;strokeColor=#6c8ebf;" vertex="1" parent="rERk8T2in7XQwvnS--cO-26">
          <mxGeometry y="204.6153846153846" width="280" height="73.07692307692307" as="geometry" />
        </mxCell>
        <mxCell id="rERk8T2in7XQwvnS--cO-33" value="Интеграция с аналитическими системами" style="rounded=1;whiteSpace=wrap;html=1;fontSize=18;spacing=10;fillColor=#dae8fc;strokeColor=#6c8ebf;" vertex="1" parent="rERk8T2in7XQwvnS--cO-26">
          <mxGeometry y="306.9230769230769" width="280" height="73.07692307692307" as="geometry" />
        </mxCell>
        <mxCell id="rERk8T2in7XQwvnS--cO-34" value="" style="group" connectable="0" vertex="1" parent="1">
          <mxGeometry x="-373.5" y="16790" width="280" height="380" as="geometry" />
        </mxCell>
        <mxCell id="rERk8T2in7XQwvnS--cO-35" style="edgeStyle=orthogonalEdgeStyle;rounded=0;orthogonalLoop=1;jettySize=auto;html=1;exitX=0.5;exitY=1;exitDx=0;exitDy=0;entryX=0.5;entryY=0;entryDx=0;entryDy=0;fillColor=#dae8fc;strokeColor=#6c8ebf;" edge="1" parent="rERk8T2in7XQwvnS--cO-34" source="rERk8T2in7XQwvnS--cO-36" target="rERk8T2in7XQwvnS--cO-38">
          <mxGeometry relative="1" as="geometry" />
        </mxCell>
        <mxCell id="rERk8T2in7XQwvnS--cO-36" value="Проведение A/B тестирования" style="rounded=1;whiteSpace=wrap;html=1;fontSize=18;spacing=10;fillColor=#dae8fc;strokeColor=#6c8ebf;" vertex="1" parent="rERk8T2in7XQwvnS--cO-34">
          <mxGeometry width="280" height="73.07692307692307" as="geometry" />
        </mxCell>
        <mxCell id="rERk8T2in7XQwvnS--cO-37" style="edgeStyle=orthogonalEdgeStyle;rounded=0;orthogonalLoop=1;jettySize=auto;html=1;exitX=0.5;exitY=1;exitDx=0;exitDy=0;entryX=0.5;entryY=0;entryDx=0;entryDy=0;fillColor=#dae8fc;strokeColor=#6c8ebf;" edge="1" parent="rERk8T2in7XQwvnS--cO-34" source="rERk8T2in7XQwvnS--cO-38" target="rERk8T2in7XQwvnS--cO-40">
          <mxGeometry relative="1" as="geometry" />
        </mxCell>
        <mxCell id="rERk8T2in7XQwvnS--cO-38" value="Тестирование на различных устройствах" style="rounded=1;whiteSpace=wrap;html=1;fontSize=18;spacing=10;fillColor=#dae8fc;strokeColor=#6c8ebf;" vertex="1" parent="rERk8T2in7XQwvnS--cO-34">
          <mxGeometry y="102.3076923076923" width="280" height="73.07692307692307" as="geometry" />
        </mxCell>
        <mxCell id="rERk8T2in7XQwvnS--cO-39" style="edgeStyle=orthogonalEdgeStyle;rounded=0;orthogonalLoop=1;jettySize=auto;html=1;exitX=0.5;exitY=1;exitDx=0;exitDy=0;entryX=0.5;entryY=0;entryDx=0;entryDy=0;fillColor=#dae8fc;strokeColor=#6c8ebf;" edge="1" parent="rERk8T2in7XQwvnS--cO-34" source="rERk8T2in7XQwvnS--cO-40" target="rERk8T2in7XQwvnS--cO-41">
          <mxGeometry relative="1" as="geometry" />
        </mxCell>
        <mxCell id="rERk8T2in7XQwvnS--cO-40" value="Оптимизация контента и производительности" style="rounded=1;whiteSpace=wrap;html=1;fontSize=18;spacing=10;fillColor=#dae8fc;strokeColor=#6c8ebf;" vertex="1" parent="rERk8T2in7XQwvnS--cO-34">
          <mxGeometry y="204.6153846153846" width="280" height="73.07692307692307" as="geometry" />
        </mxCell>
        <mxCell id="rERk8T2in7XQwvnS--cO-41" value="Сбор обратной связи и улучшение UX" style="rounded=1;whiteSpace=wrap;html=1;fontSize=18;spacing=10;fillColor=#dae8fc;strokeColor=#6c8ebf;" vertex="1" parent="rERk8T2in7XQwvnS--cO-34">
          <mxGeometry y="306.9230769230769" width="280" height="73.07692307692307" as="geometry" />
        </mxCell>
        <mxCell id="rERk8T2in7XQwvnS--cO-42" value="Интеграция функций обмена и сохранения" style="rounded=1;whiteSpace=wrap;html=1;fontSize=18;spacing=10;fillColor=#dae8fc;strokeColor=#6c8ebf;" vertex="1" parent="1">
          <mxGeometry x="-1203.5" y="16630" width="285" height="70.76923076923077" as="geometry" />
        </mxCell>
        <mxCell id="rERk8T2in7XQwvnS--cO-43" value="" style="edgeStyle=orthogonalEdgeStyle;rounded=0;orthogonalLoop=1;jettySize=auto;html=1;" edge="1" parent="1" source="rERk8T2in7XQwvnS--cO-17" target="rERk8T2in7XQwvnS--cO-42">
          <mxGeometry relative="1" as="geometry" />
        </mxCell>
        <mxCell id="rERk8T2in7XQwvnS--cO-11" style="edgeStyle=orthogonalEdgeStyle;rounded=0;orthogonalLoop=1;jettySize=auto;html=1;exitX=0.5;exitY=1;exitDx=0;exitDy=0;entryX=0.5;entryY=0;entryDx=0;entryDy=0;fillColor=#dae8fc;strokeColor=#6c8ebf;" edge="1" parent="1" source="rERk8T2in7XQwvnS--cO-12" target="rERk8T2in7XQwvnS--cO-14">
          <mxGeometry relative="1" as="geometry" />
        </mxCell>
        <mxCell id="rERk8T2in7XQwvnS--cO-12" value="Определение целей и функциональности" style="rounded=1;whiteSpace=wrap;html=1;fontSize=18;spacing=10;fillColor=#dae8fc;strokeColor=#6c8ebf;" vertex="1" parent="1">
          <mxGeometry x="-1203.5" y="16230" width="285" height="70.06153846153848" as="geometry" />
        </mxCell>
        <mxCell id="rERk8T2in7XQwvnS--cO-13" style="edgeStyle=orthogonalEdgeStyle;rounded=0;orthogonalLoop=1;jettySize=auto;html=1;exitX=0.5;exitY=1;exitDx=0;exitDy=0;entryX=0.5;entryY=0;entryDx=0;entryDy=0;fillColor=#dae8fc;strokeColor=#6c8ebf;" edge="1" parent="1" source="rERk8T2in7XQwvnS--cO-14" target="rERk8T2in7XQwvnS--cO-16">
          <mxGeometry relative="1" as="geometry" />
        </mxCell>
        <mxCell id="rERk8T2in7XQwvnS--cO-14" value="Разработка системы распознавания и трекинга" style="rounded=1;whiteSpace=wrap;html=1;fontSize=18;spacing=10;fillColor=#dae8fc;strokeColor=#6c8ebf;" vertex="1" parent="1">
          <mxGeometry x="-1203.5" y="16329.076923076922" width="285" height="70.76923076923077" as="geometry" />
        </mxCell>
        <mxCell id="rERk8T2in7XQwvnS--cO-15" style="edgeStyle=orthogonalEdgeStyle;rounded=0;orthogonalLoop=1;jettySize=auto;html=1;exitX=0.5;exitY=1;exitDx=0;exitDy=0;entryX=0.5;entryY=0;entryDx=0;entryDy=0;fillColor=#dae8fc;strokeColor=#6c8ebf;" edge="1" parent="1" source="rERk8T2in7XQwvnS--cO-16" target="rERk8T2in7XQwvnS--cO-17">
          <mxGeometry relative="1" as="geometry" />
        </mxCell>
        <mxCell id="rERk8T2in7XQwvnS--cO-16" value="Создание 3D моделей товаров" style="rounded=1;whiteSpace=wrap;html=1;fontSize=18;spacing=10;fillColor=#dae8fc;strokeColor=#6c8ebf;" vertex="1" parent="1">
          <mxGeometry x="-1203.5" y="16428.153846153844" width="285" height="70.76923076923077" as="geometry" />
        </mxCell>
        <mxCell id="rERk8T2in7XQwvnS--cO-17" value="Разработка интерфейса приложения" style="rounded=1;whiteSpace=wrap;html=1;fontSize=18;spacing=10;fillColor=#dae8fc;strokeColor=#6c8ebf;" vertex="1" parent="1">
          <mxGeometry x="-1203.5" y="16527.23076923077" width="285" height="70.76923076923077" as="geometry" />
        </mxCell>
        <mxCell id="UJ0QD7eHcFYjB-y_53Ms-1" value="Big Data. Работа с данными" style="rounded=0;whiteSpace=wrap;html=1;fontColor=#333333;fontSize=23;fillColor=#f5f5f5;strokeColor=#666666;" vertex="1" parent="1">
          <mxGeometry x="-1127.5" y="17360" width="570" height="120" as="geometry" />
        </mxCell>
        <mxCell id="UJ0QD7eHcFYjB-y_53Ms-2" style="edgeStyle=orthogonalEdgeStyle;rounded=0;orthogonalLoop=1;jettySize=auto;html=1;entryX=0;entryY=0.5;entryDx=0;entryDy=0;" edge="1" parent="1" source="UJ0QD7eHcFYjB-y_53Ms-3" target="UJ0QD7eHcFYjB-y_53Ms-12">
          <mxGeometry relative="1" as="geometry" />
        </mxCell>
        <mxCell id="UJ0QD7eHcFYjB-y_53Ms-3" value="Развертывание инфраструктуры Apache Hadoop и Spark" style="rounded=1;whiteSpace=wrap;html=1;fontSize=20;fillColor=#d5e8d4;strokeColor=#82b366;spacing=10;" vertex="1" parent="1">
          <mxGeometry x="-1602" y="17688" width="280" height="152" as="geometry" />
        </mxCell>
        <mxCell id="UJ0QD7eHcFYjB-y_53Ms-4" style="edgeStyle=orthogonalEdgeStyle;rounded=0;orthogonalLoop=1;jettySize=auto;html=1;entryX=0;entryY=0.5;entryDx=0;entryDy=0;" edge="1" parent="1" source="UJ0QD7eHcFYjB-y_53Ms-5" target="UJ0QD7eHcFYjB-y_53Ms-20">
          <mxGeometry relative="1" as="geometry" />
        </mxCell>
        <mxCell id="UJ0QD7eHcFYjB-y_53Ms-5" value="Сегментация баз данных по типам, функциональности и уровням доступа" style="rounded=1;whiteSpace=wrap;html=1;fontSize=20;fillColor=#d5e8d4;strokeColor=#82b366;spacing=10;" vertex="1" parent="1">
          <mxGeometry x="-774.5" y="17699" width="280" height="152" as="geometry" />
        </mxCell>
        <mxCell id="UJ0QD7eHcFYjB-y_53Ms-6" style="edgeStyle=orthogonalEdgeStyle;rounded=0;orthogonalLoop=1;jettySize=auto;html=1;entryX=0;entryY=0.5;entryDx=0;entryDy=0;" edge="1" parent="1" source="UJ0QD7eHcFYjB-y_53Ms-7" target="UJ0QD7eHcFYjB-y_53Ms-28">
          <mxGeometry relative="1" as="geometry" />
        </mxCell>
        <mxCell id="UJ0QD7eHcFYjB-y_53Ms-7" value="Реализация горизонтального масштабирования БД" style="rounded=1;whiteSpace=wrap;html=1;fontSize=20;fillColor=#d5e8d4;strokeColor=#82b366;spacing=10;" vertex="1" parent="1">
          <mxGeometry x="-1599.5" y="18199" width="280" height="152" as="geometry" />
        </mxCell>
        <mxCell id="UJ0QD7eHcFYjB-y_53Ms-8" style="edgeStyle=orthogonalEdgeStyle;rounded=0;orthogonalLoop=1;jettySize=auto;html=1;entryX=0;entryY=0.5;entryDx=0;entryDy=0;" edge="1" parent="1" source="UJ0QD7eHcFYjB-y_53Ms-9" target="UJ0QD7eHcFYjB-y_53Ms-36">
          <mxGeometry relative="1" as="geometry" />
        </mxCell>
        <mxCell id="UJ0QD7eHcFYjB-y_53Ms-9" value="Разработка системы аналитики и отчетности" style="rounded=1;whiteSpace=wrap;html=1;fontSize=20;fillColor=#d5e8d4;strokeColor=#82b366;spacing=10;" vertex="1" parent="1">
          <mxGeometry x="-774.5" y="18199" width="280" height="152" as="geometry" />
        </mxCell>
        <mxCell id="UJ0QD7eHcFYjB-y_53Ms-10" value="Определение источников данных" style="group" connectable="0" vertex="1" parent="1">
          <mxGeometry x="-1202" y="17560" width="285" height="368" as="geometry" />
        </mxCell>
        <mxCell id="UJ0QD7eHcFYjB-y_53Ms-11" style="edgeStyle=orthogonalEdgeStyle;rounded=0;orthogonalLoop=1;jettySize=auto;html=1;exitX=0.5;exitY=1;exitDx=0;exitDy=0;entryX=0.5;entryY=0;entryDx=0;entryDy=0;fillColor=#dae8fc;strokeColor=#6c8ebf;" edge="1" parent="UJ0QD7eHcFYjB-y_53Ms-10" source="UJ0QD7eHcFYjB-y_53Ms-12" target="UJ0QD7eHcFYjB-y_53Ms-14">
          <mxGeometry relative="1" as="geometry" />
        </mxCell>
        <mxCell id="UJ0QD7eHcFYjB-y_53Ms-12" value="Анализ требований к инфраструктуре" style="rounded=1;whiteSpace=wrap;html=1;fontSize=18;spacing=10;fillColor=#dae8fc;strokeColor=#6c8ebf;" vertex="1" parent="UJ0QD7eHcFYjB-y_53Ms-10">
          <mxGeometry width="285" height="70.06153846153848" as="geometry" />
        </mxCell>
        <mxCell id="UJ0QD7eHcFYjB-y_53Ms-13" style="edgeStyle=orthogonalEdgeStyle;rounded=0;orthogonalLoop=1;jettySize=auto;html=1;exitX=0.5;exitY=1;exitDx=0;exitDy=0;entryX=0.5;entryY=0;entryDx=0;entryDy=0;fillColor=#dae8fc;strokeColor=#6c8ebf;" edge="1" parent="UJ0QD7eHcFYjB-y_53Ms-10" source="UJ0QD7eHcFYjB-y_53Ms-14" target="UJ0QD7eHcFYjB-y_53Ms-16">
          <mxGeometry relative="1" as="geometry" />
        </mxCell>
        <mxCell id="UJ0QD7eHcFYjB-y_53Ms-14" value="Развертывание Hadoop-кластера" style="rounded=1;whiteSpace=wrap;html=1;fontSize=18;spacing=10;fillColor=#dae8fc;strokeColor=#6c8ebf;" vertex="1" parent="UJ0QD7eHcFYjB-y_53Ms-10">
          <mxGeometry y="99.0769230769231" width="285" height="70.76923076923077" as="geometry" />
        </mxCell>
        <mxCell id="UJ0QD7eHcFYjB-y_53Ms-15" style="edgeStyle=orthogonalEdgeStyle;rounded=0;orthogonalLoop=1;jettySize=auto;html=1;exitX=0.5;exitY=1;exitDx=0;exitDy=0;entryX=0.5;entryY=0;entryDx=0;entryDy=0;fillColor=#dae8fc;strokeColor=#6c8ebf;" edge="1" parent="UJ0QD7eHcFYjB-y_53Ms-10" source="UJ0QD7eHcFYjB-y_53Ms-16" target="UJ0QD7eHcFYjB-y_53Ms-17">
          <mxGeometry relative="1" as="geometry" />
        </mxCell>
        <mxCell id="UJ0QD7eHcFYjB-y_53Ms-16" value="Развертывание Spark для обработки данных в реальном времени" style="rounded=1;whiteSpace=wrap;html=1;fontSize=18;spacing=10;fillColor=#dae8fc;strokeColor=#6c8ebf;" vertex="1" parent="UJ0QD7eHcFYjB-y_53Ms-10">
          <mxGeometry y="198.1538461538462" width="285" height="70.76923076923077" as="geometry" />
        </mxCell>
        <mxCell id="UJ0QD7eHcFYjB-y_53Ms-17" value="Оптимизация производительности кластера" style="rounded=1;whiteSpace=wrap;html=1;fontSize=18;spacing=10;fillColor=#dae8fc;strokeColor=#6c8ebf;" vertex="1" parent="UJ0QD7eHcFYjB-y_53Ms-10">
          <mxGeometry y="297.2307692307693" width="285" height="70.76923076923077" as="geometry" />
        </mxCell>
        <mxCell id="UJ0QD7eHcFYjB-y_53Ms-18" value="" style="group" connectable="0" vertex="1" parent="1">
          <mxGeometry x="-372" y="17560" width="280" height="370" as="geometry" />
        </mxCell>
        <mxCell id="UJ0QD7eHcFYjB-y_53Ms-19" style="edgeStyle=orthogonalEdgeStyle;rounded=0;orthogonalLoop=1;jettySize=auto;html=1;exitX=0.5;exitY=1;exitDx=0;exitDy=0;entryX=0.5;entryY=0;entryDx=0;entryDy=0;fillColor=#dae8fc;strokeColor=#6c8ebf;" edge="1" parent="UJ0QD7eHcFYjB-y_53Ms-18" source="UJ0QD7eHcFYjB-y_53Ms-20" target="UJ0QD7eHcFYjB-y_53Ms-22">
          <mxGeometry relative="1" as="geometry" />
        </mxCell>
        <mxCell id="UJ0QD7eHcFYjB-y_53Ms-20" value="Классификация данных по типам" style="rounded=1;whiteSpace=wrap;html=1;fontSize=18;spacing=10;fillColor=#dae8fc;strokeColor=#6c8ebf;" vertex="1" parent="UJ0QD7eHcFYjB-y_53Ms-18">
          <mxGeometry width="280" height="71.15384615384629" as="geometry" />
        </mxCell>
        <mxCell id="UJ0QD7eHcFYjB-y_53Ms-21" style="edgeStyle=orthogonalEdgeStyle;rounded=0;orthogonalLoop=1;jettySize=auto;html=1;exitX=0.5;exitY=1;exitDx=0;exitDy=0;entryX=0.5;entryY=0;entryDx=0;entryDy=0;fillColor=#dae8fc;strokeColor=#6c8ebf;" edge="1" parent="UJ0QD7eHcFYjB-y_53Ms-18" source="UJ0QD7eHcFYjB-y_53Ms-22" target="UJ0QD7eHcFYjB-y_53Ms-24">
          <mxGeometry relative="1" as="geometry" />
        </mxCell>
        <mxCell id="UJ0QD7eHcFYjB-y_53Ms-22" value="Разделение данных по функциональности" style="rounded=1;whiteSpace=wrap;html=1;fontSize=18;spacing=10;fillColor=#dae8fc;strokeColor=#6c8ebf;" vertex="1" parent="UJ0QD7eHcFYjB-y_53Ms-18">
          <mxGeometry y="99.61538461538545" width="280" height="71.15384615384629" as="geometry" />
        </mxCell>
        <mxCell id="UJ0QD7eHcFYjB-y_53Ms-23" style="edgeStyle=orthogonalEdgeStyle;rounded=0;orthogonalLoop=1;jettySize=auto;html=1;exitX=0.5;exitY=1;exitDx=0;exitDy=0;entryX=0.5;entryY=0;entryDx=0;entryDy=0;fillColor=#dae8fc;strokeColor=#6c8ebf;" edge="1" parent="UJ0QD7eHcFYjB-y_53Ms-18" source="UJ0QD7eHcFYjB-y_53Ms-24" target="UJ0QD7eHcFYjB-y_53Ms-25">
          <mxGeometry relative="1" as="geometry" />
        </mxCell>
        <mxCell id="UJ0QD7eHcFYjB-y_53Ms-24" value="Определение уровней доступа" style="rounded=1;whiteSpace=wrap;html=1;fontSize=18;spacing=10;fillColor=#dae8fc;strokeColor=#6c8ebf;" vertex="1" parent="UJ0QD7eHcFYjB-y_53Ms-18">
          <mxGeometry y="199.23076923076908" width="280" height="71.15384615384629" as="geometry" />
        </mxCell>
        <mxCell id="UJ0QD7eHcFYjB-y_53Ms-25" value="Настройка системы управления данными" style="rounded=1;whiteSpace=wrap;html=1;fontSize=18;spacing=10;fillColor=#dae8fc;strokeColor=#6c8ebf;" vertex="1" parent="UJ0QD7eHcFYjB-y_53Ms-18">
          <mxGeometry y="298.84615384615455" width="280" height="71.15384615384629" as="geometry" />
        </mxCell>
        <mxCell id="UJ0QD7eHcFYjB-y_53Ms-26" value="" style="group" connectable="0" vertex="1" parent="1">
          <mxGeometry x="-1197" y="18060" width="280" height="380" as="geometry" />
        </mxCell>
        <mxCell id="UJ0QD7eHcFYjB-y_53Ms-27" style="edgeStyle=orthogonalEdgeStyle;rounded=0;orthogonalLoop=1;jettySize=auto;html=1;exitX=0.5;exitY=1;exitDx=0;exitDy=0;entryX=0.5;entryY=0;entryDx=0;entryDy=0;fillColor=#dae8fc;strokeColor=#6c8ebf;" edge="1" parent="UJ0QD7eHcFYjB-y_53Ms-26" source="UJ0QD7eHcFYjB-y_53Ms-28" target="UJ0QD7eHcFYjB-y_53Ms-30">
          <mxGeometry relative="1" as="geometry" />
        </mxCell>
        <mxCell id="UJ0QD7eHcFYjB-y_53Ms-28" value="Определение стратегии масштабирования" style="rounded=1;whiteSpace=wrap;html=1;fontSize=18;spacing=10;fillColor=#dae8fc;strokeColor=#6c8ebf;" vertex="1" parent="UJ0QD7eHcFYjB-y_53Ms-26">
          <mxGeometry width="280" height="73.07692307692307" as="geometry" />
        </mxCell>
        <mxCell id="UJ0QD7eHcFYjB-y_53Ms-29" style="edgeStyle=orthogonalEdgeStyle;rounded=0;orthogonalLoop=1;jettySize=auto;html=1;exitX=0.5;exitY=1;exitDx=0;exitDy=0;entryX=0.5;entryY=0;entryDx=0;entryDy=0;fillColor=#dae8fc;strokeColor=#6c8ebf;" edge="1" parent="UJ0QD7eHcFYjB-y_53Ms-26" source="UJ0QD7eHcFYjB-y_53Ms-30" target="UJ0QD7eHcFYjB-y_53Ms-32">
          <mxGeometry relative="1" as="geometry" />
        </mxCell>
        <mxCell id="UJ0QD7eHcFYjB-y_53Ms-30" value="Шардирование данных" style="rounded=1;whiteSpace=wrap;html=1;fontSize=18;spacing=10;fillColor=#dae8fc;strokeColor=#6c8ebf;" vertex="1" parent="UJ0QD7eHcFYjB-y_53Ms-26">
          <mxGeometry y="102.3076923076923" width="280" height="73.07692307692307" as="geometry" />
        </mxCell>
        <mxCell id="UJ0QD7eHcFYjB-y_53Ms-31" style="edgeStyle=orthogonalEdgeStyle;rounded=0;orthogonalLoop=1;jettySize=auto;html=1;exitX=0.5;exitY=1;exitDx=0;exitDy=0;entryX=0.5;entryY=0;entryDx=0;entryDy=0;fillColor=#dae8fc;strokeColor=#6c8ebf;" edge="1" parent="UJ0QD7eHcFYjB-y_53Ms-26" source="UJ0QD7eHcFYjB-y_53Ms-32" target="UJ0QD7eHcFYjB-y_53Ms-33">
          <mxGeometry relative="1" as="geometry" />
        </mxCell>
        <mxCell id="UJ0QD7eHcFYjB-y_53Ms-32" value="Настройка отказоустойчивости и репликации" style="rounded=1;whiteSpace=wrap;html=1;fontSize=18;spacing=10;fillColor=#dae8fc;strokeColor=#6c8ebf;" vertex="1" parent="UJ0QD7eHcFYjB-y_53Ms-26">
          <mxGeometry y="204.6153846153846" width="280" height="73.07692307692307" as="geometry" />
        </mxCell>
        <mxCell id="UJ0QD7eHcFYjB-y_53Ms-33" value="Обеспечение масштабируемости запросов" style="rounded=1;whiteSpace=wrap;html=1;fontSize=18;spacing=10;fillColor=#dae8fc;strokeColor=#6c8ebf;" vertex="1" parent="UJ0QD7eHcFYjB-y_53Ms-26">
          <mxGeometry y="306.9230769230769" width="280" height="73.07692307692307" as="geometry" />
        </mxCell>
        <mxCell id="UJ0QD7eHcFYjB-y_53Ms-34" value="" style="group" connectable="0" vertex="1" parent="1">
          <mxGeometry x="-372" y="18060" width="280" height="380" as="geometry" />
        </mxCell>
        <mxCell id="UJ0QD7eHcFYjB-y_53Ms-35" style="edgeStyle=orthogonalEdgeStyle;rounded=0;orthogonalLoop=1;jettySize=auto;html=1;exitX=0.5;exitY=1;exitDx=0;exitDy=0;entryX=0.5;entryY=0;entryDx=0;entryDy=0;fillColor=#dae8fc;strokeColor=#6c8ebf;" edge="1" parent="UJ0QD7eHcFYjB-y_53Ms-34" source="UJ0QD7eHcFYjB-y_53Ms-36" target="UJ0QD7eHcFYjB-y_53Ms-38">
          <mxGeometry relative="1" as="geometry" />
        </mxCell>
        <mxCell id="UJ0QD7eHcFYjB-y_53Ms-36" value="Создание архитектуры аналитической системы" style="rounded=1;whiteSpace=wrap;html=1;fontSize=18;spacing=10;fillColor=#dae8fc;strokeColor=#6c8ebf;" vertex="1" parent="UJ0QD7eHcFYjB-y_53Ms-34">
          <mxGeometry width="280" height="73.07692307692307" as="geometry" />
        </mxCell>
        <mxCell id="UJ0QD7eHcFYjB-y_53Ms-37" style="edgeStyle=orthogonalEdgeStyle;rounded=0;orthogonalLoop=1;jettySize=auto;html=1;exitX=0.5;exitY=1;exitDx=0;exitDy=0;entryX=0.5;entryY=0;entryDx=0;entryDy=0;fillColor=#dae8fc;strokeColor=#6c8ebf;" edge="1" parent="UJ0QD7eHcFYjB-y_53Ms-34" source="UJ0QD7eHcFYjB-y_53Ms-38" target="UJ0QD7eHcFYjB-y_53Ms-40">
          <mxGeometry relative="1" as="geometry" />
        </mxCell>
        <mxCell id="UJ0QD7eHcFYjB-y_53Ms-38" value="Интеграция с инструментами аналитики" style="rounded=1;whiteSpace=wrap;html=1;fontSize=18;spacing=10;fillColor=#dae8fc;strokeColor=#6c8ebf;" vertex="1" parent="UJ0QD7eHcFYjB-y_53Ms-34">
          <mxGeometry y="102.3076923076923" width="280" height="73.07692307692307" as="geometry" />
        </mxCell>
        <mxCell id="UJ0QD7eHcFYjB-y_53Ms-39" style="edgeStyle=orthogonalEdgeStyle;rounded=0;orthogonalLoop=1;jettySize=auto;html=1;exitX=0.5;exitY=1;exitDx=0;exitDy=0;entryX=0.5;entryY=0;entryDx=0;entryDy=0;fillColor=#dae8fc;strokeColor=#6c8ebf;" edge="1" parent="UJ0QD7eHcFYjB-y_53Ms-34" source="UJ0QD7eHcFYjB-y_53Ms-40" target="UJ0QD7eHcFYjB-y_53Ms-41">
          <mxGeometry relative="1" as="geometry" />
        </mxCell>
        <mxCell id="UJ0QD7eHcFYjB-y_53Ms-40" value="Настройка системы отчетности" style="rounded=1;whiteSpace=wrap;html=1;fontSize=18;spacing=10;fillColor=#dae8fc;strokeColor=#6c8ebf;" vertex="1" parent="UJ0QD7eHcFYjB-y_53Ms-34">
          <mxGeometry y="204.6153846153846" width="280" height="73.07692307692307" as="geometry" />
        </mxCell>
        <mxCell id="UJ0QD7eHcFYjB-y_53Ms-41" value="Обеспечение точности и актуальности данных" style="rounded=1;whiteSpace=wrap;html=1;fontSize=18;spacing=10;fillColor=#dae8fc;strokeColor=#6c8ebf;" vertex="1" parent="UJ0QD7eHcFYjB-y_53Ms-34">
          <mxGeometry y="306.9230769230769" width="280" height="73.07692307692307" as="geometry" />
        </mxCell>
        <mxCell id="uPucqMi6J45Dig3Tjr-i-1" value="&lt;font style=&quot;font-size: 36px;&quot;&gt;Основные функциональные вопросы&lt;/font&gt;" style="rounded=0;whiteSpace=wrap;html=1;" vertex="1" parent="1">
          <mxGeometry x="-1046.25" y="11620" width="570" height="120" as="geometry" />
        </mxCell>
        <mxCell id="uPucqMi6J45Dig3Tjr-i-2" value="&lt;font style=&quot;font-size: 36px;&quot;&gt;Оценка сроков реализации&lt;/font&gt;&lt;font color=&quot;#999999&quot;&gt;&quot;)&lt;/font&gt;" style="rounded=0;whiteSpace=wrap;html=1;" vertex="1" parent="1">
          <mxGeometry x="-843.75" y="10010" width="770" height="120" as="geometry" />
        </mxCell>
        <mxCell id="uPucqMi6J45Dig3Tjr-i-3" value="" style="exitX=0.5;exitY=1;exitDx=0;exitDy=0;entryX=0.5;entryY=0;entryDx=0;entryDy=0;" edge="1" parent="1" source="uPucqMi6J45Dig3Tjr-i-37" target="uPucqMi6J45Dig3Tjr-i-81">
          <mxGeometry relative="1" as="geometry">
            <mxPoint x="-446.25" y="10460" as="sourcePoint" />
            <mxPoint x="-451.25" y="10480" as="targetPoint" />
          </mxGeometry>
        </mxCell>
        <mxCell id="uPucqMi6J45Dig3Tjr-i-4" value="&lt;font style=&quot;font-size: 36px;&quot;&gt;Участники&lt;/font&gt;" style="rounded=0;whiteSpace=wrap;html=1;" vertex="1" parent="1">
          <mxGeometry x="-1586.25" y="10010" width="570" height="120" as="geometry" />
        </mxCell>
        <mxCell id="uPucqMi6J45Dig3Tjr-i-5" value="Начало" style="ellipse;whiteSpace=wrap;html=1;labelBackgroundColor=none;fillColor=#dae8fc;strokeColor=#6c8ebf;" vertex="1" parent="1">
          <mxGeometry x="-353.75" y="11785" width="80" height="40" as="geometry" />
        </mxCell>
        <mxCell id="uPucqMi6J45Dig3Tjr-i-6" value="Внедрение в систему: 26 часов" style="rounded=1;whiteSpace=wrap;html=1;fillColor=#f5f5f5;fontColor=#333333;strokeColor=#666666;" vertex="1" parent="1">
          <mxGeometry x="-551.25" y="10850" width="200" height="60" as="geometry" />
        </mxCell>
        <mxCell id="uPucqMi6J45Dig3Tjr-i-7" style="exitX=0.5;exitY=1;exitDx=0;exitDy=0;entryX=0.5;entryY=0;entryDx=0;entryDy=0;" edge="1" parent="1" source="uPucqMi6J45Dig3Tjr-i-6" target="uPucqMi6J45Dig3Tjr-i-42">
          <mxGeometry relative="1" as="geometry">
            <mxPoint x="-441.25" y="10570" as="sourcePoint" />
            <mxPoint x="-441.25" y="10600" as="targetPoint" />
          </mxGeometry>
        </mxCell>
        <mxCell id="uPucqMi6J45Dig3Tjr-i-8" value="Настраиваем рекламу: бюджет, выбираем товары и т.д." style="rounded=1;whiteSpace=wrap;html=1;labelBackgroundColor=none;fillColor=#dae8fc;strokeColor=#6c8ebf;" vertex="1" parent="1">
          <mxGeometry x="-353.75" y="11965" width="200" height="60" as="geometry" />
        </mxCell>
        <mxCell id="uPucqMi6J45Dig3Tjr-i-9" value="Маркетинг: получаем медиа и контент рекламного блока" style="rounded=1;whiteSpace=wrap;html=1;labelBackgroundColor=none;fillColor=#dae8fc;strokeColor=#6c8ebf;" vertex="1" parent="1">
          <mxGeometry x="-1181.25" y="11870" width="200" height="60" as="geometry" />
        </mxCell>
        <mxCell id="uPucqMi6J45Dig3Tjr-i-10" style="edgeStyle=elbowEdgeStyle;elbow=horizontal;rounded=0;entryX=0.479;entryY=0.007;entryDx=0;entryDy=0;entryPerimeter=0;" edge="1" parent="1" target="uPucqMi6J45Dig3Tjr-i-58">
          <mxGeometry relative="1" as="geometry">
            <mxPoint x="-1302.25" y="10340" as="sourcePoint" />
            <mxPoint x="-1302.25" y="10398" as="targetPoint" />
            <Array as="points">
              <mxPoint x="-1302.25" y="10315" />
              <mxPoint x="-1162.25" y="10380" />
            </Array>
          </mxGeometry>
        </mxCell>
        <mxCell id="uPucqMi6J45Dig3Tjr-i-11" value="Запускаем рекламную компанию" style="rounded=1;whiteSpace=wrap;html=1;labelBackgroundColor=none;fillColor=#dae8fc;strokeColor=#6c8ebf;" vertex="1" parent="1">
          <mxGeometry x="-353.75" y="12065" width="200" height="60" as="geometry" />
        </mxCell>
        <mxCell id="uPucqMi6J45Dig3Tjr-i-12" value="Формируем имеющийся компонент рекламного блока" style="rounded=1;whiteSpace=wrap;html=1;labelBackgroundColor=none;fillColor=#dae8fc;strokeColor=#6c8ebf;" vertex="1" parent="1">
          <mxGeometry x="-1181.25" y="11970" width="200" height="60" as="geometry" />
        </mxCell>
        <mxCell id="uPucqMi6J45Dig3Tjr-i-13" value="Frontend-разработчик" style="rounded=1;whiteSpace=wrap;html=1;fillColor=#C9DAF8;" vertex="1" parent="1">
          <mxGeometry x="-1626.25" y="10415" width="200" height="60" as="geometry" />
        </mxCell>
        <mxCell id="uPucqMi6J45Dig3Tjr-i-14" value="Отображем рекламный блок" style="rounded=1;whiteSpace=wrap;html=1;labelBackgroundColor=none;fillColor=#dae8fc;strokeColor=#6c8ebf;" vertex="1" parent="1">
          <mxGeometry x="-353.75" y="12165" width="200" height="60" as="geometry" />
        </mxCell>
        <mxCell id="uPucqMi6J45Dig3Tjr-i-15" value="Отображем блок" style="rounded=1;whiteSpace=wrap;html=1;labelBackgroundColor=none;fillColor=#dae8fc;strokeColor=#6c8ebf;" vertex="1" parent="1">
          <mxGeometry x="-1181.25" y="12070" width="200" height="60" as="geometry" />
        </mxCell>
        <mxCell id="uPucqMi6J45Dig3Tjr-i-16" style="edgeStyle=elbowEdgeStyle;elbow=horizontal;rounded=0;exitX=1;exitY=0.5;exitDx=0;exitDy=0;" edge="1" parent="1" source="uPucqMi6J45Dig3Tjr-i-56">
          <mxGeometry relative="1" as="geometry">
            <mxPoint x="-1155.25" y="10320" as="sourcePoint" />
            <mxPoint x="-1096.25" y="10415" as="targetPoint" />
            <Array as="points">
              <mxPoint x="-1096.25" y="10360" />
              <mxPoint x="-1015.25" y="10360" />
            </Array>
          </mxGeometry>
        </mxCell>
        <mxCell id="uPucqMi6J45Dig3Tjr-i-17" value="Конец" style="ellipse;whiteSpace=wrap;html=1;labelBackgroundColor=none;fillColor=#dae8fc;strokeColor=#6c8ebf;" vertex="1" parent="1">
          <mxGeometry x="-353.75" y="12265" width="80" height="40" as="geometry" />
        </mxCell>
        <mxCell id="uPucqMi6J45Dig3Tjr-i-18" value="Конец" style="ellipse;whiteSpace=wrap;html=1;labelBackgroundColor=none;fillColor=#dae8fc;strokeColor=#6c8ebf;" vertex="1" parent="1">
          <mxGeometry x="-1181.25" y="12170" width="80" height="40" as="geometry" />
        </mxCell>
        <mxCell id="uPucqMi6J45Dig3Tjr-i-19" value="" style="endArrow=classic;startArrow=classic;html=1;rounded=0;entryX=0;entryY=0.5;entryDx=0;entryDy=0;exitX=1;exitY=0.5;exitDx=0;exitDy=0;" edge="1" parent="1" source="uPucqMi6J45Dig3Tjr-i-58" target="uPucqMi6J45Dig3Tjr-i-60">
          <mxGeometry width="50" height="50" relative="1" as="geometry">
            <mxPoint x="-1206.25" y="10510" as="sourcePoint" />
            <mxPoint x="-1156.25" y="10460" as="targetPoint" />
          </mxGeometry>
        </mxCell>
        <mxCell id="uPucqMi6J45Dig3Tjr-i-20" style="labelBackgroundColor=none;fontColor=default;fillColor=#dae8fc;strokeColor=#6c8ebf;" edge="1" parent="1" source="uPucqMi6J45Dig3Tjr-i-5" target="uPucqMi6J45Dig3Tjr-i-93">
          <mxGeometry relative="1" as="geometry" />
        </mxCell>
        <mxCell id="uPucqMi6J45Dig3Tjr-i-21" style="labelBackgroundColor=none;fontColor=default;fillColor=#dae8fc;strokeColor=#6c8ebf;" edge="1" parent="1" source="uPucqMi6J45Dig3Tjr-i-92" target="uPucqMi6J45Dig3Tjr-i-9">
          <mxGeometry relative="1" as="geometry" />
        </mxCell>
        <mxCell id="uPucqMi6J45Dig3Tjr-i-22" style="edgeStyle=elbowEdgeStyle;elbow=horizontal;rounded=0;exitX=0;exitY=0.5;exitDx=0;exitDy=0;" edge="1" parent="1" source="uPucqMi6J45Dig3Tjr-i-56">
          <mxGeometry relative="1" as="geometry">
            <mxPoint x="-1406.25" y="10310" as="sourcePoint" />
            <mxPoint x="-1496.25" y="10415" as="targetPoint" />
            <Array as="points">
              <mxPoint x="-1496.25" y="10360" />
              <mxPoint x="-1415.25" y="10360" />
            </Array>
          </mxGeometry>
        </mxCell>
        <mxCell id="uPucqMi6J45Dig3Tjr-i-23" style="labelBackgroundColor=none;fontColor=default;fillColor=#dae8fc;strokeColor=#6c8ebf;" edge="1" parent="1" source="uPucqMi6J45Dig3Tjr-i-93" target="uPucqMi6J45Dig3Tjr-i-8">
          <mxGeometry relative="1" as="geometry" />
        </mxCell>
        <mxCell id="uPucqMi6J45Dig3Tjr-i-24" style="labelBackgroundColor=none;fontColor=default;fillColor=#dae8fc;strokeColor=#6c8ebf;" edge="1" parent="1" source="uPucqMi6J45Dig3Tjr-i-9" target="uPucqMi6J45Dig3Tjr-i-12">
          <mxGeometry relative="1" as="geometry" />
        </mxCell>
        <mxCell id="uPucqMi6J45Dig3Tjr-i-25" value="" style="endArrow=classic;html=1;rounded=0;exitX=0;exitY=0.75;exitDx=0;exitDy=0;entryX=0;entryY=0.5;entryDx=0;entryDy=0;" edge="1" parent="1" source="uPucqMi6J45Dig3Tjr-i-56" target="uPucqMi6J45Dig3Tjr-i-77">
          <mxGeometry width="50" height="50" relative="1" as="geometry">
            <mxPoint x="-1401.25" y="10339.43" as="sourcePoint" />
            <mxPoint x="-1417.15" y="10560.57" as="targetPoint" />
            <Array as="points">
              <mxPoint x="-1416.25" y="10325" />
              <mxPoint x="-1417.25" y="10470" />
              <mxPoint x="-1417.25" y="10560" />
            </Array>
          </mxGeometry>
        </mxCell>
        <mxCell id="uPucqMi6J45Dig3Tjr-i-26" style="labelBackgroundColor=none;fontColor=default;fillColor=#dae8fc;strokeColor=#6c8ebf;" edge="1" parent="1" source="uPucqMi6J45Dig3Tjr-i-8" target="uPucqMi6J45Dig3Tjr-i-11">
          <mxGeometry relative="1" as="geometry" />
        </mxCell>
        <mxCell id="uPucqMi6J45Dig3Tjr-i-27" style="labelBackgroundColor=none;fontColor=default;fillColor=#dae8fc;strokeColor=#6c8ebf;" edge="1" parent="1" source="uPucqMi6J45Dig3Tjr-i-12">
          <mxGeometry relative="1" as="geometry">
            <mxPoint x="-1081.25" y="12070" as="targetPoint" />
          </mxGeometry>
        </mxCell>
        <mxCell id="uPucqMi6J45Dig3Tjr-i-28" value="" style="endArrow=classic;html=1;rounded=0;entryX=1;entryY=0.5;entryDx=0;entryDy=0;exitX=1;exitY=0.75;exitDx=0;exitDy=0;" edge="1" parent="1" source="uPucqMi6J45Dig3Tjr-i-56" target="uPucqMi6J45Dig3Tjr-i-61">
          <mxGeometry width="50" height="50" relative="1" as="geometry">
            <mxPoint x="-1186.25" y="10331.142857142857" as="sourcePoint" />
            <mxPoint x="-1126.25" y="10650" as="targetPoint" />
            <Array as="points">
              <mxPoint x="-1186.25" y="10325" />
              <mxPoint x="-1186.25" y="10650" />
            </Array>
          </mxGeometry>
        </mxCell>
        <mxCell id="uPucqMi6J45Dig3Tjr-i-29" style="labelBackgroundColor=none;fontColor=default;fillColor=#dae8fc;strokeColor=#6c8ebf;" edge="1" parent="1" source="uPucqMi6J45Dig3Tjr-i-11" target="uPucqMi6J45Dig3Tjr-i-14">
          <mxGeometry relative="1" as="geometry" />
        </mxCell>
        <mxCell id="uPucqMi6J45Dig3Tjr-i-30" style="labelBackgroundColor=none;fontColor=default;fillColor=#dae8fc;strokeColor=#6c8ebf;" edge="1" parent="1" target="uPucqMi6J45Dig3Tjr-i-18">
          <mxGeometry relative="1" as="geometry">
            <mxPoint x="-1101.25" y="12130" as="sourcePoint" />
          </mxGeometry>
        </mxCell>
        <mxCell id="uPucqMi6J45Dig3Tjr-i-31" value="" style="endArrow=classic;html=1;rounded=0;entryX=1;entryY=0.5;entryDx=0;entryDy=0;exitX=1;exitY=0.25;exitDx=0;exitDy=0;" edge="1" parent="1" source="uPucqMi6J45Dig3Tjr-i-56" target="uPucqMi6J45Dig3Tjr-i-63">
          <mxGeometry width="50" height="50" relative="1" as="geometry">
            <mxPoint x="-1186.2499999999998" y="10295" as="sourcePoint" />
            <mxPoint x="-1186.2499999999998" y="10780" as="targetPoint" />
            <Array as="points">
              <mxPoint x="-1171.25" y="10295" />
              <mxPoint x="-1171.25" y="10780" />
            </Array>
          </mxGeometry>
        </mxCell>
        <mxCell id="uPucqMi6J45Dig3Tjr-i-32" style="labelBackgroundColor=none;fontColor=default;fillColor=#dae8fc;strokeColor=#6c8ebf;" edge="1" parent="1" target="uPucqMi6J45Dig3Tjr-i-17">
          <mxGeometry relative="1" as="geometry">
            <mxPoint x="-273.75" y="12225" as="sourcePoint" />
          </mxGeometry>
        </mxCell>
        <mxCell id="uPucqMi6J45Dig3Tjr-i-33" value="&lt;span style=&quot;font-family: Arial; font-size: 15px; text-align: left; white-space-collapse: preserve; background-color: rgb(218, 233, 248);&quot;&gt;новый рекламный блок на главной с рекламой товаров по подписке&lt;/span&gt;" style="rounded=1;whiteSpace=wrap;html=1;labelBackgroundColor=none;fillColor=#dae8fc;strokeColor=#6c8ebf;" vertex="1" parent="1">
          <mxGeometry x="-1601.25" y="11970" width="280" height="150" as="geometry" />
        </mxCell>
        <mxCell id="uPucqMi6J45Dig3Tjr-i-34" value="Frontend-разработчик: 19%" style="rounded=1;whiteSpace=wrap;html=1;fillColor=#C9DAF8;" vertex="1" parent="1">
          <mxGeometry x="-1626.25" y="11170" width="200" height="60" as="geometry" />
        </mxCell>
        <mxCell id="uPucqMi6J45Dig3Tjr-i-35" value="&lt;span style=&quot;font-family: Arial; font-size: 15px; text-align: left; white-space-collapse: preserve; background-color: rgb(218, 233, 248);&quot;&gt;внедрение в рекламный кабинет БУСТА подписок (доп рекламный формат для внутренней рекламы) - видео какие они сейчас в чатике&lt;/span&gt;" style="rounded=1;whiteSpace=wrap;html=1;labelBackgroundColor=none;fillColor=#dae8fc;strokeColor=#6c8ebf;" vertex="1" parent="1">
          <mxGeometry x="-773.75" y="11965" width="280" height="150" as="geometry" />
        </mxCell>
        <mxCell id="uPucqMi6J45Dig3Tjr-i-36" value="Определение требований: 40 часов" style="rounded=1;whiteSpace=wrap;html=1;fillColor=#D9EAD3;" vertex="1" parent="1">
          <mxGeometry x="-551.25" y="10205" width="200" height="60" as="geometry" />
        </mxCell>
        <mxCell id="uPucqMi6J45Dig3Tjr-i-37" value="Frontend-разработчик: 52 часов" style="rounded=1;whiteSpace=wrap;html=1;fillColor=#C9DAF8;" vertex="1" parent="1">
          <mxGeometry x="-551.25" y="10390" width="200" height="60" as="geometry" />
        </mxCell>
        <mxCell id="uPucqMi6J45Dig3Tjr-i-38" value="&lt;font style=&quot;font-size: 36px;&quot;&gt;Доп.функциональные вопросы&lt;/font&gt;" style="rounded=0;whiteSpace=wrap;html=1;" vertex="1" parent="1">
          <mxGeometry x="-1046.25" y="12420" width="570" height="120" as="geometry" />
        </mxCell>
        <mxCell id="uPucqMi6J45Dig3Tjr-i-39" value="Серверная логика: 60 часов" style="rounded=1;whiteSpace=wrap;html=1;fillColor=#D0E0E3;" vertex="1" parent="1">
          <mxGeometry x="-551.25" y="10300" width="200" height="60" as="geometry" />
        </mxCell>
        <mxCell id="uPucqMi6J45Dig3Tjr-i-40" value="Функциональное тестирование: 18 часов" style="rounded=1;whiteSpace=wrap;html=1;fillColor=#F4CCCC;" vertex="1" parent="1">
          <mxGeometry x="-551.25" y="10760" width="200" height="60" as="geometry" />
        </mxCell>
        <mxCell id="uPucqMi6J45Dig3Tjr-i-41" value="&lt;font color=&quot;#000000&quot;&gt;Копирайтер: 4 часа&lt;/font&gt;" style="rounded=1;whiteSpace=wrap;html=1;fillColor=#f0a30a;strokeColor=#BD7000;fontColor=#000000;" vertex="1" parent="1">
          <mxGeometry x="-551.25" y="10665" width="200" height="60" as="geometry" />
        </mxCell>
        <mxCell id="uPucqMi6J45Dig3Tjr-i-42" value="Сбор отзывов: 26 часов" style="rounded=1;whiteSpace=wrap;html=1;fillColor=#FFF2CC;" vertex="1" parent="1">
          <mxGeometry x="-551.25" y="10940" width="200" height="60" as="geometry" />
        </mxCell>
        <mxCell id="uPucqMi6J45Dig3Tjr-i-43" style="exitX=0.5;exitY=1;exitDx=0;exitDy=0;entryX=0.5;entryY=0.035;entryDx=0;entryDy=0;entryPerimeter=0;" edge="1" parent="1" target="uPucqMi6J45Dig3Tjr-i-41">
          <mxGeometry relative="1" as="geometry">
            <mxPoint x="-451.39" y="10630" as="sourcePoint" />
            <mxPoint x="-451.39" y="10660" as="targetPoint" />
          </mxGeometry>
        </mxCell>
        <mxCell id="uPucqMi6J45Dig3Tjr-i-44" value="При изменении стоимости товара по подписке формируем запрос на получение пользователей подписаных на товар" style="rounded=1;whiteSpace=wrap;html=1;labelBackgroundColor=none;fillColor=#dae8fc;strokeColor=#6c8ebf;" vertex="1" parent="1">
          <mxGeometry x="-1181.25" y="12670" width="200" height="60" as="geometry" />
        </mxCell>
        <mxCell id="uPucqMi6J45Dig3Tjr-i-45" style="exitX=0.5;exitY=1;exitDx=0;exitDy=0;entryX=0.5;entryY=0;entryDx=0;entryDy=0;" edge="1" parent="1" target="uPucqMi6J45Dig3Tjr-i-40">
          <mxGeometry relative="1" as="geometry">
            <mxPoint x="-451.54" y="10725" as="sourcePoint" />
            <mxPoint x="-451.54" y="10755" as="targetPoint" />
          </mxGeometry>
        </mxCell>
        <mxCell id="uPucqMi6J45Dig3Tjr-i-46" value="Итого: 280 часов" style="rounded=1;whiteSpace=wrap;html=1;fillColor=#FCE5CD;" vertex="1" parent="1">
          <mxGeometry x="-551.25" y="11030" width="200" height="60" as="geometry" />
        </mxCell>
        <mxCell id="uPucqMi6J45Dig3Tjr-i-47" value="&lt;font color=&quot;#000000&quot;&gt;Crm-маркетолог/Маркетолог: 5%&lt;/font&gt;" style="rounded=1;whiteSpace=wrap;html=1;fillColor=#60a917;strokeColor=#000000;fontColor=#ffffff;" vertex="1" parent="1">
          <mxGeometry x="-933.75" y="11170" width="200" height="60" as="geometry" />
        </mxCell>
        <mxCell id="uPucqMi6J45Dig3Tjr-i-48" value="Формируем компонент push уведомления с информацией об изменении стоимости товара/предложением замены/отмены" style="rounded=1;whiteSpace=wrap;html=1;labelBackgroundColor=none;fillColor=#dae8fc;strokeColor=#6c8ebf;" vertex="1" parent="1">
          <mxGeometry x="-1181.25" y="12870" width="200" height="60" as="geometry" />
        </mxCell>
        <mxCell id="uPucqMi6J45Dig3Tjr-i-49" value="&lt;font color=&quot;#000000&quot;&gt;Копирайтер: 1%&lt;/font&gt;" style="rounded=1;whiteSpace=wrap;html=1;fillColor=#f0a30a;strokeColor=#BD7000;fontColor=#000000;" vertex="1" parent="1">
          <mxGeometry x="-933.75" y="11265" width="200" height="60" as="geometry" />
        </mxCell>
        <mxCell id="uPucqMi6J45Dig3Tjr-i-50" style="exitX=0.5;exitY=1;exitDx=0;exitDy=0;entryX=0.5;entryY=0;entryDx=0;entryDy=0;" edge="1" parent="1" source="uPucqMi6J45Dig3Tjr-i-36" target="uPucqMi6J45Dig3Tjr-i-39">
          <mxGeometry relative="1" as="geometry">
            <mxPoint x="-451.25" y="10270" as="sourcePoint" />
          </mxGeometry>
        </mxCell>
        <mxCell id="uPucqMi6J45Dig3Tjr-i-51" value="Отправляем push уведомление / планируем крон задачу на push уведомление при активном статусе пользователя" style="rounded=1;whiteSpace=wrap;html=1;labelBackgroundColor=none;fillColor=#dae8fc;strokeColor=#6c8ebf;" vertex="1" parent="1">
          <mxGeometry x="-1181.25" y="12970" width="200" height="60" as="geometry" />
        </mxCell>
        <mxCell id="uPucqMi6J45Dig3Tjr-i-52" style="exitX=0.5;exitY=1;exitDx=0;exitDy=0;" edge="1" parent="1" source="uPucqMi6J45Dig3Tjr-i-40" target="uPucqMi6J45Dig3Tjr-i-6">
          <mxGeometry relative="1" as="geometry">
            <mxPoint x="-451.25" y="10570" as="sourcePoint" />
            <mxPoint x="-583.75" y="10690" as="targetPoint" />
          </mxGeometry>
        </mxCell>
        <mxCell id="uPucqMi6J45Dig3Tjr-i-53" value="Конец" style="ellipse;whiteSpace=wrap;html=1;labelBackgroundColor=none;fillColor=#dae8fc;strokeColor=#6c8ebf;" vertex="1" parent="1">
          <mxGeometry x="-1181.25" y="13070" width="80" height="40" as="geometry" />
        </mxCell>
        <mxCell id="uPucqMi6J45Dig3Tjr-i-54" edge="1" parent="1" source="uPucqMi6J45Dig3Tjr-i-42" target="uPucqMi6J45Dig3Tjr-i-46">
          <mxGeometry relative="1" as="geometry" />
        </mxCell>
        <mxCell id="uPucqMi6J45Dig3Tjr-i-55" style="labelBackgroundColor=none;fontColor=default;fillColor=#dae8fc;strokeColor=#6c8ebf;" edge="1" parent="1" source="uPucqMi6J45Dig3Tjr-i-91" target="uPucqMi6J45Dig3Tjr-i-44">
          <mxGeometry relative="1" as="geometry" />
        </mxCell>
        <mxCell id="uPucqMi6J45Dig3Tjr-i-56" value="Проектный менеджер" style="rounded=1;whiteSpace=wrap;html=1;fillColor=#D9EAD3;" vertex="1" parent="1">
          <mxGeometry x="-1401.25" y="10280" width="200" height="60" as="geometry" />
        </mxCell>
        <mxCell id="uPucqMi6J45Dig3Tjr-i-57" style="labelBackgroundColor=none;fontColor=default;fillColor=#dae8fc;strokeColor=#6c8ebf;" edge="1" parent="1" source="uPucqMi6J45Dig3Tjr-i-95" target="uPucqMi6J45Dig3Tjr-i-48">
          <mxGeometry relative="1" as="geometry" />
        </mxCell>
        <mxCell id="uPucqMi6J45Dig3Tjr-i-58" value="Backend-разработчик" style="rounded=1;whiteSpace=wrap;html=1;fillColor=#D0E0E3;" vertex="1" parent="1">
          <mxGeometry x="-1398.75" y="10415" width="200" height="60" as="geometry" />
        </mxCell>
        <mxCell id="uPucqMi6J45Dig3Tjr-i-59" style="labelBackgroundColor=none;fontColor=default;fillColor=#dae8fc;strokeColor=#6c8ebf;" edge="1" parent="1" source="uPucqMi6J45Dig3Tjr-i-48" target="uPucqMi6J45Dig3Tjr-i-51">
          <mxGeometry relative="1" as="geometry" />
        </mxCell>
        <mxCell id="uPucqMi6J45Dig3Tjr-i-60" value="Специалист по базе данных" style="rounded=1;whiteSpace=wrap;html=1;fillColor=#EAD1DC;" vertex="1" parent="1">
          <mxGeometry x="-1156.25" y="10415" width="200" height="60" as="geometry" />
        </mxCell>
        <mxCell id="uPucqMi6J45Dig3Tjr-i-61" value="DevOps-инженер" style="rounded=1;whiteSpace=wrap;html=1;fillColor=#f5f5f5;strokeColor=#666666;fontColor=#333333;" vertex="1" parent="1">
          <mxGeometry x="-1398.75" y="10620" width="200" height="60" as="geometry" />
        </mxCell>
        <mxCell id="uPucqMi6J45Dig3Tjr-i-62" style="labelBackgroundColor=none;fontColor=default;fillColor=#dae8fc;strokeColor=#6c8ebf;" edge="1" parent="1" target="uPucqMi6J45Dig3Tjr-i-53">
          <mxGeometry relative="1" as="geometry">
            <mxPoint x="-1101.25" y="13030" as="sourcePoint" />
          </mxGeometry>
        </mxCell>
        <mxCell id="uPucqMi6J45Dig3Tjr-i-63" value="Специалист по сбору отзывов" style="rounded=1;whiteSpace=wrap;html=1;fillColor=#FFF2CC;" vertex="1" parent="1">
          <mxGeometry x="-1401.25" y="10750" width="200" height="60" as="geometry" />
        </mxCell>
        <mxCell id="uPucqMi6J45Dig3Tjr-i-64" value="&lt;span style=&quot;font-family: Arial; font-size: 15px; text-align: left; white-space-collapse: preserve; background-color: rgb(218, 233, 248);&quot;&gt;push уведомления по сценариям подписки (выросла цена, закончился товар, Х дней до доставки)&lt;/span&gt;" style="rounded=1;whiteSpace=wrap;html=1;labelBackgroundColor=none;fillColor=#dae8fc;strokeColor=#6c8ebf;" vertex="1" parent="1">
          <mxGeometry x="-1601.25" y="12770" width="280" height="150" as="geometry" />
        </mxCell>
        <mxCell id="uPucqMi6J45Dig3Tjr-i-65" value="Проектный менеджер: 14%" style="rounded=1;whiteSpace=wrap;html=1;fillColor=#D9EAD3;" vertex="1" parent="1">
          <mxGeometry x="-1398.75" y="11080" width="200" height="60" as="geometry" />
        </mxCell>
        <mxCell id="uPucqMi6J45Dig3Tjr-i-66" value="Начало" style="ellipse;whiteSpace=wrap;html=1;labelBackgroundColor=none;fillColor=#dae8fc;strokeColor=#6c8ebf;" vertex="1" parent="1">
          <mxGeometry x="-353.75" y="12585" width="80" height="40" as="geometry" />
        </mxCell>
        <mxCell id="uPucqMi6J45Dig3Tjr-i-67" value="Специалист по базе данных: 17%" style="rounded=1;whiteSpace=wrap;html=1;fillColor=#EAD1DC;" vertex="1" parent="1">
          <mxGeometry x="-1166.25" y="11170" width="200" height="60" as="geometry" />
        </mxCell>
        <mxCell id="uPucqMi6J45Dig3Tjr-i-68" value="Получаем поисковый запрос&lt;div&gt;(например: подгузники)&lt;/div&gt;" style="rounded=1;whiteSpace=wrap;html=1;labelBackgroundColor=none;fillColor=#dae8fc;strokeColor=#6c8ebf;" vertex="1" parent="1">
          <mxGeometry x="-353.75" y="12665" width="200" height="60" as="geometry" />
        </mxCell>
        <mxCell id="uPucqMi6J45Dig3Tjr-i-69" value="Тестировщик (QA-инженер): 6%" style="rounded=1;whiteSpace=wrap;html=1;fillColor=#F4CCCC;" vertex="1" parent="1">
          <mxGeometry x="-1398.75" y="11260" width="200" height="60" as="geometry" />
        </mxCell>
        <mxCell id="uPucqMi6J45Dig3Tjr-i-70" value="Формируем запрос в бд&amp;nbsp;&lt;div&gt;на получение товара из категории &quot;подгузники&quot; с параметром subscription=true&lt;/div&gt;" style="rounded=1;whiteSpace=wrap;html=1;labelBackgroundColor=none;fillColor=#dae8fc;strokeColor=#6c8ebf;" vertex="1" parent="1">
          <mxGeometry x="-353.75" y="12765" width="200" height="60" as="geometry" />
        </mxCell>
        <mxCell id="uPucqMi6J45Dig3Tjr-i-71" value="DevOps-инженер: 8&lt;span style=&quot;background-color: initial;&quot;&gt;%&lt;/span&gt;" style="rounded=1;whiteSpace=wrap;html=1;fillColor=#f5f5f5;fontColor=#333333;strokeColor=#666666;" vertex="1" parent="1">
          <mxGeometry x="-1398.75" y="11350" width="200" height="60" as="geometry" />
        </mxCell>
        <mxCell id="uPucqMi6J45Dig3Tjr-i-72" value="Формируем компонент-вкладку&lt;div&gt;&quot;подписки&quot; с компонентами товаров&lt;/div&gt;" style="rounded=1;whiteSpace=wrap;html=1;labelBackgroundColor=none;fillColor=#dae8fc;strokeColor=#6c8ebf;" vertex="1" parent="1">
          <mxGeometry x="-353.75" y="12865" width="200" height="60" as="geometry" />
        </mxCell>
        <mxCell id="uPucqMi6J45Dig3Tjr-i-73" value="Специалист по сбору отзывов: 8&lt;span style=&quot;background-color: initial;&quot;&gt;%&lt;/span&gt;" style="rounded=1;whiteSpace=wrap;html=1;fillColor=#FFF2CC;" vertex="1" parent="1">
          <mxGeometry x="-1398.75" y="11440" width="200" height="60" as="geometry" />
        </mxCell>
        <mxCell id="uPucqMi6J45Dig3Tjr-i-74" value="Отображем блок" style="rounded=1;whiteSpace=wrap;html=1;labelBackgroundColor=none;fillColor=#dae8fc;strokeColor=#6c8ebf;" vertex="1" parent="1">
          <mxGeometry x="-353.75" y="12965" width="200" height="60" as="geometry" />
        </mxCell>
        <mxCell id="uPucqMi6J45Dig3Tjr-i-75" value="Backend-разработчик: 22%" style="rounded=1;whiteSpace=wrap;html=1;fillColor=#D0E0E3;" vertex="1" parent="1">
          <mxGeometry x="-1398.75" y="11170" width="200" height="60" as="geometry" />
        </mxCell>
        <mxCell id="uPucqMi6J45Dig3Tjr-i-76" value="Конец" style="ellipse;whiteSpace=wrap;html=1;labelBackgroundColor=none;fillColor=#dae8fc;strokeColor=#6c8ebf;" vertex="1" parent="1">
          <mxGeometry x="-353.75" y="13065" width="80" height="40" as="geometry" />
        </mxCell>
        <mxCell id="uPucqMi6J45Dig3Tjr-i-77" value="Тестировщик (QA-инженер)" style="rounded=1;whiteSpace=wrap;html=1;fillColor=#F4CCCC;" vertex="1" parent="1">
          <mxGeometry x="-1398.75" y="10530" width="200" height="60" as="geometry" />
        </mxCell>
        <mxCell id="uPucqMi6J45Dig3Tjr-i-78" style="labelBackgroundColor=none;fontColor=default;fillColor=#dae8fc;strokeColor=#6c8ebf;" edge="1" parent="1" source="uPucqMi6J45Dig3Tjr-i-66" target="uPucqMi6J45Dig3Tjr-i-68">
          <mxGeometry relative="1" as="geometry" />
        </mxCell>
        <mxCell id="uPucqMi6J45Dig3Tjr-i-79" value="" style="exitX=0.5;exitY=1;exitDx=0;exitDy=0;" edge="1" parent="1" source="uPucqMi6J45Dig3Tjr-i-39" target="uPucqMi6J45Dig3Tjr-i-37">
          <mxGeometry relative="1" as="geometry">
            <mxPoint x="-451.25" y="10360" as="sourcePoint" />
            <mxPoint x="-451.25" y="10520" as="targetPoint" />
          </mxGeometry>
        </mxCell>
        <mxCell id="uPucqMi6J45Dig3Tjr-i-80" style="labelBackgroundColor=none;fontColor=default;fillColor=#dae8fc;strokeColor=#6c8ebf;" edge="1" parent="1" source="uPucqMi6J45Dig3Tjr-i-68" target="uPucqMi6J45Dig3Tjr-i-70">
          <mxGeometry relative="1" as="geometry" />
        </mxCell>
        <mxCell id="uPucqMi6J45Dig3Tjr-i-81" value="Проектирование БД: 40 часов" style="rounded=1;whiteSpace=wrap;html=1;fillColor=#EAD1DC;strokeColor=#36393d;" vertex="1" parent="1">
          <mxGeometry x="-551.25" y="10480" width="200" height="60" as="geometry" />
        </mxCell>
        <mxCell id="uPucqMi6J45Dig3Tjr-i-82" style="labelBackgroundColor=none;fontColor=default;fillColor=#dae8fc;strokeColor=#6c8ebf;" edge="1" parent="1" source="uPucqMi6J45Dig3Tjr-i-70" target="uPucqMi6J45Dig3Tjr-i-72">
          <mxGeometry relative="1" as="geometry" />
        </mxCell>
        <mxCell id="uPucqMi6J45Dig3Tjr-i-83" style="labelBackgroundColor=none;fontColor=default;fillColor=#dae8fc;strokeColor=#6c8ebf;" edge="1" parent="1" source="uPucqMi6J45Dig3Tjr-i-72" target="uPucqMi6J45Dig3Tjr-i-74">
          <mxGeometry relative="1" as="geometry" />
        </mxCell>
        <mxCell id="uPucqMi6J45Dig3Tjr-i-84" style="labelBackgroundColor=none;fontColor=default;fillColor=#dae8fc;strokeColor=#6c8ebf;" edge="1" parent="1" target="uPucqMi6J45Dig3Tjr-i-76">
          <mxGeometry relative="1" as="geometry">
            <mxPoint x="-273.75" y="13025" as="sourcePoint" />
          </mxGeometry>
        </mxCell>
        <mxCell id="uPucqMi6J45Dig3Tjr-i-85" value="&lt;span style=&quot;font-family: Arial; font-size: 15px; text-align: left; white-space-collapse: preserve; background-color: rgb(218, 233, 248);&quot;&gt;push рассылка о появлении раздела подписок&lt;/span&gt;" style="rounded=1;whiteSpace=wrap;html=1;labelBackgroundColor=none;fillColor=#dae8fc;strokeColor=#6c8ebf;" vertex="1" parent="1">
          <mxGeometry x="-773.75" y="12765" width="280" height="150" as="geometry" />
        </mxCell>
        <mxCell id="uPucqMi6J45Dig3Tjr-i-86" value="&lt;font color=&quot;#000000&quot;&gt;Crm-маркетолог/Маркетолог&lt;/font&gt;" style="rounded=1;whiteSpace=wrap;html=1;fillColor=#60a917;strokeColor=#000000;fontColor=#ffffff;" vertex="1" parent="1">
          <mxGeometry x="-933.75" y="10415" width="200" height="60" as="geometry" />
        </mxCell>
        <mxCell id="uPucqMi6J45Dig3Tjr-i-87" style="edgeStyle=elbowEdgeStyle;elbow=horizontal;rounded=0;exitX=1;exitY=0.5;exitDx=0;exitDy=0;" edge="1" parent="1" source="uPucqMi6J45Dig3Tjr-i-56">
          <mxGeometry relative="1" as="geometry">
            <mxPoint x="-964.75" y="10310" as="sourcePoint" />
            <mxPoint x="-860.25" y="10415" as="targetPoint" />
            <Array as="points">
              <mxPoint x="-860.25" y="10360" />
              <mxPoint x="-779.25" y="10360" />
            </Array>
          </mxGeometry>
        </mxCell>
        <mxCell id="uPucqMi6J45Dig3Tjr-i-88" value="&lt;font color=&quot;#000000&quot;&gt;Копирайтер&lt;/font&gt;" style="rounded=1;whiteSpace=wrap;html=1;fillColor=#f0a30a;strokeColor=#BD7000;fontColor=#000000;" vertex="1" parent="1">
          <mxGeometry x="-933.75" y="10510" width="200" height="60" as="geometry" />
        </mxCell>
        <mxCell id="uPucqMi6J45Dig3Tjr-i-89" style="edgeStyle=elbowEdgeStyle;elbow=horizontal;rounded=0;exitX=0.365;exitY=1;exitDx=0;exitDy=0;exitPerimeter=0;" edge="1" parent="1" source="uPucqMi6J45Dig3Tjr-i-86">
          <mxGeometry relative="1" as="geometry">
            <mxPoint x="-857.25" y="10475" as="sourcePoint" />
            <mxPoint x="-860.75" y="10510" as="targetPoint" />
            <Array as="points">
              <mxPoint x="-860.75" y="10490" />
              <mxPoint x="-717.25" y="10515" />
            </Array>
          </mxGeometry>
        </mxCell>
        <mxCell id="uPucqMi6J45Dig3Tjr-i-90" value="&lt;font color=&quot;#000000&quot;&gt;Crm-маркетолог/Маркетолог: 14 часов&lt;/font&gt;" style="rounded=1;whiteSpace=wrap;html=1;fillColor=#60a917;strokeColor=#000000;fontColor=#ffffff;" vertex="1" parent="1">
          <mxGeometry x="-551.25" y="10570" width="200" height="60" as="geometry" />
        </mxCell>
        <mxCell id="uPucqMi6J45Dig3Tjr-i-91" value="Начало" style="ellipse;whiteSpace=wrap;html=1;labelBackgroundColor=none;fillColor=#dae8fc;strokeColor=#6c8ebf;" vertex="1" parent="1">
          <mxGeometry x="-1181.25" y="12590" width="80" height="40" as="geometry" />
        </mxCell>
        <mxCell id="uPucqMi6J45Dig3Tjr-i-92" value="Начало" style="ellipse;whiteSpace=wrap;html=1;labelBackgroundColor=none;fillColor=#dae8fc;strokeColor=#6c8ebf;" vertex="1" parent="1">
          <mxGeometry x="-1181.25" y="11790" width="80" height="40" as="geometry" />
        </mxCell>
        <mxCell id="uPucqMi6J45Dig3Tjr-i-93" value="Выбираем фукциональный, рекламный модуль товаров &quot;по подписке&#39;" style="rounded=1;whiteSpace=wrap;html=1;labelBackgroundColor=none;fillColor=#dae8fc;strokeColor=#6c8ebf;" vertex="1" parent="1">
          <mxGeometry x="-353.75" y="11865" width="200" height="60" as="geometry" />
        </mxCell>
        <mxCell id="uPucqMi6J45Dig3Tjr-i-94" value="" style="labelBackgroundColor=none;fontColor=default;fillColor=#dae8fc;strokeColor=#6c8ebf;" edge="1" parent="1" source="uPucqMi6J45Dig3Tjr-i-44" target="uPucqMi6J45Dig3Tjr-i-95">
          <mxGeometry relative="1" as="geometry">
            <mxPoint x="-1080.75" y="12730" as="sourcePoint" />
            <mxPoint x="-1080.75" y="12870" as="targetPoint" />
          </mxGeometry>
        </mxCell>
        <mxCell id="uPucqMi6J45Dig3Tjr-i-95" value="Формируем запрос на получение аналогичных товаров по старой ценовой категории" style="rounded=1;whiteSpace=wrap;html=1;labelBackgroundColor=none;fillColor=#dae8fc;strokeColor=#6c8ebf;" vertex="1" parent="1">
          <mxGeometry x="-1181.25" y="12770" width="200" height="60" as="geometry" />
        </mxCell>
      </root>
    </mxGraphModel>
  </diagram>
  <diagram id="2RIT32Oz8Z3ykt4fH2rw" name="Page-2">
    <mxGraphModel grid="1" page="1" gridSize="10" guides="1" tooltips="1" connect="1" arrows="1" fold="1" pageScale="1" pageWidth="850" pageHeight="1100" math="0" shadow="0">
      <root>
        <mxCell id="0" />
        <mxCell id="1" parent="0" />
      </root>
    </mxGraphModel>
  </diagram>
</mxfile>
